<svg xmlns="http://www.w3.org/2000/svg" width="11.69" height="5.52" viewBox="0 0 11.69 5.52">
  <title>hamburger-middle-2</title>
  <g id="圖層_2" data-name="圖層 2">
    <g id="MENU">
      <path d="M11.44,4.22a.42.42,0,0,0-.45.1c-.07.06-.13.13-.27.06a.2.2,0,0,0-.14.06c-.11.16-.33.14-.52.14s-.29,0-.27.19-.11.18-.23.17A.71.71,0,0,0,9,5s-.22,0-.34,0a.5.5,0,0,0-.18,0c-.08,0-.13.12-.25,0a.11.11,0,0,0-.08,0,1.27,1.27,0,0,1-.54.07.25.25,0,0,0-.17.06.76.76,0,0,1-.75.2.48.48,0,0,0-.44.08s-.2,0-.31,0a.66.66,0,0,1-.54-.19l-.24-.18s-.09-.07-.09-.09c.06-.25-.28-.3-.41-.45s0,0-.06,0c-.19.06-.29-.07-.4-.15l-.77-.56a.53.53,0,0,0-.17-.1c-.19.06-.28,0-.38-.13s-.31,0-.46-.08-.11,0-.15,0S2.1,3.42,2,3.48s-.09,0-.14-.07l-.19-.05a.57.57,0,0,1-.15,0c-.1-.06-.17-.13-.29-.06s-.07,0-.08,0S.77,3.17.6,3.13s-.12,0-.15,0A5.45,5.45,0,0,1,0,2.79c.25-.14.16-.33.12-.53l.28,0a2.77,2.77,0,0,0,0-.3.16.16,0,0,1,.2-.19.22.22,0,0,0,.25-.06l.64-.49a.26.26,0,0,1,.27-.08c.05,0,.14,0,.2-.09s.13-.14.3-.08A.22.22,0,0,0,2.37,1L2.69.71A.24.24,0,0,1,3,.64c.15,0,.24-.11.19-.3a.38.38,0,0,0,.41-.1.19.19,0,0,1,.25,0,.11.11,0,0,0,.08,0C4,.05,4.15.1,4.29.1s.26,0,.36-.07a.53.53,0,0,1,.29,0L6.36.08H6.7a.57.57,0,0,1,.15,0,.26.26,0,0,0,.29.07s.09,0,.13.06.13.1.24.05a.24.24,0,0,1,.13,0,.3.3,0,0,0,.29.07s.11,0,.15.07a.71.71,0,0,0,.57.15h.13c.14.16.34.1.49.11A.34.34,0,0,1,9.52.8L9.78,1s.09.07.12.06c.32-.06.39.2.58.29,0,0,0,0,0,.06.05.23.08.25.4.24-.1.17.09.25.22.35s.26.16.32.26,0,.2,0,.3,0,.26.16.37c0,0,0,.11,0,.18s.11.27-.07.37a0,0,0,0,0,0,0c.11.17-.08.23-.17.33s0,.21,0,.32S11.42,4.2,11.44,4.22Z" fill="#231815"/>
    </g>
  </g>
</svg>
