<svg xmlns="http://www.w3.org/2000/svg" width="33.31" height="5.21" viewBox="0 0 33.31 5.21">
  <title>hamburger-top</title>
  <g id="圖層_2" data-name="圖層 2">
    <g id="MENU">
      <path d="M33.31,2.54c-.77,0-.84.11-.87.21s0,.15-.53.13c-.09,0-.23.05-.21.09s-.48.21-.95.26c-.65.07-.7.08-.22.24.24.08.17.19-.15.21-.54,0-1.11.06-1.21.21A5.35,5.35,0,0,1,28.3,4a2,2,0,0,0-.39.07c-.11,0,0,.14-.53.11a.32.32,0,0,0-.17,0A4.29,4.29,0,0,1,26,4.4c-.15,0-.27,0-.27.09,0,.21-.36.35-1.39.39-.34,0-.93,0-.9.18a3.15,3.15,0,0,1-.76.1,6.4,6.4,0,0,1-1.79,0L19.86,5c-.15,0-.38,0-.43-.06a8.38,8.38,0,0,0-2.12-.28h-.17a3.85,3.85,0,0,1-1.35,0l-3.3-.29c-.22,0-.59,0-.65,0a3.34,3.34,0,0,1-1.26,0,6.9,6.9,0,0,0-1.35,0c-.15,0-.28,0-.42,0a2.78,2.78,0,0,0-1,0s-.36,0-.55,0H6.72c-.16,0-.31,0-.46,0a2.14,2.14,0,0,0-.87,0H5.13a6.69,6.69,0,0,0-1.53,0,3.37,3.37,0,0,1-.44,0l-1.9-.17c.29-.19-.39-.34-1-.5l.75,0L.26,3.53c-.34-.1-.37-.21,0-.22s.41-.06.45-.12l.41-.61c0-.06,0-.14.49-.14A.47.47,0,0,0,2,2.31c.09-.07,0-.17.52-.15a.34.34,0,0,0,.24-.09,2,2,0,0,0,.21-.3c0-.06.06-.12.51-.13s.33-.16-.25-.32c.59,0,.79-.08.79-.2S4,1,4.49,1c.06,0,.17,0,.16,0S5.12.84,5.46.8s.67-.06.73-.16A2.41,2.41,0,0,1,6.87.55L10.59.23c.29,0,.54-.07.82-.09a2.4,2.4,0,0,1,.47,0,2.5,2.5,0,0,0,.89,0s.29,0,.45,0a1.64,1.64,0,0,0,.72,0,2.71,2.71,0,0,1,.41,0,2.57,2.57,0,0,0,.9,0,4.07,4.07,0,0,1,.54,0,6.58,6.58,0,0,0,1.8,0,2.73,2.73,0,0,1,.37,0,5,5,0,0,0,1.45,0,3.72,3.72,0,0,1,.82,0L21.3.11a3.06,3.06,0,0,0,.47,0A9.08,9.08,0,0,1,23.9.23a.93.93,0,0,1,.24.05,2.93,2.93,0,0,0,1.59.1c.16.18.83.2,1.4.26s1,.07,1.43.14S29,1,29.34,1a4.57,4.57,0,0,0,1.29.28,1.87,1.87,0,0,1,.49.15c.28.12.93.22.71.35,0,0,0,0,0,0,.68.12.34.23.36.34s.47.19.77.28A2.46,2.46,0,0,0,33.31,2.54Z" fill="#231815"/>
    </g>
  </g>
</svg>
