<svg xmlns="http://www.w3.org/2000/svg" width="18.68" height="6.81" viewBox="0 0 18.68 6.81">
  <title>hamburger-middle-1</title>
  <g id="圖層_2" data-name="圖層 2">
    <g id="MENU">
      <path d="M18.3,1.77c-.22-.12-.36-.31-.67-.37A1.82,1.82,0,0,1,17,1.07l-.09,0a4.25,4.25,0,0,1-.75-.22.88.88,0,0,0-.28,0,1.79,1.79,0,0,1-.51-.07,2.92,2.92,0,0,0-.4-.1l-.19,0L14.39.55a5.78,5.78,0,0,1-.6-.11,2.09,2.09,0,0,0-.85-.07,2.16,2.16,0,0,1-.62,0,1.56,1.56,0,0,0-.36,0l-.74,0a.41.41,0,0,1-.19,0L6,0A10,10,0,0,0,4.68.12a3.68,3.68,0,0,1-.82,0,2.43,2.43,0,0,0-.81,0,2.36,2.36,0,0,1-.48,0l-.38,0c-.42,0-.83,0-1.24,0C.76.19.76.66.58.71A.17.17,0,0,0,.43.87a.33.33,0,0,1-.07.26c-.12.12-.08.26-.1.39S.3,1.85.18,2s0,0,0,.06,0,.26-.13.36S0,2.48,0,2.52s.13.16.11.25c.15.09.08.2.11.3l.12.26a.11.11,0,0,0,0,.08.39.39,0,0,1,0,.28c-.09.12,0,.26,0,.39s.12.31,0,.46,0,0,0,.06,0,.26,0,.37a.12.12,0,0,0,0,.13c.06.07.18.13.18.22.17.07.13.19.18.29l.36.47.09,0c.08.09.19.17.22.25s.11.12.19.16l.61.3L5.91,5.53,7.75,5h.08l3-.84A.31.31,0,0,1,11,4.06a1.64,1.64,0,0,0,.45-.1,4.33,4.33,0,0,1,.77-.2c.36-.09.73-.16,1.09-.27l.22,0a5.47,5.47,0,0,1,.58-.15c.16,0,.3-.08.45-.12A3.22,3.22,0,0,0,15,3.05a2.5,2.5,0,0,1,.64-.14l1-.13c.12,0,.21-.1.34-.12a1.36,1.36,0,0,1,.68-.09s.06,0,.09,0a1.1,1.1,0,0,1,.72,0h0l.21-.16a2.09,2.09,0,0,0-.1-.21C18.5,2,18.47,1.86,18.3,1.77Z" fill="#231815"/>
    </g>
  </g>
</svg>
