<svg xmlns="http://www.w3.org/2000/svg" width="44.62" height="6.81" viewBox="0 0 44.62 6.81">
  <title>hamburger-bottom</title>
  <g id="圖層_2" data-name="圖層 2">
    <g id="MENU">
      <path d="M44.62,3.37c-1,0-1.13.13-1.17.27s0,.2-.71.17c-.12,0-.31.07-.28.11.15.22-.64.27-1.28.34-.86.09-.93.11-.28.32.32.1.23.24-.21.27-.72.05-1.48.07-1.62.27a7.72,7.72,0,0,1-1.16.12,2.37,2.37,0,0,0-.52.08c-.14.07,0,.18-.7.14a.61.61,0,0,0-.24,0,5.61,5.61,0,0,1-1.57.27c-.2,0-.35.07-.36.12-.05.28-.48.45-1.85.5-.46,0-1.25.05-1.22.24a4.09,4.09,0,0,1-1,.12,9,9,0,0,1-2.41,0l-1.42-.13A3.63,3.63,0,0,1,26,6.5a11.87,11.87,0,0,0-2.84-.37H23a5.59,5.59,0,0,1-1.81,0L16.73,5.7a6.42,6.42,0,0,0-.86,0,4.84,4.84,0,0,1-1.69,0,9.14,9.14,0,0,0-1.81.06c-.21,0-.37.05-.56,0a3.63,3.63,0,0,0-1.3,0s-.49,0-.74,0H9c-.21,0-.41,0-.61,0a3.07,3.07,0,0,0-1.17,0,1.32,1.32,0,0,1-.35,0,8.75,8.75,0,0,0-2,0c-.21,0-.4,0-.59,0L1.69,5.6c.39-.24-.52-.44-1.29-.66l1-.05L.35,4.54c-.45-.13-.5-.28.06-.28S1,4.17,1,4.1c.19-.27.35-.53.54-.79.06-.09,0-.19.66-.18.22,0,.29-.11.4-.18s-.05-.21.7-.2a.46.46,0,0,0,.32-.1,3.6,3.6,0,0,0,.28-.4c.06-.08.07-.16.68-.17s.45-.21-.34-.41c.8,0,1.06-.11,1.06-.26s0-.18.68-.14c.08,0,.23,0,.22,0C6.11,1.05,6.84,1,7.31,1s.89-.07,1-.2A3.4,3.4,0,0,1,9.19.67l5-.4c.38,0,.71-.09,1.09-.12a3.27,3.27,0,0,1,.63,0,3.47,3.47,0,0,0,1.19,0,3.33,3.33,0,0,1,.6,0,2.31,2.31,0,0,0,1,0,2.44,2.44,0,0,1,.55,0,3.3,3.3,0,0,0,1.2,0,4,4,0,0,1,.72,0,9.53,9.53,0,0,0,2.42,0,2.2,2.2,0,0,1,.49,0A6.52,6.52,0,0,0,26,0a5.05,5.05,0,0,1,1.1,0l1.43.12a3.72,3.72,0,0,0,.62,0A13.4,13.4,0,0,1,32,.32a1.07,1.07,0,0,1,.31.06,4.16,4.16,0,0,0,2.14.14c.21.23,1.11.26,1.87.34s1.39.09,1.91.19a11,11,0,0,1,1.06.35A6.41,6.41,0,0,0,41,1.76a2.21,2.21,0,0,1,.66.21c.37.15,1.24.29.94.46,0,0,0,0,0,0,.91.16.45.29.48.44s.63.25,1,.37Z" fill="#231815"/>
    </g>
  </g>
</svg>
