<svg xmlns="http://www.w3.org/2000/svg" width="400.25" height="563.61" viewBox="0 0 400.25 563.61">
  <title>shit-tiger-2</title>
  <g id="圖層_2" data-name="圖層 2">
    <g id="DESGIN">
      <g>
        <path d="M71,176.41a48.87,48.87,0,0,0,3.83-5l.24-2.15c.86-2,7.44-6,9.83-6.72h3.36c.95,1,2.38,1.44,2.88,2.88,1.61-.2,2.69-1.44,4.07-1.68.63-.11.46.41.72.48,1.21.33,3.11-.49,3.84-1,3.11-2,4.86-5.37,9.35-4.79.25-1.18.45-.47.72-1,.5-.92-.09-5.58.48-7,1.51-3.64,5.45-11.12,8.39-13.18-.16-.85-.17-.81-.72-1.2.21-3.39,2.39-4.64,3.36-6.95.4-1-.25-1.48.24-2.64.86-2.08,5.4-7.11,7.19-8.39.72-.52,1.89-.39,2.63-1,.53-.4.69-1.49,1.2-1.92,1.07-.9,2.86-1.18,3.6-2.4.35-.77,0-2.38.72-3.35s2.1-.73,3.12-1.44c.54-.38.6-1.25,1.2-1.68V105c-4.1,0-3.64-.95-6-1.92h-1.68c-.84-.4-1.16-1.91-1.91-2.39a11.27,11.27,0,0,0-2.4-.48c-.19-1.62-4.26-5.19-5.52-6v-.72c-2-.38-5.32-4-6-5.75l-.24-1.92c-.43-.79-1.34-1.11-1.68-2.16-.53-.85-.16-2.55.24-3.35s1.4-1.62,1.68-2.4c.94-2.59,1.18-4.72,3.6-5.75,0,0,0-.48.24-.24v.24c1.69,0,1.74.48,2.39,1.43.54-.29.48-.41.72-1,.66-.15,1.33-.4,1.92,0,2.71-.41,2-3.32,5.75-3.12.69,0,.83-.36,1.44,0,1.26,0,1.41,0,1.68-1,0,0,.48,0,.24-.24h-.24c-.17-1.32-1.26-1.66-2.16-2.16-.37-.25-2.49.77-4.07.48s-3.23.81-4.8,1.2c-2.23.55-4.55-.74-6.23,0-1.47.65-2.6,2.29-4.32,2.64v.72a1.47,1.47,0,0,0-.48.48c-1.21,0-2.27.07-2.87-.48-.83-.36-2.87-4-3.12-5-.2-.79.69-2.67.24-3.83-.15-.39-1.09-1.48-1.2-1.92-.64-2.53,1.56-5,2.4-6.24,3.43-.61,4.27,0,6.23-2.15,2.25,0,9.48,3.78,10.31,5,.72,1.07.71,2.21,1.44,3.36.63,1,2,1.45,2.64,2.4.82-.21.61-.12,1-.72.23-.1-1.43-2.35-1.68-2.88-.92-1.94.36-4.71-.48-7-.35-.93-2-4.84-1.44-6.24,2.64-7.09,6.06-13,12-16.78,1.36-.88,2.11-2.77,3.83-3.36s3.35,0,4.56-.24c.27-.06.79-.64,1-.72,1.72-.81,3.88-1.31,5.51-1.91A18.66,18.66,0,0,1,160,23c.14.06.52.65.71.72l7.2.24c1.63.6,4.52-.06,6.71.48a56.27,56.27,0,0,1,6.48,1.91l6.71.24c2,.52,4.1,1.68,6.23,1.92,1.21.14,3.26-.58,4.56,0,.95.43,1.57,1.65,2.39,2.16a14.11,14.11,0,0,0,1.68,1h1.44c.56.29.33,1,.72,1.44l1.92,1c1.78-.89,3.91.76,5.27,1.2l4.56.48c3,1.27,6.08,3.1,9.11,4.32l2.4.24a9.2,9.2,0,0,1,3.11,2.16v.72l2.88,1c1.07.67,2,2.06,3.12,2.63.9.47,1.72.31,2.63.72,1.67.74,3.67,2,5.52,2.64s3.37.34,5.27,1c2.43.78,5.47,2.15,7.92,2.87l8.39.24c1.87.15,5.25,1.45,7.67.48,1.29-.51,2.4-1.88,3.6-2.39L281.5,52c1.66-.57,3-2.2,4.56-2.88l2.63-.24c.75-.34,1.5-1.41,2.4-1.68,1.13-.34,2.5.26,3.36-.24,2.88-1.7,4.16-7,8.63-6.23a9.74,9.74,0,0,1,1.68-2.4h.71c.28-1.26,1.66-4.14,2.64-4.79.81-.54,1.51-.58,1.92-1.44.83-1.73.44-2.79,1.2-4.08.44-.73,1.54-1.32,1.92-2.16.57-1.25.48-2.69,1.2-3.83.09-1.5.22-2.3-1-2.64a3,3,0,0,1,1.67-3.12A14.07,14.07,0,0,0,312,6.42c-.71-.89-2-.94-2.88-1.68C306.53,4.8,306,6,304.52,6.9l-4.8,1.44c-2,1.31-3.48,4.71-5.51,6.24s-5.61,3.18-7,5.51-1.2,4.1-3.35,5.51c-1.41.93-3.3.46-5,1.2a15.75,15.75,0,0,1-2.15,1h-1.92c-1.21.47-2.76,1.56-4.08,1.92-2.07.57-5.41-.46-6.71-1-1.72-.66-3.11-.36-4.8-1-.82-.29-1.82-1.11-2.63-1.44h-1l-.24-.72c-.6-.29-2.4.47-3.36.24-1.3-.31-2-1.07-3.59-1.2a3.18,3.18,0,0,0,.23,1.68c.87,2.22,3.86,1.21,5.76,2.4.46.29.16.73.48,1.2.48.73,1.84,1.2,2.39,2.16.17,1.28.32,2.55.48,3.83a12.7,12.7,0,0,0,2.64,2.64c.3,4-.43,4.34-2.16,6.71-.55.76-2.19,3.21-2.87,3.6-1.68,1-3.68,0-5-.48L246,47.9A43.71,43.71,0,0,1,239.3,45c-.54-.34-.7-1.25-1.2-1.67a9.47,9.47,0,0,1,1.2-5.28c.4-.61,1.38-.94,1.68-1.68.55-1.33.25-2.73,1-3.83-.29-1.15-1.28-2-1.68-2.88-.77-1.79-.22-3.12-1.43-4.32v-.24c-.84.6-.63,6.25-1.44,7.44-.67,1-4.44,2.48-5.76,2.87l-2.88.24c-.13.06-.52.66-.71.72a4.22,4.22,0,0,1-3.36-.24,3.19,3.19,0,0,1-2.4-2.16c-.46-.77.13-1.3,0-2.15-.64-4.15.13-8.84-2.64-10.79v-.24c-1.19.42-1.88,1.5-2.87,2.16a37.34,37.34,0,0,1-.24,4.07A4.15,4.15,0,0,0,214.37,29c-.17.48.52,1.31,0,2.16a2.37,2.37,0,0,1-1.92,1.68V33h-.24c-.85,0-2.45-1.23-3.35-1.44-1.52-.36-2.41.6-3.6-.24-1.22-.51-.5-.94-1.2-1.92h-.24c-.37-.37-2.4-1.84-2.88-2.16-.51-4.29,1-13.07,4.08-14.14,2.26-1.36,11.19.1,12.46,1.2.3.25.42.94.73,1.19s.89.18,1.2.48v.48c1.2,1,2.83.57,4.55,1.2.8.29,1.91,1.38,2.64,1.68l4.55.48c.45.16.63.53,1.2.72l2.4.24c1.24.48,4.22,3,5.27,3.12.33,0,1.23-.42,1.92-.24a8.32,8.32,0,0,0,2.64.72c.14-.75,0-.59.48-1-.79-1.5-3.9-1.7-5.52-2.4-1.27-.56-3-1.7-4.31-2.16-2.47-.87-5.28-.31-7.43-1.44-.56-.29-1.53-1.16-2.16-1.44-1.57-.68-3-.38-4.32-1.2-1.06-.67-1.88-2-2.87-2.63-1.19-.77-3.16-.46-4.56-1-2.3-.83-4.48-2.93-6.71-3.84-1.62-.66-2.91.86-4.08.48-.51-.17-1.3-1-1.92-1.2-1.52-.41-3.11.5-4.55-.48V5.7L195.19,5h-5.75c-.9-.27-3.37-.62-4.8-1h-2.4a44.07,44.07,0,0,1-4.55-1c-1.51-.59-3.14-2.07-4.56-2.64s-5.86,1.47-8.63.48c-3.4-1.22-13.51-1.21-17,0-2,.69-3-1.1-4.8-.48-4.42,1.52-8.82,2.76-12.94,4.31-2.69,1-4.52.49-6.72,1.44-3.44,1.5-8.1,5.94-10.31,8.88l-2.87,2.63c-2,3.4-2.17,6.41-5.52,8.63,0,2.18.24,4.62-.48,6.24-.32.73-1.44,1.87-1.67,2.63-.38,1.24.62,2.27.71,3.12s-.34,1-.48,1.44c-.41,1.22.3,2.81.48,3.36.5,1.48-.49,2.84-.71,3.83a8.46,8.46,0,0,0,.23,3.12v3.83c.08.26.64,1.1.73,1.44.07,1,.15,2.08.23,3.12.43,1,1.33,2.55,1.68,3.6.54,1.61-.45,4.22.24,6,.81,2.08,2.86,3.81,3.84,5.75v1c.72,1.73,1.92,3.7,2.64,5.52.08.8.16,1.6.23,2.39.62,1.6,2.87,2.66,3.6,4.32.59,1.33.23,2.34,1,3.36l3.84,3.35c1.92,1.93,3.49,4.44,5.75,6,.81.55,2.32.36,3.12,1,.58.44.53,1.28,1,1.91.62.93,1.59.39,2.63,1,.45.25.61,1.3,1,1.68-.15,2.4-1.34,2.21-2.63,3.36,1.28.74-.65,3.59-1,3.83a27.43,27.43,0,0,0-2.64,1.92v1.2a17.47,17.47,0,0,1-1.2,1.68c-.81.67-2,.89-2.64,1.68s-.8,1.73-1.44,2.39c-.8.86-2.25,1.39-2.87,2.4-.24.4-.91,1.32-1,1.44v2.4a26.73,26.73,0,0,1-1.44,2.4c.73,1.68-.71,3.72-1.2,5.51v1.68a46.14,46.14,0,0,1-3.59,6.23c-.45.67-1.49,1.22-1.92,1.92l-.48,2.16a22.53,22.53,0,0,0-1.92,3.35l-.24,2.16c-1.12,2.17-4.62,4.58-6,6.71-2.62.31-5.47-1-8.63-.23a7.67,7.67,0,0,1-2.16.47l-4.8-.24c-2.29.55-3.75,2.21-5.75,2.88-.83.28-1.82-.11-2.4.24-2.48.29-2.32,2.57-3.36,4.32l-.72.24c-.54.73-.69,1.85-1.19,2.63a29.53,29.53,0,0,1-5.76,6c-1.8,1.32-4.74,2.29-5.51,4.55h-.24V181c2.58-.65,4.44-2.58,6.71-3.59C69.09,176.83,70.16,177.22,71,176.41ZM260.16,47.9c.45-.85,2.07-1.14,2.64-1.92,1.54-2.12,2.85-6.8.48-9.11,0-2.11.47-2.14,1.44-3.11,3.17.35,4.67,3.44,6.71,5V39h.24v-.24h.24a23,23,0,0,0-.48-2.4c-.19-.51-1-.92-1.2-1.44-1.42-4.47,9.16-4,11.27-5.75h2.88c1.12,1.46,3.26,3.1,4.07,4.08a7.92,7.92,0,0,0,1.68-1.2c2.7-.09,2.52.52,3.6,1.91-.09,1-.12,1-.72,1.44.24,1.14.65,1,.72,2.4,1.34-.19,1.37.33,2.87.48v.24h.25a3.3,3.3,0,0,1-.72,2.4c-1.67-.15-3.59-2-4.32-3.12h-.24c.35,2.13,1.22,3.59,1.2,6-3.23,3.09-8.11,3.48-12,6.24h-2.63c-2.15-.94-2.58-4.56-3.6-6.71-.34-.72-1.06-1.14-1.44-1.92-.42-.16-.24,0-.48-.24l-1.44.24a19.94,19.94,0,0,1-2.87,7.43c-.78,1.08-2.08,1.56-3.12,2.4-2.43,0-3.74-.11-5-1ZM152.75,2.35c8.63-.16,9.1,3.59,13.43,7.43,1.08,1,4.21,3.17,2.4,6,.11,2.28,2.52,1.89,3.83,2.88a2.91,2.91,0,0,0,2.16-.72,4.52,4.52,0,0,0-1.92-3.12V11.94c.09-.22.88-.74,1-1,.36-1-.45-1.74,0-2.88l1.68-1.92c1.31-.11,3.88-1.16,5.28-.24,4.4,0,3.56,2.28,5.27,4.8,1.17,1.73,3.82,2.37,5,4.07.49-.09.46-.06.71-.23a2,2,0,0,0,.24-1.2,5,5,0,0,0,1.92-1.2c3.52.08,4.64,4.63,6,6.23a7.82,7.82,0,0,1-1.2,3.84c-.27.4-1,.68-1.2,1.2.07.48.16,1,.24,1.43-.23.53-1.3,1-1.68,1.44-2.75-.18-5.59-1.54-7.91-2.39l-5.28-.24c-2.6-.57-5.56-.59-8.39-1.2h-5.51c-2.56-.57-7.16-.35-9.11-1.68-1.36-.93-7.09-8.67-7.68-10.31-.8-2.23-.06-4-1.67-5.28C150.65,3.19,151.71,3.47,152.75,2.35ZM126.14,13.14c.8.28,1.1,1.21,1.68,1.67s2.76.63,3.59,1.2c1.19.81,1.07,2.19,1.92,3.36.17.22.73.29,1,.48a31.12,31.12,0,0,1,3.6,3.84h1c-.46-.9-.06-1.67-.24-2.64a86.93,86.93,0,0,0-2.88-9.11c-.14-.43.23-.92.24-1a4.39,4.39,0,0,0-1.68-3.12,2.65,2.65,0,0,1,.24-1.44c.88-2.53,4.37-2,6.47-3.35,1.36,0,2.91-.15,3.6.48,1.22.58.82,1.17,1.44,2.39.22.43,1,.9,1.2,1.44.79,2.4-.91,4.55-1.2,6.47-.54,3.61,1,5,1,7.92l-1.44,1.68c-2.54,1.49-6.27,1.42-7.67,4.07l-2.88.24c-.37-.4-1.85-2.2-2.16-2.4-.13-.09-.51.41-.95.24-.06,0-1.67-.81-1.92-1-1.08-.63-2.57-2.39-3.84-2.87l-2.4-.24c-.83-.4-2-1.53-2.87-1.92-1.3-.62-2.77-.41-3.84-1.2-.16-.18-.32-.53-.48-.72C116.59,14,121.85,11.61,126.14,13.14ZM105,52.94c-.11-2.61-.74-9.89.24-12,.91-1.93,3-3.11,4.08-4.8.58-.88.44-2.41,1.2-3.11a7.42,7.42,0,0,0-2.16-3.36c.54-5.67,2.41-5.07,5.75-8.15A9.52,9.52,0,0,1,117,22l3.6-.24c1.64.41,3.68,2,5,2.87l.72,3.36c-.17.59-.95,2.18-.48,3.36,1.9,4.78,2.36,8.35-.48,12.71l-2.16.23c-.53-.23-.86-1.28-1.91-.95-2.5.77-4.47,2.08-7.2,2.15-.66,1.42-1,3.37-1.91,4.8-.5.81-1.64.86-2.4,1.44a11.78,11.78,0,0,0-1.92,2.39C106.15,54.1,106,53.6,105,52.94Z" fill-rule="evenodd"/>
        <path d="M289.65,35.67V34h-.48a3.28,3.28,0,0,0,0,1.68Z" fill-rule="evenodd"/>
        <path d="M182.72,103c-1.26,1.27-1.95,3.48-3.35,4.56-2.4,1.83-5.09,2.07-7.68,3.84-1.18.81-1.63,2.8-2.63,3.83v.24c4.28,0,5.05-2.08,7.91-3.12l2.64-.24c.57-.19,1.34-1,1.91-1.19,2.44-.87,4.56-.44,6.48-1.68l2.63-2.88a41.09,41.09,0,0,1,10.31-5.27c-.24-1.16-.73-1-1-2.16a16.21,16.21,0,0,1-5.75-2.88c-1.27-1-1.48-2.39-3.35-2.88h-3.12c-.46-.13-.9-.83-1.2-.95-1.86-.77-2.9,1.16-4.8.47-2.24-.8-4.21-2.94-6.23-3.83-2.36-1-6.06-.37-8.39-1.44-.95-.43-1.87-2.39-3.12-2.4a15.16,15.16,0,0,1-6.71-1.44c-.3-.16-.59-.8-1-1a6.05,6.05,0,0,1-3.6-1c-1.84-1.15-3-3.49-4.79-4.56-3.5-2.11-7-2-9.35-5.51h-1.44c.09,1.09.27,1.24,1,1.67-.06,4.42-3.68,4.65-5.28,7.44-1.07,1.87-1.18,4.2-2.39,6a3.31,3.31,0,0,0,.72,2.64c1.58-.29,2.69-1.43,4.07-1.92,1.06-.37,1.06.35,1.92-.24a52.52,52.52,0,0,0,3.12-4.8c3.47-.66,6.3,1,8.63,2.16,0,3.35-2,2.93-3.84,4.32-.82.62-.64,1.95-1.68,2.39.14,1.14.38.9.72,1.68,2.7-.42,4.1-2.46,6.48-3.11h4.07c4.94-1.73,7.83-1.78,13.91-1.44a2.6,2.6,0,0,0,.72,1.2,2.13,2.13,0,0,1-.24,1.2c-.39,1-4.58,3-5.76,3.35h-3.83c-.71.24-2,1.5-3.12,1.92-1.25.47-2.28.17-3.12,1-1.1,1-2.08,3.8-2.87,5.27-.53,1-1.73,1.45-2.16,2.64H148c.19.63.3.57.48,1.2a8.35,8.35,0,0,0,1.92.24c.6-3.19,4.2-5.6,8.15-5.51a21.16,21.16,0,0,1,2.64,2.63c3,0,4.46-1.6,6.47-2.63a20.63,20.63,0,0,1,2.4-1.2c1-.34,2.25-.07,2.63-.24A27.71,27.71,0,0,1,176,97.77c1.94-.57,7.07-.33,8.39-1.68a4,4,0,0,1,3.12,1C187.5,100.7,184.55,101.22,182.72,103Z" fill-rule="evenodd"/>
        <path d="M142.92,95.85c-.21.4-.44,1.27-.72,1.68a3.74,3.74,0,0,0,.48,1c.73-.25.72-.48,1.44-.72a2.61,2.61,0,0,1-.72-1.92Z" fill-rule="evenodd"/>
        <path d="M207.66,104v-.48h-1C206.74,104.15,206.59,104,207.66,104Z" fill-rule="evenodd"/>
        <path d="M399.94,343.28l-.48-.24c-.19-.75.6-.84.48-1.2-.37-1.16-1.19-2.25-1.44-3.12-.47-1.63.48-2.76.72-3.6.68-2.37,0-6.46,0-8.87a21.77,21.77,0,0,0-3.12-2.87c-1.64-1-3.27-1.32-4.55-2.64-2.62.1-4.21,1.07-6.24,1.68-.5.15-1.07-.22-1.19-.24-.38-.07-.32.42-.49.48h-2.15c-1.21.29-2.71,1.24-3.84.24-6.1-.09-5.11-8.27-6.95-12.71-.58-1.39-2.6-3-1.68-5.75.13-.39.81-.82,1-1.2,1.66-4.33,3-15.19,1.2-20.38l-.48-9.83c-.44-1.23-1-4-1.68-5a5.83,5.83,0,0,1-1.2-2.17c-.31-1.48.85-2.13.48-3.83s-1-3.56-1.44-5.27c-.24-1,.34-2.21.24-2.88s-.77-1.37-1-1.92c-.07-1-.16-1.92-.23-2.88-.86-2.13-2.63-4.49-3.36-6.71-1.83-5.54-3.26-12.72-6-18.22-.92-1.86-3.45-2.42-4.55-4.08h-.24c0,.41.57,5,.72,5.28.44,1,2.13,1.64,2.64,2.64s.06,1.72.47,2.63c.82,1.81,1.86,4.39,2.64,6.24v.95c.24.17.48.32.72.48l.24,4.32c.51,1.7,2.26,2.52,2.88,4.08l.24,2.15a29.74,29.74,0,0,1,1.92,12,4,4,0,0,0-.72,1,2.11,2.11,0,0,1-1.2-.24c-1.83-.66-1.4-2.6-2.4-4.08l-1.68-1.19a17.06,17.06,0,0,1-4.31-6.24c-4.81-1.22-7.1-.49-10.31-3.59-3.25.05-6.18,2.83-9.11,1.91a15.8,15.8,0,0,1-3.84-2.15c.12-1.39.73-1.85,0-2.88v-.72c-1-.23-3.26-.56-4.32-1-1.74-.67-3.68-2.69-5.75-3.6-2.44-1.06-6.33-1-8.39-1.67-.69-.24-1.34-1.34-1.92-1.68a11.23,11.23,0,0,0-4.55-1.44c-.22,0-3.48,1.06-3.84,1.2-1.73.66-4.23.49-5.51.72-1.92.33-3.89,1.7-5.52,2.4s-3.24-.13-5,.47c-1.39.47-2.27,1.94-3.36,2.64s-2.43.46-3.36,1.2l-.24.72c-.52.37-1.26.69-1.68,1-2.15,1.38-4.59,1.63-6.95,2.88-.69.36-1.45,1.52-2.16,1.91-1.06.6-1.87.6-2.87,1.2-.61.37-1.11,1.28-1.68,1.68-2.15,1.53-4.67,2.72-6.24,4.8a13.61,13.61,0,0,1-2.39,2.87c-1.74,1.3-3.81,2.31-5,4.08-1.17.06-4.33-.18-5,.24-3.69.57-5.51,7.31-9.11,8.63a3.16,3.16,0,0,1-1.68.24,9,9,0,0,1-.48,1.44c.19.24.09.06.24.48,3.53,0,3.17-1.72,5.27-2.88,1.8-1,3.49,0,5.76,0,2-2.16,4.25-5.07,7.19-6.23,1.52-.6,3.48-.25,5-1a20.66,20.66,0,0,0,2.15-1.44c.46.23,6.48-1.87,7.44-2.4s1.86-2.15,2.87-2.87c1.68-1.21,3.28-2,5-3.12,1-.63,1.84-2,2.88-2.64h.72a26.26,26.26,0,0,1,3.35-2.16c1.68-.63,3-.31,4.56-1s3.54-2,5.27-2.63l4.08-.48a44.33,44.33,0,0,1,4.31-1.92l6,.24.48-.72c2-.82,4.82.64,6.23,1l8.39-.24c.28.12.61.82,1,1,1.69.66,3.58.45,5,1.2.05,2.23-.87,2.33-2.4,2.87-.16.42-.05.24-.24.48.26,1.88,1.9,1.53,3.35,2.16.47.21.81,1,1.2,1.2l3.84.24c.23.07.92.64,1.2.72l4.31.24.48.72,2.16.24a22.51,22.51,0,0,1,2.16,1.44c1,.54,2.21.33,3.12,1,.6.41.74,1.61,1.43,1.91,1.28.56,2.27-.44,3.84,0l2.16,1.2.24.72c1,.61,1.83.49,2.4,1.44v1l1.43.48c1.39,1.06,1.65,3.82,1.68,6.23,2.32.47,3,4.27,3.84,6.23a4.72,4.72,0,0,0,1.91,0l.48-1.19c3.49.71,1.64,4.39,2.4,7.91.47,2.15-.5,4.68,0,6.95,1.33,6-.31,15.52-3.36,18.7-2.84-.3-2.37-2.21-3.59-4.07-.71-1.1-2.17-1.69-2.64-3.12v-4.55c-.28-1.26-1.38-3.49-.72-5.28.23-.63,1.22-1.81,1.44-2.4.43-1.15-1.26-5.09-1.68-5.75-.84-1.35-3.22-4.81-4.55-5.52a18.42,18.42,0,0,1-2.64-1.2l-1.92-2.15a56.9,56.9,0,0,0-8.87-5.28,84.81,84.81,0,0,0-8.39-2.87l-2.64-.24c-.77-.29-1.87-1.38-2.63-1.68l-7.68-.24c-1.71.43-3,1.68-4.79,1.92l.24.47c6.18-.91,7.5,0,12.23,2.16,1.84.84,3.85.64,5.75,1.44s3.31,2.33,4.8,3.36a34.3,34.3,0,0,1,8.86,8.15c1.31,1.77,1.05,4.7,2.16,6.71.49.87,1.66,1.56,2.16,2.4,1,1.67,1.65,3.56,2.88,5,.81,1,1.9,1.49,2.4,2.87a6,6,0,0,1,.48,3.36c0,.13-.6.13-.48.48.4,1.28.39,3.93.95,5.27.26.6,1.19,1.81,1.44,2.4.71,1.65.3,3.27,1.2,4.55.06,1.84-.26,3.06-1.44,3.6-.71.27-.71-.45-1.44.24a4.19,4.19,0,0,1-3.83-2.39l-.24-2.4c-1.17-2.88-2.46-6.49-3.6-9.35l-.48-4.08a23.63,23.63,0,0,0-2.16-5c-.48-1.1-4-2.22-5.27-2.88-1.67-.9-2.46-4.32-3.83-5h-1.2c-.88-.39-1.88-1.5-2.64-1.91h-1c-1-.55-1.7-2-2.64-2.64l-1.2-.24c-.84-.4-1.9-1.32-2.87-1.68l-3.12-.24a26.46,26.46,0,0,0-2.88-1.2c-1.75-.42-3.24.22-4.55-.48s-2-2.57-3.36-3.11c-2-.84-3.38.91-5.75.23-2.82-.8-4.54-3.42-7.2-4.31-3.09-1-5.15-.21-8.63-.24-3.21,0-3.53-1.11-6.71,0-1.85.65-3.15-.67-4.07-1l-6.48.24c-8.24,1.93-14.88,5.37-21.57,8.63-2.4,1.16-6.69,2.78-8.88,1.2-3.14.13-5.22,4.44-6.95,6.23-2.93,3-7.33,8.71-10.31,10.56-1.19.73-3.21.82-4.08,1.19-3.69,1.57-7.37,3.64-8.63,7.68.2.24.09.05.24.47,3.32-.14,4.28-3.82,6.72-5a26.18,26.18,0,0,1,4.31-1.44l1.92.24c1.22-.38,2.36-1.68,3.6-2.16s2.06.11,2.87-.48c1.19-.86,1.91-2.69,3.12-3.59a38.51,38.51,0,0,1,6-3.6,56.42,56.42,0,0,1,7.68-2.4c1-.26,2.47.41,3.11.24.39-.1.67-.78,1-1,1.25-.77,2.5-.72,3.84-1.44.51-.27,1.35-1.18,1.92-1.43,2-.92,5.64-.54,7.67-1.44,1.22-.55,2.79-1.85,4.07-2.4s3.39-.06,4.56,0c.63,0,.43-.38.72-.48,2.21-.72,3.87.81,6,0,1.27-.48,3.76-2,5.52-1.68s6.92,1.91,8.15,2.88c.34.27.2.85.48,1.2a9.22,9.22,0,0,0,2.39,1.44l4.08.24c.61.17,1.49.78,2.16,1h4.79c.2.06.76.65,1,.71,1.56.49,2.09-.93,3.36-.47s2.19,2.13,3.36,2.63l3.35.24a29,29,0,0,1,5,2.16c2.09,1.47,7.66,9,8.63,11.51.62,1.63.41,3.09,1.2,4.55s2,3.13,2.63,4.56.43,3.16,1.44,4.31c.72.83,2.11,1.4,2.64,2.4.75,1.41.44,2.85,1.2,4.32.47.92,1.55,1.62,1.92,2.88s-.08,2.09.48,3.11c.45.84,1.8,1.38,2.16,2.4.45,1.29-.78,7.56-1.21,8.39s-1.43,1.3-1.91,1.92c-1.62.15-2,.21-3.12-.48v.24H340c.11,1.58,1.28,3.2.48,5.27a10.49,10.49,0,0,1-1.2,1.92h-.48l-.72,2.16c-.79,1.11-2.31,1.74-3.59,2.4,0,6.55.23,11-1,16.3v4.56c-.58,1.55-1.68,3.45-2.4,5l-.48,2.88c-1.26,2.68-4.18,3.37-5,6.71a5.56,5.56,0,0,1-2.88-.48V377.08c.45-1.57,1.61-3.87,2.16-5.27.37-1-1.16-6.24-1.44-7.2s.07-3.23-.48-5c-.32-1-1.51-2-1.92-2.88-.65-1.4-.2-2.85-1-4.07s-2.31-2.08-3.36-3.12a42.69,42.69,0,0,1-3.83-5c-.44-.58-1.23-.86-1.68-1.44l-1.44.24v.24h-.24c1.14,3.81,4.22,6.13,6.72,8.63a17.06,17.06,0,0,0,1.91,2.16c.07,1.56.26,3.74-.72,4.31.15,2.36,1.73,3.37,2.4,5.28,1,2.92-1,6.52-1.68,8.15s-.49,3.66-1.2,5.75c-1.08,3.21-3.11,6.2-4.31,9.59-.52,1.46.22,4,.48,4.8.75,2.22-.41,10.86-1,11.74-.08,1.4-.43,1.36-1,2.16a6,6,0,0,1-1.92-.24,9.13,9.13,0,0,0-.48-2.39l-.24-.48h-.48c-.56,1-1.69,4.36-2.39,5v5c.91.08.81-.09,1.91-.24a20.24,20.24,0,0,1,1.92-5c1.81.18,1.95,1.39,2.88,2.4,0,3.33-.94,4.32-2.16,6.23a4.78,4.78,0,0,0-1,.48c-1.58,0-2.33-.22-2.87-1.2-1.43,1.67,0,2.16-.24,3.12-.05.2-.41.35-.48,1h-2.4c-1.09-.76-.29-2.8-.72-4.32-.16-.56-.78-1.35-1-1.92l-.24-2.63c-.91-2.83-1.55-10-.24-13.91l-.24-2.4c.22-.73,1.23-1.92,1.44-2.63.53-1.81-1.62-4.73-1-7.44.32-1.31,1.87-4.46,1.44-6.23s-1.33-3.86-1.92-5.51c-.18-.52.32-.71.24-1-.25-.75-1-2.79-1.2-3.6l.24-1a44,44,0,0,0-2.39-5.51c-1-2.24-1.23-4.21-2.4-6.24-1.51-2.59-4.08-2.09-6.48-3.59-1.36-.86-2.17-2.55-3.35-3.6-1.4-1.24-3-2-4.56-3.11s-2.3-3.05-3.84-4.08v-.72c-2-.46-3.24-2.82-4.79-3.84-2.19-1.44-4.52-2.49-6.71-3.83,0-1.22.12-1.6.72-2.16,1.31-.92,2.81-.26,4.79-.72a15.2,15.2,0,0,0,4.56-2.16V327a3.68,3.68,0,0,0-1,.24,2.25,2.25,0,0,0-.72-.72,1.64,1.64,0,0,1,.24-1c.89-1.66,2.28-.36,4.08-.72,3.62-.71,10.58,2.7,13.18-.71h.24c-1.33-1.38-3.6-2.12-5.75-2.64H280.3c-1.24-.4-3.54-1.44-5.51-1a16,16,0,0,1-7.2.24c-3.13-.83-5.06-3.23-8.63-1.92-3,1.12-5.88,3.5-8.63,4.8a16.38,16.38,0,0,1-2.39.48,27,27,0,0,1-3.6,1.67h-1.2c-.92.34-2,1.35-2.88,1.68-2.36.85-6.59-.07-8.15-1,0-3.52,1.56-1.82,3.6-3.11,1.82-1.15,2.84-3.54,4.55-4.8a17,17,0,0,1,2.88-1.68l1.92-.24c.81-.37,2.24-1.33,3.12-1.67a18.45,18.45,0,0,1,2.63-.48,21.74,21.74,0,0,1,2.64-1.2c1.7-.3,4.16.38,6-.24,1.28-.44,3.44-1.62,5.28-2.16h1.92c1.15-.29,2.85-.89,4.07-1.2,2.47-.63,4.8.6,6.47.72,1.51.11,3.54-1.29,5.76-.72,1,.26,1.89,1.16,2.64,1.44,1.92.71,6.16-2.09,9.59-1.2,1.74.45,2.39,1.52,3.59,2.4V314c3.6.13,4.79,4.06,6.71,6,.86.86,2.41,1.43,3.12,2.4,2-.08,3.56-1.33,5.28-1.92s3.57.64,4.55,1c1.31.42,1.85-.56,2.88-.72-.13-3-5.09-3.39-6.24-6-.72-1.65.39-3-.47-4.07-1-2.75-4.58-1.29-6.72-2.64l-.24-.72a30.84,30.84,0,0,0-2.63-2.16l-.48-.95c-1.24-.86-2.56-1.09-3.84-1.92l-.72-1h-3.83c-1.78-.5-3.23-2.07-5-2.64-2.09-.65-5,.36-6.71.72h-3.84c-2.17.7-6.65,1.27-9.35,1.92l-3.36.24c-2.44.89-5.88,1.51-8.39,2.4l-3.35.24c-1.26.45-2.94,1.53-4.32,1.91-2.46.69-4.92-.57-7.43,0a33.44,33.44,0,0,0-5,1.68l-3.83.48c-2.82,1.1-5.61,4.21-8.4,5.52-1.66.78-3.67.6-5.27,1.44l-.72,1a16.06,16.06,0,0,1-3.11,1.43l-5.28.48c-.52.27-1.36,1.18-1.92,1.44l-1.43.24c-1,.64-1.64,2-2.88,2.4v.48c1.82-.32,3.6-1.48,5.27-1.92a9.6,9.6,0,0,1,3.6.24l5.27-.24c1.57,0,4.77-.39,5.52,0,1.39.07,1.36.42,2.16,1-.11,1.18-.5,2,.24,2.64,0,1.37-.4,1.84-1.45,2.15-1.39.88-2.82-.42-4.79,0s-4.26.36-6,1.2a27.27,27.27,0,0,0-4.32,2.88c-.64,1,.79,1.17-1,2.16s-4,.64-6,1.43c-1.05.43-1.5,2-2.64,2.4-2,.77-3.41.06-5.51,1-1,.43-2.23,1.56-3.12,1.92-2.77,1.13-6.56,1-10.31,1a26.42,26.42,0,0,0-1.92-2.16c.33-2.91,2.64-3.83,3.84-5.75,1.34-2.15,2.67-4.93,5-6,1.2-.54,2.18-.08,3.12-.72,2.12-1.42,2.54-5.12,4.56-6.71a4.19,4.19,0,0,0-1.92-3.36c0-3.68.3-11,1.2-12.94.62-1.34,1.79-2.92,2.4-4.32.92-2.15-.46-5.42.47-7.43,1.27-2.73,3.74-5.08,5.52-7.43l1.68-1.44v-.72c.65-1,2.34-1.72,2.88-2.88v-1.43a11.57,11.57,0,0,1,2.15-2.16c.45-.32,1-.15,1.44-.48l1-1.68h1.2l.72-1H218c.67-.34,1.27-1.52,1.91-1.92h.72a14.55,14.55,0,0,0,2.88-2.88c.23-.35-.08-.71.24-.95,1.64-1.24,5-.78,6.71-1.92l3.84-3.12c.41-.61.31-1.12.72-1.68.75-1,2.21-1.8,2.88-2.87a13.68,13.68,0,0,1,3.59-4.32c1.62-1,3.22-2.92,4.56-3.6l1.92-.24c1.15-.45,1.78-2.06,2.87-2.63s2.07-.56,3.12-1.2c.78-.48,1.28-1.76,2.16-2.16s1.49-.1,2.4-.48c.37-.16.65-.79.95-1,1.41-.79,2.69-1.1,4.08-1.92q1.92-2,3.83-4.07c2.81-2.12,7.63-6.53,9.59-9.35,1.17-1.67,1.43-3.81,2.64-5.52a33.47,33.47,0,0,0,3.12-4.31c.95-2-.95-3.39,0-5.76,0,0,2.09-3.28,2.16-3.35a3.27,3.27,0,0,0-.24-1.68c-.5-.21-.7.13-1.68.24-.4.79-3.08,5.85-3.6,6s-.7-.36-1.19-.48c-2,4-4.8,6.94-7.2,10.55-.94,1.42-2.95,2.39-3.83,3.84-1.39,2.26-2.09,5.57-4.32,6.95-5.17,3.21-10.47,2.64-15.35,7.67a2,2,0,0,1-1.19-.24c-.72-.28-.67-.56-1.2-1,.11-2.31,1.31-4.47,1.68-6.24.24-1.18-.48-2.24.24-3.36l4.55-4.31c.36-.48,2.13-3.15,2.4-3.36,1.25-1,2.92-1.39,3.83-2.64,1.51-2,1.87-4.88,3.36-6.95,1.05-1.45,3.3-2.14,4.32-3.35,2.09-2.52,2.57-7.6,4.07-10.79a160.71,160.71,0,0,1,9.83-18.46c.56-.88,2.08-1,2.64-1.92.95-1.5,1.7-3.08,3.12-4.08a6.33,6.33,0,0,0-.24-1.92c-2.58.15-3.55,2.14-5.28,3.12-2.73,1.55-4.58,2.64-6.23,5.27-.68,1.09-2.22,2-2.88,3.12s-.55,2.1-1.2,3.12c-1.27,2-3.61,3.71-4.79,5.75-.62,1.06-.57,2.08-1.2,3.12-2.45,4.06-5.89,7.9-8.63,11.75-1.89,2.65-3.16,5.46-5,8.15l-2.63,2.4c-4.37,0-3.47,3-5.76,4.79-.78.61-2.07.87-2.63,1.68-.92,1.31-.85,3.15-1.68,4.56-.43.72-1.53,1.23-1.92,1.91-.76,1.33-.57,2.59-1.2,4.08-1.79,4.23-2.72,9.39-4.32,13.9v2.88c-.75,3.44-.31,8.15-1.91,10.79-.84,1.37-2.57,2.09-4.08,2.88l-1.2,1.43c-2.67,1.62-5.36,2.85-6.71,5.76a5.84,5.84,0,0,1-5-2.88c-.32-.59,0-1.29-.48-1.68-.2-.16-1.37-.52-1.68-.71-.31.64-.63,1.27-1,1.91h-2.16c-.89-.41-.33-1.77-1-2.4-1.57-1.53-4.5-1.22-5-4.07-.86.44-.89.33-2.15.24a5.38,5.38,0,0,0-.48-1c-1.13-.51-4,.91-5.51,0-2.7,0-8.92-5.94-9.6-7.91a2,2,0,0,1,0-1.92c.19-1.69,1.17-1.84,1.92-2.88h1.68c.43.19,3,5.56,3.12,6.24,1.38-.07,1.57-.66,2.39-1,2.43-.88,5.28,1.95,6.72.48a3.67,3.67,0,0,1,3.59,3.12h.24a1.38,1.38,0,0,1,.48-.48c.06-.82.2-1,0-1.44a5.48,5.48,0,0,0-.48-2.88c-1,0-1.89.43-2.4,0-.07-.24-.15-.48-.23-.72h-1.2l-.72-1.2c-1-.56-2.51,0-3.84-1-1.48-.55-2.56-3.39-2.64-5.27-2.32-.16-3.55-2.06-5-3.12V239c2-1.88,4.26-4.64,6.47-6.23,2.51-1.8,5.66-3.77,7.19-6.47.21-.36,1.45-3,1.44-3.12a6.13,6.13,0,0,1,0-2.64c1-2.5,1.43-3.52,1-6.47h-1c0,3.06-1,2.87-1.91,4.55l-.48,2.16c-.41.81-1.12,1.73-1.68,2.64-1.46,2.35-5.56,4.6-7.91,6.23-.89.62-1.69,1.85-2.64,2.4-2.95,1.72-7.51,2.79-9.35,5.52-1.61-.07-1.75-.55-2.64-1.2.38-2.76,2.42-3.4,3.36-5.52.19-.28.19-.4.24-1-2.86.21-3.55,2.32-5.52,3.12-.13,6.29-5.05,4.15-9.59,5.75-.86.31-1.65,1.29-2.39,1.68-1.84,1-3.78,1.35-5.28,2.64-1.08-.11-1-.31-1.68-.72.26-2.72,3.18-3.37,4.56-5,.92-1.12,1.16-2.31,2.4-3.12a4.08,4.08,0,0,1,.24-1.44c-1.8-.68-2.54.19-3.36-.24a2.66,2.66,0,0,1-1.92-.72c0-1.92.76-1.95,1.68-2.88,1.25,0,1.48-.13,1.68,1,.69-.24.73-.75,1.2-1h1.68a14.08,14.08,0,0,0,1.91-.95,10.18,10.18,0,0,0,.72-1.44L162.1,226a7.27,7.27,0,0,0-.72-1.68,7.52,7.52,0,0,1,3.36-5c.77-.44,1.53,0,2.4-.48s2.7-3,3.12-4.07-.36-1.65-.48-2.4h-.24a13.77,13.77,0,0,1-6.24,5.76c-1.94.83-3.54.74-4.79,2.15-1.66,0-1.57-.31-2.4-1,.33-6.53,5.18-10.51,7.43-15.34v-1c.25-.61,1-1.24,1.2-1.92l.24-2.39c.77-1.79,2.32-3.64,2.88-5.76v-2.4c.42-1.17,1.32-3,1.68-4.07l.24-2.64c.45-1.15,1.5-2.74,1.91-3.83.51-1.35.33-2.34,1-3.6,1-2,3.15-4.31,3.84-6.48.39-1.24-.66-3.81-.24-5.51a66.72,66.72,0,0,1,1.92-6.47l.48-4.56c.34-.81,1.4-1.73,1.67-2.64.08-1.35.16-2.71.25-4.07.41-1.11,1.47-2.63,1.91-3.6s.18-1.71.72-2.63l.72-.24c.44-.78,0-5.06.48-6.24.38-1,.49-2.55,1-3.84.07-.19.66-.57.72-.71l.24-2.16c.91-2,3.07-3.79,4.56-5.27,1.23-1.24,3.57-3.76,5-4.56,1.23-.67,3.91-.42,5.27-1,3.42-1.36,7-3.59,10.79-4.8,2.84-.89,6.78-1,8.63.72a5.57,5.57,0,0,0,1.92-.72,4.51,4.51,0,0,0-2.39-3.35v-1c-2-.38-2.94-1.74-4.32-2.64-.64-.41-1.76-.3-2.4-.72-1.17.32-1.33,1.55-2.4,1.92l-3.83-.24c-1,.29-1.7,1.39-2.64,1.68-2.87.88-6.9,1.32-9.59,3.12-2.29,1.52-4.63,3.84-7.19,5-2.95,1.37-9.56,4.71-10.55,7.67v2.4c-.37,1.13-1.36,2.38-1.68,3.6v3.59c-.45,1.25-2.26,3.15-2.64,4.32-.24.76,1.19,2.91.48,4.79-.36,1-1.12,2.92-1.44,3.84-.54,1.6,1.43,2.1,1.2,2.88s.15,2.87,0,3.35c-.48,1.61-1.94,5.33-1.91,6.72,0,.51.59,2,.23,2.87-.23.58-1.16,1.63-1.43,2.16a37.06,37.06,0,0,0-1.2,3.84l-.48,3.83c-.53,1.17-2.18,2-2.64,3.12v1.68c-.32,1.16-.89,2.59-1.2,3.84v1.91c-1.09,2.74-5.07,10.09-7.19,11.51-1.13.76-2.37.78-3.6,1.44s-1.77,2-3.35,2.4c-.55-.53-1.51-.81-1.92-1.44-1.33-2-1.89-4.2-3.36-6,0-5.16,3.4-7.3,5-10.78,1.22-2.62,2.53-5.45,3.59-7.92v-1.2c.66-1.29,2.63-1.9,3.36-3.11,1.11-1.85.92-4.34,1.68-6.47.62-1.76,2.14-3.76,2.87-6,.27-.82-.9-4.18-1-5.75-.77-.1-.92-.3-1.43,0-2.09,1.28-.1,4.42-.72,6.23-.42,1.19-1.83,2.3-2.4,3.36-1.65,3.06-3.22,6.95-6,8.87.11,1,.06.82.72,1.19-.07,3.64-4.34,6.4-6,8.88-2.5,3.74-3.66,8.57-4.79,13.66-1.2,5.38,4,7.27,5,10.79l.24,6.24a16.93,16.93,0,0,1,1,1.91c.49,2-.72,4-.72,5,0,3.29-1,9.94-2.4,12.95-.55,1.19-1.82,2.38-2.39,3.59s-.49,2.67-1.2,3.84a26.09,26.09,0,0,1-5.76,4.79c-1,.41-2.47.17-3.35.72-2.37.05-3.54-.12-4.8-1,.06-2.64,1.6-2.78,2.64-4.31.64-.94.26-2.57,1-3.84,1.5-2.71,5-5.17,4.07-9.59-.37-1.8,1.2-5,1.2-5v-1.44c-.41-.16-.23-.05-.48-.24-3.23.4-1.75,2.5-2.87,4.79-.44.9-2.88,2.62-3.12,3.36l.24,1.44c-.53,1.47-2,2.61-2.64,3.84-.53.94-.41,1.7-1,2.63-1.34,2.29-3.93,2.49-6,3.6-1.34.71-2.32,2.3-3.6,3.11-1.85,1.18-3.89,1.66-5.75,2.88-1.36.89-2.63,4.55-5.28,3.84-1.06-.29-1.36-1.47-2.15-1.92-1.36-.76-2.86-.62-4.08-1.44-1.38-.92-2.09-2.8-3.36-3.83a3.42,3.42,0,0,1,1.2-2.16c.85-.51,1.72-.31,2.64-.72,1.45-.65,2.78-2.13,4.07-2.88l1.2-.24c2.08-1.3,4.24-3.06,6.24-4.31,1.64-1,3.66-1.14,5-2.4.54-.49.83-1.51,1.44-1.92.88-.6,1.85-.8,2.4-1.68s.64-1.66,1.44-2.15c1.92-1.2,4.54-1.76,5.51-3.84a36.36,36.36,0,0,0,1.44-6c.06-.66-.58-1.89-.24-2.87.78-2.25,2.68-5.27,1.92-8.63-.53-2.36-2.28-5.3-1.44-8.63.47-1.86,1.68-4,2.16-6,1.07-4.49-1.25-9.19,0-13.42,1.09-3.73,4.1-5.23,6.71-7.44l1.2-1.68a54.88,54.88,0,0,1,5.75-4.79,11.65,11.65,0,0,0,2.88-3.6l5.28-5c.77-1.09.76-2.9,1.67-3.84a9,9,0,0,0-.24-2.64c-.49.1-.46.06-.72.24-1.9.52-2.25,2.2-3.11,3.84s-3.55,3.72-5,5c-2,1.81-4.55,2.54-6.95,4.07l-1.68,1.92a37.82,37.82,0,0,0-8.39,8.87c-1.5,2.39-4.38,3.28-5.27,6.47v2.4c-1.39,4.74,0,11.58-1,17.26-.25,1.48.34,4,0,5.52-.71,3.17-.44,6.86-2.88,8.15a2.15,2.15,0,0,0,.72,1.44c0,4.19-2.92,4.33-4.56,6.71-.18.26-.93,1.34-1,1.44-.21.71.53,2,0,2.88-.94,1.54-3.27,1.88-4.55,3.11-.39.38,0,.9-.24,1.44-.76,1.49-3.82,3.35-5.76,3.6a3.57,3.57,0,0,1-.47,2.39c-.46,1.32-7.43,6.25-8.87,6.72-.85.5-1.37-.11-2.4-.24-.4-.79-1.61-1.69-1.2-3.12.32-1.14,5.9-7.35,7-8.15.81-.61,2.38-1.3,2.88-2.16.8-1.36.52-2.76,1.2-4.31.81-1.86,2.57-3.13,3.35-5,1.46-3.54,1.29-7.75,1.2-12.23v-4.79c-.31-1.41-1.36-3.9-.72-5.75,1-2.79.76-6.35,1.68-9.35.83-2.72,3.19-5.52,4.8-7.68.74-1,.77-2.31,1.67-3.12a3.37,3.37,0,0,0-.48-.95c-3,.09-3.44,3.72-4.79,5.51-.58.77-1.42.82-2.16,1.44l-.24.72c-1.28,1.33-2.88,2.43-3.83,4.08v.71l-.72.25c-.81,1.11-.59,2.5-1.2,3.83a32.49,32.49,0,0,1-1.68,3.84c-.28.41-1,.68-1.2,1.2-.48,1.22,0,3.44-.24,4.07s-1.41,1.36-1.92,1.92c-1.7,0-1.68-.55-2.63-1.2,0-3.08.65-5.87,2.39-7.19-.15-.85-.16-.81-.71-1.2V182.4l1.43-1.2c1.41-1.49,2.63-3.1,4.08-4.55l1.92-1.68c.77-1.49-.3-2.29.48-4.08.86-2,3.6-2.84,4.79-4.55.6-.85.58-1.34,1.44-1.92v-1c-2.53.51-5.23,3.75-6.71,5.51-1.11,1.33-3.36,2-4.32,3.36v.72l-1.44,1.2c-.35.53-.14,1.08-.48,1.68-.69,1.23-2.37,2.45-2.87,3.83-.6,1.64-.21,2.56-1,3.84-.65,1.1-2.21,2.23-2.88,3.36-1.31,2.2,1.52,8.62,2.4,9.59.36.15.1.3.48,0,1.74-.07,2.48.16,2.87,1.44,1.21,1.95-.58,11.16,0,12.22a5.18,5.18,0,0,1-1.19,4.08,2,2,0,0,0-1.2.24c-3.19.24-1.74,5.35-2.64,7.91-.47,1.35-1.58,2.62-2.16,3.84-5.66.09-3.13-8.33-2.4-11.75.66-3.08-.27-5.18,2.16-6.47-.21-1-.48-.81-1-1.44-.55-.06-.67-.05-1-.24-2.78,0-2.65,2.76-3.36,4.79-1.12,3.18-2.35,7.11-3.6,10.31l-.48,3.6c-.36.85-1.37,1.84-1.68,2.64-.46,1.22-.94,6.32-.24,6.95,0,3.1-1.72,3.36-3.35,4.79-2-.1-2-1.05-3.12-1.91,0-1.4.95-2.29.48-3.6-.35-1-1.08-6.3-.48-7.91.37-1,.33-2.34.72-3.6s1.41-3.17,1.92-4.55c-.46-2-.66-6.41.24-8.64a12,12,0,0,1,3.59-4.79c1.25-.79,2.33-.49,3.12-1.68.66-1,.62-2,1.2-3.12,3-5.63,5.58-8.53,3.12-15.82l-1.92-.72c-.34.47-1.21.76-1.44,1.2v1.2A19.49,19.49,0,0,1,77,189.6c-1.52,2.12-4.43,3.17-6,5.27s-2.7,5.62-3.84,8.15c-1,2.22.27,5.28-.24,7.67a38.56,38.56,0,0,1-1.68,4.8c-.62,1.78,1.15,2.64.48,4.55-.36,1.05-1.06,3.1-1.44,4.08-.16,1.36-.31,2.72-.48,4.07-.26.68-1.65,4.41-1.43,5.28a15.54,15.54,0,0,0,2.63,5c-.26,3.19-3,3.4-4.79,5a3.16,3.16,0,0,1-1.68-.24c-1.73-.6-1.05-2-1.92-3.36-.78-.9-2.8-1.55-3.83-2.16-.62-1.53-1.94-4.55-1.44-6.71.29-1.26,1.55-3.22,1.2-4.31-.15-1.3-.63-1.38-1-2.4h-.24c-1.37,2.13-2.4,4.87-3.6,7.19a9.79,9.79,0,0,1,.48,5.28c-.5,1.52-1.08,3.9,1,5.51,0,4.37-3.28,4.91-5,7.43s-3.36,4.16-5,6.48h-.48l-.24,2.87c-1,2.3-4.24,5.68-2.4,9.59.24.5,1.22,1.28,1.44,1.92.63,1.84-1.35,3-1.68,4.08v3.59A18,18,0,0,1,35,280l-.24,3.6c-.52,1.53-2.63,4.19-4.07,4.79H29c-1.54.29-2,1-2.64,2.16a5,5,0,0,1-1.68-.24,6.67,6.67,0,0,1,3.12-4.55v-.48A12,12,0,0,1,25,285c-1.15,1.71-2.7,3.49-3.83,5.27a3.63,3.63,0,0,1-2.88-1c-.07-4.28,1.32-4.23,3.6-6,.8-.62,1-1.8,1.92-2.4a3.07,3.07,0,0,1,.24-1.68c-.27-.65-.51-.68-.72-1.44-1.46.53-1.55,1.52-2.4,2.64-.29.39-1.15.3-1.44.72s-.18,1.06-.72,1.44c-.34.24-.73-.09-1,.24v1c-.53.91-1.92,1.4-2.87,1.92a9.9,9.9,0,0,1-1.21,5c-1.77.1-2.72.15-3.11-1.2-.87-1.33-.31-4.23-.24-5.75,1-1,1.36-2.39,2.88-2.88-.37-1.43-.89-.56-1.92-1.2-1.51-.93-2.23-2.8-3.6-3.83.15-1.94,0-6.07.72-7.68.59-1.28,2.3-2.62,2.88-4.07,1.39-3.47,1.83-6.82,3.83-9.59,3.29-4.53,7-2.56,6.72-11-1.87.21-1.13,1-1.92,2.16-.39.58-1.25.84-1.68,1.43a3,3,0,0,1-3.12-1.91c-.49.09-.46.06-.71.24h-.48c.08,1.83.16,3.67.23,5.51-.56,2-2.55,3.65-3.59,5.28-.89,1.39-.68,2.87-1.44,4.55-1.63,3.62-4,7.81-5,12C2.88,277.6,6,278.45,7,281.18c.32.84-.19,3.25,0,4.56a20.57,20.57,0,0,0,1.2,2.87c1,2.94-2.74,7.39-3.35,9.35a5.45,5.45,0,0,1,1,1c.89-.44,1.18-1.36,1.91-1.92a37.59,37.59,0,0,1,5.52-3.59c.88-.44,1.49-1.73,3.35-1.2,1,.27,2,1.38,2.88,1.92a1.75,1.75,0,0,0,.48,1A7.15,7.15,0,0,1,18,299.88a2.57,2.57,0,0,0,.48,1.44c2.26-.24,3.53-1.74,5.28-2.4,2.54-.95,3.94,1.37,5.27,1.92l2.16.24c.47.23.94,1.1,1.44,1.44a5.9,5.9,0,0,1-1.44,4.08c.21.17.27.3.48.47s.06.09.48.24c.63-.53,2.49-1.09,2.87-1.44.16-.47.33-.95.49-1.43a48.46,48.46,0,0,1,3.59-4.08v-.24c1.08-.66,1.57-.2,2.64-1,1.1.22,1.17.7,1.92,1.2.07,3.58-1.11,4.8-3.36,6,.21,1,.48.8,1,1.43,4.47-.38,6.28-4.16,8.15-7.19.41-.67,1.57-1.43,1.92-2.16.64-1.34.3-2.43,1-3.59.41-.73,1.48-1.45,1.92-2.16.32-.53-.08-1.26.23-1.92h.48a49.35,49.35,0,0,0,1-8.87v-6c-.7-1.37-3.21-1.83-3.83-3.36v-4.08l-1.44-1.19a14.4,14.4,0,0,1-1-2.64,2.86,2.86,0,0,1,.48-2.16c.59-1.58.39-2.76,1.2-4.08,1.22-2,3.45-2.94,5-4.55,1.28-1.3,1.34-3.75,2.16-5.52,1.11-2.39,4-4.47,6.47-5.51l3.84-.48c3.37-1.37,6.49-4,9.83-5.51,1.85-.87,5,.41,6.23-1h2.64c.85.35,5.52,5.51,6.23,6.47l.24,1c1.6,1.41,4,1.35,6,2.4,2.74,1.41,4.19,3.76,8.15,3.59a14.44,14.44,0,0,0,1.92-1.91l2.63.24a13,13,0,0,0,.48,1.91c1.4.63,5.82-.8,8.4-.24,2.38.53,4.67-.81,7.19-.24a13.58,13.58,0,0,1,5.51,2.4c.16.41.05.24.24.48,0,5.73,4.58,6,7,9.35,1.68,2.35,1.33,6.59,2.87,9.11,1.28,2.1,4.39,2.78,5.28,5.28h.24a12.47,12.47,0,0,1-3.36,7.19l.48.72a11.24,11.24,0,0,0,5.27-1.2,5.58,5.58,0,0,1,2.88.48c-.13,2.38-1.55,2.12-1.44,4.31a12.75,12.75,0,0,0,8.15-1.67c.76-.43,1.56-1.59,2.4-1.92,1.3-.52,3.68.2,4.56-.72,2.34,0,2.32.8,3.59,1.68,0,2.68-.8,3.79-1,6h1.68c1.62-.71,2.63-3.31,4.08-4.32.63-.43,1.17-.43,1.68-.95a7.61,7.61,0,0,1,2.39.24v.95c6.84-.05,9.62-5.68,11.51-10.78v-4.32c.3-.83,1.35-1.11,1.92-1.68a4,4,0,0,1,2.4.72c1.33.93,1.34,2.71,1.92,4.08a15.9,15.9,0,0,1,3.83,1.67c.47,7.25-2.77,8.95-5.75,13.19-.37.53-.2,1.37-.48,1.92-.64,1.27-1.78,2.58-2.4,3.84s0,2.24-.24,3.35a23.58,23.58,0,0,1-1.68,4.08,7,7,0,0,1-.48,5c-1.68,3.47-4.77,10.61-1,13.91-1.24,4.05-4.63,3.1-6.72,5.75-.91,1.16-1.28,2.61-2.16,3.84-1.26,1.75-3.37,3.23-4.55,5-.61.93-.41,1.84-1,2.88-.27.5-1.09.9-1.44,1.44a16.94,16.94,0,0,1-6,0c-.75-.2-1.51-1.26-2.64-1-1.44.38-4.84,2.85-6.71,1.68-2.44-.25-3.71-2.53-3.6-5.52-1.13-.5-1.82-1.5-2.88-1.91h-2.16c-3.11-.52-2.29.27-4.55,1.43-1,.5-2.46-.22-3.6.25a19.72,19.72,0,0,0-2.15,1.67c-.61.38-1.22.11-1.92.48l-1.68,1.92c-.81.61-1.54.84-2.4,1.44s-1.33,1.75-2.16,2.16c-1.13.55-2.31-.19-3.35,0a53.14,53.14,0,0,0-6,1.92h-2.39a28.36,28.36,0,0,0-5.28,1.43c-2.11,1.07-3.67,3.57-5.75,4.56l-1.92.24v.48a8.31,8.31,0,0,1-1.2.48l-2.4.24c-.92.44-1.07,1.43-2.39,1.68-.46,2-2.5,3.37-3.36,5l-.24,2.64a7.74,7.74,0,0,1-2.4,3.12v.47a5,5,0,0,0,1.2-.47c1.3-.39,2.88.44,3.84.23.74-.16,1.56-1,2.16-1.19,2.52-1,4.65.66,6.23,1.43.16.28,2.41-1.07,3.35-.47,4.36-.1,3.17.66,5.28,2.39a2.63,2.63,0,0,1-.24,1.44c.5,1.4,1.86,1.76,2.64,2.88,1.86-.53,4.06-1.08,6,0,.55.3.86,1,1.68,1.2,1.4.36,2.79-.39,3.6.48,2.43-.44,4.88-2.33,6.71-3.6,1.07.09,1,0,1.2,1h.24v-.24c2.11-.85,1.6-3,2.63-4.8.68-1.17,2.09-1.61,2.88-2.63,2.05,0,3.22.41,5.28.48a11,11,0,0,0,2.63,3.59c0,4.31-2,4.58-3.59,6.95-.54.82-.32,1.62-.72,2.64a11.18,11.18,0,0,1-4.8,4.8c-2.2,1.06-4.85-.57-6.47-1l-8.15-.24c-.63.2-1.45,1-2.16,1.2-2.46.65-9.4-3.91-10.31.24,1.44,0,2.16-.44,3.36,0,1,.38,3,2.3,4.79,1.68.43-.15,1.18-1,1.68-1.2h2.4c.32-.11.75-.8,1.68-.48.65.22,1.59,1.2,2.15,1.44h1.68a14.57,14.57,0,0,1,1.68.95l1.68.25c2.59,1.28,6,5.59,10.07,2.63,2.32-1.68,1.72-4.7,2.64-7.91.74-2.63,2.58-3.81,3.83-5.75.84-1.3.83-3.73,1.92-4.8a6.08,6.08,0,0,0-2.4-2.88v-.71a15.25,15.25,0,0,1-3.35-1.44c.08-.56.15-1.12.23-1.68a46.26,46.26,0,0,1-6.23,0c-.33-.05-.81-.43-1.44-.24s-1.67,1.15-2.4,1.44c-1.1.43-1.73.42-2.63.72s-1.31-.41-1.68-.48h-.24c-1.53.88-3.56.19-5.76.72h-.23a33.27,33.27,0,0,0-5.76,2.87h-6.47c-1.78-.82.18-2.13-4.08-2.16-.22-.25,0,0-.24-.24.1-.49.06-.46.24-.71,0-4.18,2.68-5.09,5.52-6.48.79-.39.78-1,1.92-1.2v-.24c-1.34.05-4,1.17-4.56,1.92a4.58,4.58,0,0,1-3.36-1.44c-3.8.67-3.41,3.68-8.87,3.6a16.55,16.55,0,0,0-1.44-1.68c.27-1.82,3.52-5.48,5-6,1.31-.91,2.71-.07,4.55,0,1.23-1.34,3-2.42,4.08-3.84,1.29-.05,8.88-.54,10.31,0a50.52,50.52,0,0,1,5,2.4,4.4,4.4,0,0,1,2.16.48c1.63.86,3.22,2.59,4.8,3.59.22-.25,0,0,.24-.23a10.75,10.75,0,0,0-1.92-3.84,4.72,4.72,0,0,1,1-2.64c3.09-.6,5.24.86,7.67,1.68s4.27-1.27,6.95-.48c2.35.7,7.73,3.86,7.92,6.47h.47c0-2.44.11-4.42-1-5.75-.17-.22-.78-.21-.95-.48a24.4,24.4,0,0,0-1.2-2.4c-.59-.66-1-.17-1.44-1.2a8.14,8.14,0,0,0,1-1.68c1.55-.62,4.84-1.92,6.95-1,.33.15.46.83.72,1h1.2a8.63,8.63,0,0,1,3.12,1.92c.89.94.75,3,1.43,4.08,1.17,1.92,2.92,2.09,2.88,5.51a8.83,8.83,0,0,0,2.16.24c.42-2.26,4.14-6.06,6.23-6.71,3-1.84,10.28,2.83,13.67.72a10,10,0,0,1,2.87.24v2.16c-1.75.35-2.79,2.05-4.79,2.39-.77.14-.64-.37-1-.47-2.07-.71-5.45-.71-6.95.24-2.27,1.42-3.32,4.68-4.56,7.19-.63,1.28-2.11,1.95-2.87,3.12-2.11.08-5,.67-6.72-.25-.43-.22-.56-1.22-1-1.43H170a9.35,9.35,0,0,1-2.16-2.4l-.72-4.32v-.24c-.41.24-1.63,4.55-1.44,5.28,0,0,.85,2.19,1,2.4,1.22,2.3,4.82,4.68,5.75,7l.24,2.88c.57,1.11,1.77,1.94,2.16,3.35v4.08c.78,2.11.4,4.52.48,7.19,0,1.42.68,3.57.24,5.28-3,11.44-2.83,26.46-8.63,36-.83,1.35-5.88,3-8.39,2.63-.7-.09-3.15-.27-4.08.25a11.51,11.51,0,0,0-5.27,5.51c-.76,1.68-.43,4.09-1.68,5.28a1.44,1.44,0,0,0,.48.47c.25.2.06.09.48.24,1.17-1.31,2.1-3.61,3.59-4.55,1.94-1.23,4.4-.54,6.24-2.4a7.92,7.92,0,0,1,2.39.24,4.55,4.55,0,0,0,.49,1c-.08,4.11-4.17,3.92-6,6.23s-1.05,6.93-2.16,9.83c-.59,1.56-2.7,2.27-3.83,3.36a3.74,3.74,0,0,0-1,2.87,45,45,0,0,1,4.79,0c.2-2.39,1.64-4.16,2.16-6,.27-.93-.4-1.18,0-1.92.08-3.59,2.55-3.43,4.8-4.79,1.07-.65,2.1-2.81,2.87-3.84,1.74-2.3,4.44-3.47,7-5s7.56-8.28,8.63-11.27c.59-1.66.35-2.79,1-4.31.36-.93,1.59-1.74,1.91-2.64.92-2.59-.63-6.13,0-8.87.85-3.68,2.95-5.84,3.84-9.36.44-1.7.19-4.25-1-5,.11-2.28,2-4.38,0-5.75a5.6,5.6,0,0,1,1-3.12,18.09,18.09,0,0,1,1.92-1c.62.6,1.69.95,2.16,1.68,1.08,1.68,2.47,11.12,1.68,14.38-.19.77-1,1.2-.73,2.64.2.94-.26,3,0,3.84.35,1.16,2.12,3.36,2.64,5,.27.88-.51,2.58-.72,3.36a37.65,37.65,0,0,0-1.68,8.87c1.11-.12,1.05-.38,2.16-.48a32.55,32.55,0,0,0,2.4-6.71c.44-2-.69-5.17.24-6.72.22-2.22,2.62-3.75,4.07-4.79,0-1.26.71-2.91.49-3.6-.5-1.54-1.32-3.93-1.68-5-.55-1.64-.17-4.37-.48-5.28a28.64,28.64,0,0,0-1.68-2.87c-1.5-3-2.55-6.41-4.79-8.63a2.74,2.74,0,0,1,.47-1.92c.86-1.25,2.55-1.1,3.84-1.92,2.39-1.52,1.73-5.47,5.75-6.71.26-.18.23-.15.72-.24a19.21,19.21,0,0,1,.72-2.16c.09-.53-.42-1-.48-1.92a4,4,0,0,1-1.44.24,12.58,12.58,0,0,1-5.75,8.63c-.77.48-1.36.3-1.92,1-3.83,0-4.06-.47-6.47-1.44l-3.84-.24-1.44-1.2c.12-1.5.61-1.74,1.2-2.63a4.55,4.55,0,0,0,2.16-.24c2-.28,1.89-3.12,4.32-3.84a35.21,35.21,0,0,0-2.64-2.88,2.5,2.5,0,0,1,.48-1.44c0-.32.06-.33-.48-.71.18-2.45,3.05-3.49,4.8-4.32-.21-.84-.36-.84-1-1.2a2.57,2.57,0,0,1,.48-1.44h5.28c.82-.25,1.64-1.27,2.64-.72,3.68.37,3.19,6.43,4.31,9.35,1-.21.81-.47,1.44-1a2.77,2.77,0,0,1,1.68.24c1.11.42,5.68,7.93,6.23,9.35.23.6-.22.92.24,1.68,1.74,2.86,5.41,4.31,6.71,7.44l.48,6c.7,1.81,2.68,7,1.92,9.83-.28,1.06-1.14,2.12-1.43,3.12v5.75c-.26.63-1.18,2-1.45,2.64-.07,1-.15,1.91-.23,2.88-.61,1.7-1.92,3.77-2.64,5.51s.34,4.58-.24,6.71a36.15,36.15,0,0,1-2.16,4.8,7.5,7.5,0,0,1-2.64-.48,30.29,30.29,0,0,0-1.19-7.68v-4.79c-.4-1.71-.91-4.56-1.92-5.75-1.56.05-2.06,1-2.4,2.15-.56.09-1.12.16-1.68.24.14,3.2,1.21,5.7,2.16,8.39.34,1,1.75,2.55,1,3.84a2.57,2.57,0,0,1-.48,1.44c-.72.19-1.69-.07-2.16.24a8,8,0,0,0-1,1.68,65.37,65.37,0,0,0,1.92,9.59c.25.19.06.08.48.24.8-2.09.82-5.14,1.92-6.95a4.3,4.3,0,0,1,3.83,2.87c.16.72-.39.86-.48,1.2v10.07c0,1.55-.27,2.58.24,3.36v.48a3.16,3.16,0,0,0,1.92-.48c.27-1.25.25-5.33,1-7.19,1-2.5,2.31-5.17,3.36-7.44.64-1.39.5-2.58,1.2-3.83s2.1-2.44,2.87-3.6c1.09-1.62,1.05-3.3,2.16-5.27.72-1.28,2.32-2.68,2.88-4.08s-.46-4.44.24-6.24c.87-2.26,1.07-5.8,1.68-8.39l.24-3.11c.85-2.28,1.75-5.36,2.39-7.68-1.48-1.5-1.73-3.59-2.87-5.51a42.44,42.44,0,0,1-2.4-3.84c-.63-1.37-.12-3.32-1-4.55-.18-.26-1-.42-1.2-.72-.48-.64-.48-1.21-1-1.92H222c-.55-.82-.42-1.8-1-2.64s-1.82-1.73-2.4-2.63c-.46-.73-.91-2.27-1.43-2.88-.85-1-2.81-1.67-3.6-2.88a24.65,24.65,0,0,1-2.16-5.27v-1.2c-.84-1.86-2-3.12-1.68-5.75a4.78,4.78,0,0,0,1-.48c2.1.08,2.73,1.85,3.36,3.35,3.57,1,9.64,3.1,12,6.24,1.23,1.64,1.81,3.88,3.11,5.51.25.19.06.09.48.24.25-.19.06-.09.48-.24a30.44,30.44,0,0,0-1.19-4.55c-.54-2.17.2-4.06-.72-5.76-.66-1.19-1.94-1.18-3.12-1.92s-1.8-1.93-2.88-2.63a3.3,3.3,0,0,1,.72-2.4c2,0,9.36-.27,11.27.48.82.32,1.84,1.29,2.64,1.68l1.68.24c.68.32,1.55,1.31,2.15,1.67,1.76,1.07,3.56,1.37,5.28,2.4,1,.62,2.26,2,3.35,2.4l3.84.24a35.77,35.77,0,0,1,4.55,2.64c1.91,1.18,3,4.13,4.32,6,.53.76,1.65,1.38,2.16,2.16s.25,1.16,1,1.68a8.9,8.9,0,0,1-.48,2.63h-2.4c-1.28-1.38-6-5.64-7.67-6.23-1.41-.49-2.2-.13-3.36-.72-.32.38-.14.28-.72.48a26.37,26.37,0,0,0,2.4,5.75c1.52,2.29,6.6,3.52,9.11,5s3.65,4.57,5.27,7.19l1.92,1.68c1.84,1.84,4,4.2,4.8,6.95a17.63,17.63,0,0,1,.24,9.11l-.24,8.63c-.42,1.46-.65,5.46-1.2,7-1.2,3.23-2.19,6.83-3.36,10.07-.46,1.28.26,3.23.48,3.83l.48,4.08c.56,1.26,2,2.68,2.64,4.07.93,2.16.19,3.8,1,6,.15.42.54.61.72,1.2h.48c.57-1,1-2.46,1.91-3.12a14.37,14.37,0,0,0-2.15-7.67c-.35-.54-1.29-1.46-1.44-2.16l.48-6a4.56,4.56,0,0,1-.24-2.64c1.39-5.43,2.09-11,4.07-16.06.16-2.32.33-4.64.49-7,.27-.72.36-2.23.71-3.11.69-1.71,2.88-3.73,2.16-6.72-.66-2.73-1.09-7.61-2.4-9.83a74.72,74.72,0,0,0-4.55-6.47c-.56-.75-1.68-1.33-2.16-2.16-1.93-3.33-2.3-9.47-4.56-13.18l-5.27-5c-.48-.64-.78-1.48-1.44-1.92-2-1.35-4.81-1.55-6.71-2.87L252.25,351c-2.13-1.6-4.09-3.19-6.23-4.8l-3.6-3.83-2.4-.24c-3.32-1.51-6.32-4.46-9.83-5.76l-10.31-1.2c-1.35-.58-2.19-2-3.59-2.63a3.63,3.63,0,0,1,.72-2.64c1.81-.35,3.52-.84,5-1.2,3.66-.87,7.19,1.63,9.35,2.64,1,.48,3,.64,3.84,1l5.27.48c3.41,1,7.49,1.31,10.79,2.64a21.46,21.46,0,0,1,2.88,1.91c1.89,1.19,3.74,1.86,5.51,3.12l.72,1c.88.54,1.6.62,2.4,1.2l2.4,2.64c.58.37,1.08.16,1.44.71,1.07,1.65,1.7,3.48,2.87,5s3.75,1.87,4.8,3.6c2.15,3.52,2.16,8.77,4.31,12.7,1.82,3.33,4.74,7.26,6.24,10.55.72,1.59.34,3.18,1,4.8.35.93,1.42,2.1,1.67,3.11l-.24,2.64a4.64,4.64,0,0,1,.48,1.92h1c.19-1.59,2.23-4.71,1.68-6.72,0-.13-.54-1.6-.72-1.91l-.72-.48c-.5-1.18.72-4.32.72-4.32-1-2.56-3.15-4.15-4.55-6.23-1.27-1.88-2.09-4.44-3.36-6.24.06-1.71.61-1.79,1.44-2.63,2.27,0,3,1.22,4.31,2.16a20.74,20.74,0,0,1,4.08,3.11c1,1.25.76,3.45,1.44,5,2,4.57,2.27,9.85,3.59,15.1.56,2.19,1.82,7.39,1,10.55-.18.67-.79,1.55-1,2.16.08,2.16.16,4.31.25,6.47-.17.88-.32,1.76-.48,2.64l1.19,1a11.2,11.2,0,0,1,1,2.64l.24,3.59.48.24-.24,1.44c.19.67,1.05,2.15,1.2,2.88l-.24,1.43c.7,2,1.75,8.84,1,12-.34,1.37-.95,2.86-1.2,3.6-.6,1.83,0,4.57-.48,5.52s-1.79,2.1-2.39,3.11c-1.43,2.39-1.85,5.1-3.36,7.43-.93,1.44-2.66,2.39-3.6,3.84-.49-.1-.46-.06-.72-.24-1.66-.07-1.39-.6-2.16-1.44.34-4.71,3.8-6.6,4.08-10.79a3.71,3.71,0,0,1-1.2-.24,2.69,2.69,0,0,0-.72-1.67,8.18,8.18,0,0,1,2.4-4.32c-.11-1.43-.69-1.73-1-2.88-.5-2.1.88-3.5,1.44-4.79-1.26-.74-2.77-.89-2.88-2.88-.39.22-2.17,3.85-1.92,5,.11.5.83,1.51.48,2.64l-.48.24a11.65,11.65,0,0,1-.71,3.84c-.3.58-1.19,1.52-1.44,2.15-.42,1,0,2-.48,2.88-1.26,2.06-3.66,3.46-3.6,6.23h.72v.24H282c.11,2.17,0,3.2-1.68,3.6-.56.27-1-.43-1.2-.48a4.82,4.82,0,0,0-3.59,1c0,1.39-.36,4.11.24,5V461c.46.1.3-.11.48-.24h.71c.16.41.05.23.24.48a2.64,2.64,0,0,1-.71,1.91c-1.75-.41-3.07-3.16-5.28-1.68-2.51.08-4.79.32-5.75-1.19a1.81,1.81,0,0,0-1.92,1.19,46,46,0,0,1-5-1c-1.08.12-1,.32-1.68.73a7.2,7.2,0,0,0,4.31,5.27c.65.27,1.41.15,1.92.48a5.55,5.55,0,0,0,2.64-1.68c2.27,0,4.45-.09,5.75.72-.09,3.75-2.65,3.82-5,5.28s-2.62,4.72-4.08,6.95c-.44.67-1.42,1-1.92,1.68-.81-.14-1.31-.84-2.4-.48-.64.21-2.73,1-4.07.48-.43-.16-1.81-.95-2.64-.72-1.27.35-2.22,1.78-3.84,2.16-1.08.25-2.32-.35-3.11-.48-3-.51-4.53,0-7.67-.72h-6.48c-1.9-.57-3.48-2.59-5-3.6-3-1.94-7.83-3.48-9.59-6.48s-2.93-5.9-5.76-7.67a77.88,77.88,0,0,0-9.35-4.55c-1.6-.73-4.35-.56-5.75-1.44-.58-.37-.87-1.25-1.44-1.68,0-2.25.5-3.48.48-6l-1.2-1.68c-2.32.18-1.8,2-1.43,3.84.16.81-.14,1.64.23,2.15-.15,1.48-.81,1.71-1.43,2.64a2.11,2.11,0,0,0-1.2.24c-5.41-.14-1.9-6.94-4.32-9.35v-.48h-.24c.26,2.4.2,5.88,1.2,7.43a3.13,3.13,0,0,1-2.88,3.12c.71,2.31,2.48,4,2.64,6.95,2.33-1.32.7-2.71,1.2-4.31.26-.85,1.13-1.13,1.68-1.68,1.86.19,2.16,1.38,3.59,1.92,3.91,1.46,8.32.81,10.31,4.31,1.33,2.33,1.5,4.75,3.6,6.23.05,2-.28,2.87-1.44,3.6.16,1.22.64,1.24,0,1.92.94,1.42,1.68.91,3.36,1.68.73.34,1.45,1.24,2.16,1.68-.15.74-.05.58-.49,1,.31,1.85,1.79,2.8,3.12,3.59-.09.68-.22.5,0,1-.21,1.25-2.05,2.73-2.63,3.12.65,1.39,2.21,2.19,3.11,3.35l1.68.24a2.16,2.16,0,0,1,.24-1.2c.52-.41,1.24-.45,1.68-.95,2,.15,5,2.84,6.71,3.83.43,1,.78,2.66,0,3.6-3.11,4.7-8.74.15-11.51-1.92-1-.78-1.8-2.62-2.87-2.64a2.8,2.8,0,0,0-1.68.48v.72c-.86.08-1.07.55-1.68.48a24.65,24.65,0,0,0-3.12-.72c-1.11-1.14-2.54-1.64-3.11-3.36-.19-.25-.16-.22-.25-.71-1.8.06-1.43.63-2.15,1.67a2.91,2.91,0,0,1-3.36.24,1.4,1.4,0,0,0-.48,2.16c0,6.82-5.86,8.56-8.63,12.71-5.53.3-6.66,0-9.11,3.83-1.49.07-2.52.13-3.12-.71-2.76.54-7.3,5.64-9.83,7.19l-1.44.24a60.44,60.44,0,0,0-5.75,3.83,9.16,9.16,0,0,1-4.07-1.19,24.9,24.9,0,0,0-6.48,5c-3.56,0-4.93-1.11-7.43-1.68-1.71-.38-8.17,3.87-9.11,4.8-.17.18-.32.53-.48.72.19.94.26.84,1,1.2,0,0,2.16-.85,2.88-1.2,2.4-1.19,5.86-4.28,8.87-1.44,3.24-.05,3.93-2,6.23-2.88,4.05-1.6,6.4.2,9.83-1.2a27.63,27.63,0,0,0,3.12-2.16c1.49-.91,3.09-.9,4.79-1.67,3.23-1.48,6.44-4.37,9.83-6,1.36-.65,3.28,0,4.32.24,1.55.35,3.35-.63,4.31-1.2a12.31,12.31,0,0,0,2.4-2.15c.25-.45,0-.87.24-1.2a13.49,13.49,0,0,1,3.36-2.64,32.69,32.69,0,0,0,4.07-4.08c1.21-1.21,1.86-3.17,3.84-3.59,1.15-.25,2.79.73,3.83,1,2,.44,3.38-1.31,5-.72.63.22,1.4,1.11,1.92,1.44a29,29,0,0,0,4.79,1.91c2.54.91,3.77-1.32,6.48-.71.6.13,5,1,5,.95.26-.11.3-.83.48-.95l3.11-.25c1.19,0,4,1.26,5.28.48.42-.25.52-1,1.2-1.2,1.33-.37,2,.5,2.64.72,2.09.78,8.47-.29,9.35-.95s1.63-2.28,2.16-3.12c3.17-.77,9.18,1.41,11.74-.48l.72-.24c0-2-1.31-2.74-2.63-3.36a3.74,3.74,0,0,1,.23-1.2c1.64,0,2.11.41,2.4,1.68a20,20,0,0,0,3.36-.48c.51.66,1.62,1.09,1.92,1.92.6,1.66.12,3.28,1,4.8.4.73,1.41,1.24,1.92,1.91l1.91-.23c.08-.49.76-1.36.72-1.44-.61-1.4-1.23-4.71-.48-6.72.57-1.52,2-2.34,2.88-3.59.49.09.46.06.72.24a2.64,2.64,0,0,1,1.92.72c.33,1.72-.15,5.09.48,6.71.37.95,1.63,1.94,1.92,2.88.87,2.87-1.18,5.92,0,8.63a44.79,44.79,0,0,0,2.87,4.07,7.83,7.83,0,0,0,1.92.24c.14-.75,0-.58.48-1,0-2.29,1-2.3,1.92-3.59a5,5,0,0,0,4.31-1.92c-.63-.49-1.25-.09-2.16-.48-.44-.2-1-.92-1.43-1.2-.16-.41-.05-.23-.24-.48.05-2,1.29-3.19,1.67-4.31.62-1.8-.1-2.83.72-4.32,5.29,0,3,11,4.32,13.67v6.71c.36.85,1.53,1.41,1.92,2.4.49.09.46.06.72.24.49-.1.46-.06.72-.24.52-.76.24-2,.72-2.88.28-.51,1.08-.88,1.43-1.44.66-.15,1.33-.4,1.92,0,3.92.06,3.89,2.94,5,5.76.32.77,1.05,1.4,1.44,2.15,2-.11,1.16-.88,1.91-2.15.26-.44.91-.71,1.2-1.2,2.76-.11,3.86-1.32,5.76-1.92,1.45-.46,4.34.08,5.75,0v-.72h.24c.26-.18.22-.15.72-.24.36-1.88,1.9-3.74,2.64-5.28s-.64-3.15,0-5c.05-.16.68-.61.72-.72l-.24-1.2a17.61,17.61,0,0,1,.95-2.88l1.68-1.43c1-1.86,0-6.24,1-7.92.64-3,5.29-3.06,6.71-5.51a22.33,22.33,0,0,0,1-2.64c.08-.17.67-.59.72-.72.68-1.72-.5-5.59-.24-6.47s1.4-1.25,1.68-2.16c.38-1.21-.19-2.59.24-3.59.33-.76,1.28-1.28,1.68-1.92,1-1.65,1.06-3.75,2.16-5.28s2.7-2.53,3.6-4.31c.59-1.2,2.81-7.24,1.91-8.63V449h-.24a39.43,39.43,0,0,0-2.63,4.31c-.56,1.41-.23,2.87-1,4.08-1.14,1.86-3.65,2.76-4.8,4.55-.94,1.48-.31,2.32-1,4.08-.38,1-1.42,2.55-1.92,3.6l-.95,3.11c.1.35,1,1.39.71,2.16l-1,.72c-.47,1.09,0,3.64-.24,4.56v2.39c-.71,1.91-2.35,2.59-3.35,4.08a28.92,28.92,0,0,1-6.47-1c-.25.19-.06.09-.48.24-.3,2.84.77,8,0,10.79a25.36,25.36,0,0,1-1.68,3.84c.35.94.74,4.7.24,6-.63,1.59-2.2,2.69-2.88,4.07s-.69,2.85-1.92,3.6c-1.68,1-2.47-.24-4.55.48-1.42.49-2.33-.07-3.84-.72a17,17,0,0,1-.48-4.56c-.41-.15-.23,0-.48-.23-.92.23-1.5,1.21-1.92,1.91-1.06,0-1.64,0-2.16-.48-2.11-1-1.68-7.92,0-9.59v-.47a3.8,3.8,0,0,0-1.43,2.15,3.4,3.4,0,0,1-2.4-1c-.32-1.68-.83-1.7-1-3.35a3.46,3.46,0,0,0-1.2.24c1,4.92-1,6-2.4,9.11a4,4,0,0,1-3.11-1c-.05-1.52-.65-3.59,0-5,1.09-2.45,2.89-3.12,2.88-6.95h-1a18.32,18.32,0,0,0-1.92-1.92c.17-1.75,2-5.95,1-6.95.11-1.9,1.12-1.77,1.92-2.88a44.75,44.75,0,0,0,6.47-.24l.24-1.2c-.8-.27-2.21-.27-2.88-.71-3.34-.07-5.23.24-6.23,2.39l.24,1.44c-.42,1-2.09,1.82-2.64,2.88-1.11,2.13-1.13,4.39-2.4,6.47-2.14,0-1.69-.75-2.88-1.44-.4-.2-.74-.11-1.19.24h-.48c1.72,3.33-.58,7.91-1.68,10.07a4,4,0,0,1-3.12-1c-.07-1.44-.57-6,0-7.43a21.42,21.42,0,0,1,2.16-2.88c1,.09,1,.12,1.44.72h.24a1.62,1.62,0,0,0-1-1.44v-1.91c-.22-1.43-.66-.41-1.68-1-.56-.31-.69-1.28-1.2-1.68a14.31,14.31,0,0,1,2.16-7.43,11.77,11.77,0,0,1,7,2.4,3.77,3.77,0,0,0,1.2-2.4c-1.41-.31-1.86-1.33-2.88-1.92-1.17-.68-5-.57-6.23-.48-.71.69-1.83,1.1-2.4,1.92-.42.6-.38,1.26-1,1.68s-.81.22-1.21.72c-1-.2-1-.74-1.67-1-2.11-.7-3.87,1.24-5.52,0-.56-.41-.68-1-1.2-1.44,0-5,2.55-7.53,5-10.07,2.18.19,5.12,3.68,7,2.64,1.78-.24,1.89-1.46,3.36-1.92,1.13-.36,4.27-1.18,5.75-.72.29.09.09.53.72.48,1.73-.14,2.93-1.41,4.56-1.68.47-2.65,2.54-6.32,3.59-8.63a6.88,6.88,0,0,0,.48-3.12,36.94,36.94,0,0,0,2.64-4.79c.33-1,0-2.68.24-3.12.7-1.5,3.39-1.67,4.07-3.12.09-1,.17-1.92.25-2.87.77-2.26,2.44-4.31,3.11-7,.77-3-.2-7.35,1.2-9.59s4.84-3.06,7.19-4.55c1-.63,1.56-2.27,2.64-2.88,1.89-1.07,4.31-1,6-2.16.75-.53,2.07-3,2.88-3.59,3-2.31,7.63-2.28,11.75-2.4v-.72h.24v-.24a7.47,7.47,0,0,1,3.6.48c.3.18.56.83.95,1,2,.67,3.54-.91,5.52-1v-.24h.24c-.05-.56-.05-.68-.24-1-3.07-2.33-10.67-2.84-14.86-1.92-2.43.53-5.33-.58-7.44.24-.8.31-1.65,1.38-2.4,1.68l-2.39.24a20,20,0,0,0-3.84,2.4c-1.39-.09-1.49-.49-2.4-1a2.65,2.65,0,0,1,.24-1.44c.21-1.93,3.11-4.26,4.56-5l2.16-.49c1.65-.81,2.75-2.51,4.31-3.35,3.2-1.71,7.48-2.29,10.55-4.08-.4-1.07-1.44-1.07-1.92-1.92-.2-.36,0-.7-.24-.95-1-.61-2.44-.3-3.35-1-.25-.18-.3-1-.48-1.2.31-2.75,5.81-5.26,9.59-4.8,1.21.15,2.21-1.24,3.35-1.68,1.54-.58,2.05.89,3.36.48,3.66-1.12,9,.13,13.19.48-.17-3.42.13-6.4,1.67-8.87,1-.17,2.27.37,3.12.24.38-.05,2.2-2.37,2.64-2.63,2-1.22,5.17-2.25,6-4.56h.24c.06-2.53-.59-6.91-3.11-6.23-1.55.41-2.31,2.86-3.6,3.59h-1l-1.2,1.44-1.44.24-.71,1c-.68.31-.58-.25-1,0-1.22.56-.11.78-.71,1.92-.35.65-1.48,1.21-1.92,1.92h-1.2c-.28,1.36-1.18,1.24-1.68,2.15s-.15,2.38-1,3.12c.05,1.73.63,1.53,1.92,1.92-.13,1.42-.62,1.53-1.2,2.4-1.46.05-3.49.67-4.79,0-.6-.31-1.12-1.32-1.68-1.68-1.12-.72-1.92-.59-2.64-1.68-.15-.36-.3-.1,0-.48.11-2.41,1.24-1.7,2.4-2.88.55-.56.72-1.51,1.2-2.15,1.09-1.5,2.57-2.7,3.59-4.32H358c.51-2.3,3.38-3.15,4.56-4.56.63-.75,1.93-3.22,1.44-4.79a4.93,4.93,0,0,1-.48-2.4c.12-.53,1.08-1.7,1.2-2.16.16-.65-1.39-4.78-1.68-5.27l-.48-.24c-.93,2.29-2.46,4.33-3.36,6.47l-.24,2.4a14.9,14.9,0,0,1-1.44,2.88c-1.14,1.83-4.16,1.95-6,3.11-1.32.84-4.48,5.22-7.43,3.36l-.72-.24c.18-3.4,5.64-6,7.19-8.63.36-.59.13-1.23.24-1.44,1.15-2.24,2.27-4.33,3.36-6.95.53-1.3,1.7-2.4,2.15-3.84.65-2-.55-4.62.24-6.71.73-1.91,1.55-5.72.72-8.39-.17-.57-.79-1.28-1-1.92-.41-1.65.31-2.91-.72-3.84a4.88,4.88,0,0,1,.72-2.87c.42-.16.24,0,.48-.24,1.54.08,1.51.59,2.4,1.2a12.69,12.69,0,0,0,1.2,5.51c1.38.21,2.5-1,4.07-.48,1,.35,3.5,1.76,5.52,1,1.53-.6,3.31-2.11,4.8-2.88,2.63-1.35,5.14-.72,8.15-1.67,2.84-.9,4.64-2,8.39-1.68,1.44,1.47,3.58,2.11,4.31,4.31.48,1.44,1.4,10.2,1,12a24.53,24.53,0,0,0-.24,8.63c1.61,6.56-3.31,11.76-4.79,16.06v3.84c-.36,1.42-.85,3.27-1.2,4.8-.64,2.72,0,4.95-1,7.19a92.58,92.58,0,0,1-4.8,8.39c-.81,1.36-2.76,2.43-3.59,3.84-.53.89-.45,1.72-1,2.63s-1.82,1.73-2.4,2.64v.72c-.52.74-1.8,1.18-2.4,1.92-3.1,3.86-7.47,6.46-9.59,11.27.2.24.09,0,.25.47,2-.25,2.52-2.4,3.83-3.35,3.49-2.54,7.19-4.55,9.83-7.91v-.72a40.28,40.28,0,0,1,2.16-3.84c1.2-1.75,3.32-3.28,4.31-5.27v-1a13.12,13.12,0,0,1,1.2-2.4c1.33-2,3.88-2.91,5-5.27.16-1.44.31-2.88.47-4.32.25-.56,1.21-1.63,1.45-2.16.16-1.36.31-2.72.47-4.07.23-.68.77-2.06,1-2.88v-4.56c1.16-3.06,2.54-7.67,3.6-10.3l.24-3.36C400,349.56,400.67,345.42,399.94,343.28ZM40.31,294.13c-1.9.16-1.4.94-2.16,2.15-.4.31-.86.34-1.2.72-1.39-.09-1.48-.43-1.43-1.91-2.09,1.17-.55.31-1.44,1.91-.27.48-1.1.69-1.44,1.2-2.44,0-2.33-1.13-3.6-2.15l-.24-3.12,1.92-2.16c1.82-1,4-1.33,5-3.12.88-1.55.16-2.82,1-4.55.34-.73,1.29-1.28,1.68-1.92l.48-2.4c.32-.6,1.27-1,1.68-1.67h1.68A18.37,18.37,0,0,0,44.38,279c0,2.78-1.05,4.72-.48,7.43a4.85,4.85,0,0,1,0,3.36c.09.48.17,1,.25,1.44-.22,1-.94,2.36-1.2,3.36C41.68,294.74,40.76,295.24,40.31,294.13Zm9.35-18.22h1a10.74,10.74,0,0,0,2.4,2.63c.16,3.93.56,9.4-.72,12.71-.65,1.67-2.5,2.24-3.36,3.6s.26,2-.72,3.35c-.3.41-.65.56-1,1-1.74,0-1.64-.58-2.16-1.67h-1c0-1.11-.08-1.24-.72-1.68.21-2.16,1.18-3.09,1.92-4.8s0-4.61.47-5.75,1.61-2.21,1.92-3.36c.85-3.2-2-5-2.88-6.71.49-1.58-.57-6.61-1-7.68a2,2,0,0,0,.72-.71c1.83.08,1.44.55,2.16,1.67l1.92,1.68C49.64,271.46,49.74,273.58,49.66,275.91Zm.24-20.38a4.55,4.55,0,0,1-2.16-.24,2.26,2.26,0,0,1,0-1.92h-.48c-1.78,3.05-3.51,6.59-5.27,10.31-.43.9-1.19,3.23-.48,4.32a4.85,4.85,0,0,1-.48,2.63c-2.24-.26-2.73-3.09-4.08-4.31,0-4.65,1-3.27,2.4-5.76.78-1.38.2-3.59,1-5l1.2-.72a13.1,13.1,0,0,0,1.2-2.4c.85-1.56,2.87-2.79,4.07-4.08H48l2.16,1.92c.49.76.29,1.37,1,1.92C51.12,254.28,50.66,254.41,49.9,255.53Zm121.55,21.33c-2.82,0-3-.83-4.79-1.67a3.19,3.19,0,0,1-1.2,1.43,2.84,2.84,0,0,0,1,1c0,3.88-2.56,3.17-4.08,5.28a3.67,3.67,0,0,1-2.63-.72c0-.77.35-2.25.24-2.64s-1-1.48-.72-2.64a10.31,10.31,0,0,0,.72-3.11h-1.44c-.55.37-.6,1.8-1,2.39-.8,1.3-2.2,1.94-2.88,3.36-1.54,0-1.54-.39-2.4-1-.69-3.49,1-4.8,2.16-7h1.44v-.72l-1.2-1.68c-1.78.3-2.56,1-5,1-4.58-4.76-3.48-4.6-3.36-12.22-.85.08-.8,0-1.2.47a6.19,6.19,0,0,1-5.51-2.63,2.79,2.79,0,0,1,0-3.12c.86-1.07,7.09-4.1,8.63-4.56a13.69,13.69,0,0,1,5.27.24l.72.24c-.08,3.78-3.76,3.65-4.79,6.48h-.24a3.59,3.59,0,0,0,.48,1,9.49,9.49,0,0,0,5-2.64,2.66,2.66,0,0,1,1.92.72c0,1,0,1.46-.48,1.92v1.2c3.3.58,5.47.81,6.47,3.59.38,1,0,2.5.48,3.36l.24.72a3.93,3.93,0,0,0,1.2-.24c-.11-4.31-3.31-9.5,0-11.75-.25-.72-.48-.71-.72-1.44-1-.11-1.41-.46-1.92-.24a2.64,2.64,0,0,1-1.91-.72c0-1.72.49-1.51,1.2-2.4,1,0,1.82-.16,2.39.48a5.48,5.48,0,0,0,.48-1.19,2.54,2.54,0,0,1,1.44.24,2.66,2.66,0,0,1,1.92.71c0,1.11.09,1.91-.48,2.4v1c.86-.32.7-.6,1.2-1.2.25-.18.22-.15.72-.24a8.89,8.89,0,0,1,1.67-3.59c.56-.06.68,0,1-.24,5.2.2.85,8.14,2.64,11.27v.24a4.87,4.87,0,0,0,1.44-1.68c2,0,1.76.47,2.64,1.44,0,2.17.45,5.43-1,6.23s-3.36-.63-3.84.72c-.31.86,2.29,4.55,1.44,7.67C174.26,274.34,172.49,275.33,171.45,276.86Zm9.6,4.56c-.75,1.14-4.15,2.13-5.28,1.44-1.22-.13-1.18-.47-1.92-1,0-1,.29-.64-.24-1.2.49-3.21,3.2-4.76,4.56-7.19.71-1.27.46-3.29,1.2-4.56h1.91a13.07,13.07,0,0,1,1.68,2.4C184,274.17,182,280.3,181.05,281.42Zm6.95-1c-.37.51-1.26.62-1.68,1.2a6,6,0,0,1-1.92-.24c0-1.79.68-2.25,1-3.6.33-1.59-1-4.47,0-6a4,4,0,0,1,.72-1.92h2.16a4.25,4.25,0,0,1,.72,1.2C190.31,273.18,189,279.13,188,280.46Zm-54.43,86.31H135a3.72,3.72,0,0,0,1.2,1.2c-.06,2.57-1.72,2.47-2.88,3.84a4.25,4.25,0,0,1-2.15-1C131.23,368.23,132.52,368.21,133.57,366.77ZM153.71,339c-.49.73-4.09,2.8-5.75,2.16l-.48-.72a3.58,3.58,0,0,0-2.88.72c-1.62,0-1.64-.24-2.4-1,.29-2.7,4.05-3.42,5.76-4.79,3.91-.06,4.08.21,6.23,1.67A2.81,2.81,0,0,1,153.71,339ZM178.65,349c-1.52-.07-1.47-.49-2.64-.72-.22-.84-.86-2.21-.24-3.11,0-1.11.17-1.4.72-1.92,1.08-.76,3.19-.45,4.31-1.2a2.54,2.54,0,0,1,1.44.24c1.36.14,1.15.58,1.92,1.2C183.78,347.08,180.31,346.88,178.65,349ZM247,492.4l-3.12,3.36c-2.71,1.83-7.78,1.52-9.35-1a5.15,5.15,0,0,0-2.16,1c-3.14.15-4.37-.85-4.31-3.84-2.51.76-5.83-2.14-7.44-3.35a2.93,2.93,0,0,1-.24-2.64c4.67.16,7,2.51,8.87,5.52a2.55,2.55,0,0,1,1.44.23c3.14-.08,2.89-2,4.8-3.11,1.14-.65,10-.33,11.27.48a4,4,0,0,1,2.87.72C249.69,493.49,248.81,491,247,492.4Zm53.94,12.23h.72a4.82,4.82,0,0,0,1.44,1.44,2,2,0,0,0,.24,1.2c-.11,1.76-.95,1.82-1.68,2.87a5.33,5.33,0,0,1-2.64-.72,4.92,4.92,0,0,1-.48-2.15A19.15,19.15,0,0,0,300.92,504.63Zm-30-21.34a6.17,6.17,0,0,1,2.64,1.44c.15.41,0,.23.24.48-.3,2.88-2.37,3-3.6,4.79a2.92,2.92,0,0,1-2.16-.71C268,485.43,269.33,485.21,271,483.29Z" fill-rule="evenodd"/>
        <path d="M145.8,112.15c.81-.27.72-.54,1.68-.71-.29-.83-.77-1-1.2-1.68h-.72a9,9,0,0,1-1.44.48c.08,1.19.26,1,.72,1.67C145.4,112,145.52,112,145.8,112.15Z" fill-rule="evenodd"/>
        <path d="M211.73,203.74c.49-1.48.88-4.3,1.68-6.47.26-.7,1.14-1.51,1.44-2.16.77-1.71.71-3.3,1.44-5,.13-.31.87-.72,1-.95.36-1-1-2.27-.48-3.84.81-2.54,3.34-4.39,4.31-6.71l.24-2.88c1.16-2,5.14-3.88,7-5.52.92-.83,1.36-2.13,2.39-2.87v-.48c-2.6-.38-3.39,1.89-5,3.11-3,2.28-6.32,3.75-8.87,6.48a3.89,3.89,0,0,1-1.92-.24c-.51-.78-.14-1.82-.48-2.88-.26-.78-1.18-1.93-1.44-2.64-.89-2.45,3.41-7.07,4.32-8.39,2.59-3.77,5.4-8.19,9.35-10.55a20.87,20.87,0,0,1,3.83-1.67l2.88-.24c1.61-.66,2.24-3.07,3.84-3.84,2.06-1,3.62-1.29,5.75-2.16.39-.16.81-.8,1.2-1l1.44-.24c3.73-2.35,4.1-8.28,8.15-10.31,2.1-1,8.05-.27,11.27-.24.88,1,2.29,2.68,3.59,3.12.59.28,1.09-.13,1.68-.48-.05-.55,0-.68-.24-1,.16-4.83-.43-4.78-3.35-6.47v-.72c-2.09-.17-4.3-.34-5.76-1.2-.23-.13-.3-.84-.48-1-.61-.39-2.37-.35-3.12-.72-2.43-1.19-5.07-3.31-7.43-4.55-2.69-1.43-6.11-1.51-8.87-2.88-1.66-.82-3.33-2.58-5-3.36l-4.56-.48a9.22,9.22,0,0,0-2.16-1c-1.15-.14-2.35.47-3.35-.24h-.72a3.79,3.79,0,0,0,2.16,1.43V115c-.31.63-6.3,2.36-7.44,2.64h-3.83c-.78.3-1.87,1.32-2.64,1.68-1.64.75-3.45,1.08-4.79,2.16-2.27,1.81-4.54,4.11-8.64,4.07v.24h-.23c.06,1.46.83,3.13.23,4.08-.36,3.25-4.84,4-6,6.71v3.12c-.36,1-1.8,2.13-2.16,3.11-.45,1.26.61,3.34,0,4.8-1.64,3.93-2.93,8.44-4.31,12.71-.65,2,.66,3.39,1,4.55v4.32c1.07,2.9.77,6.65,1,10.54.05,1.28,1.19,3.71.48,5.52-.83,2.11-2.31,3.91-3.36,5.75.67,1.47-2.64,7.52-3.36,9.11a28.79,28.79,0,0,1-3.12,4.08c-.53.41-1.34.36-1.67,1a21.2,21.2,0,0,0-1.2,3.36v1.67c-.5.95-2.14,1.71-2.64,2.64-.86,1.61-1.83,8.31-2.64,9.11a6.32,6.32,0,0,0,.48,3.12c.56,0,.68,0,1,.24.55-.25.52-.41,1-.72a8,8,0,0,1,.72-2.64c.48-1.5-1.19-3.2-.48-5.51a23.77,23.77,0,0,1,2.88-5.28c1.17-.21,3.73,0,4.55-.72,1-.81,2.95-4.92,3.84-6.23,2.31-3.38,5-6.39,7.19-10.07.36-.61,1.34-1.24,1.68-1.92.54-1.07.66-3.34,1-4.31.93-3.06-.78-6.15-1.44-7.91-.76-2,.3-9.16,1-10.79,1.25-3.1,1.81-5.71,3.36-8.64-.36-.88,2-8.58,2.63-9.83.57-1.06,1.76-2.31,2.4-3.35s.6-2.06,1.2-3.12c1.5-2.64,3.31-5.36,5-7.91,1.44-2.12,3.78-2.4,6.24-3.6,1.17-.57,2.48-2,3.59-2.64,1.62-.86,3.11-1.17,4.56-2.15s2.84-2.7,4.32-3.6c1-.64,3-1.14,3.83-1.92.68-.61,1.28-1.76,2.16-2.15l4.08-.24c.8-.11,2.66-1,4.07-.48A64.92,64.92,0,0,1,253,124.38v2.4c-.39.76-1.8.36-2.64.72-1.53.66-3.13,2.06-4.55,2.63h-1.2c-.78.4-1.42,1.57-2.4,1.92s-2.63-.13-3.35.48-.91,1.72-1.44,2.4c-.92,1.18-4.44,3.49-5,4.56s-.67,2.12-1.68,2.63-1.88.06-3.11.48c-.85.29-1.07,1-2.16,1.2-.58,3-4.43,5.6-7,6.71-.93.41-1.74,0-2.64.49s-1.62,1.59-2.4,2.15c.61,3.39-1,2.68-1.44,4.32-.24,1,1,3.28.48,5-.7,2.53-2.08,4.75-2.64,6.95-.42,1.69,1.35,2.67,1.68,3.84v2.88l2.88,1.2c-.07,2.6-2.58,5.71-3.6,7.91-.16.8-.31,1.6-.47,2.4-1.5,3.67-2.84,8.8-4.32,12.46-1,2.42,1,5.15.48,6.72-.59,1.76-.45,4.7-1,6.95v2.64c-.18.49-.9,2-.48,3.11.55,1.55,1.59,6.95,1,9.35-1,3.79-4.07,6.42-4.32,10.79,2.05-.15,3.2-3.44,4.8-4.55v-.72c2.08-.44,2.38-3.42,3.12-5.28.25-.63,1-1.43,1.19-2.15.4-1.35-.34-2.05,0-3.12.06-.17.43-.15.48-.48l-.24-1a56.88,56.88,0,0,0,1.92-6.95C213.53,212.39,210.91,206.24,211.73,203.74Z" fill-rule="evenodd"/>
        <path d="M122.54,162.26v-1.2c.16-.41.83-1.25,1-1.67v-4.56c.92-3.63,3.54-6.09,4.8-9.11l.48-3.84c.89-1.74,3.46-3.61,5-4.79l1.92-2.16a156.92,156.92,0,0,1,13.43-9.59c2.07-1.24,2.62-4,4.55-5.27v-.48a5.11,5.11,0,0,1-1.44-1H150.6c-.63.66-.88,0-1.44.24a26.94,26.94,0,0,0-3.36,2.39c-1,1-.46,2.51-1.92,3.36-.65.38-1.24.13-1.92.48-1.66.87-3.75,2.11-5.51,2.88l-2.16.48c-1.37,1-2.41,2.69-3.83,3.59s-3.36.88-4.56,1.92a45.75,45.75,0,0,0-1.92,4.56c-.51,1.44.42,4.39-.24,6.23s-4.88,7.46-4.31,9.59c.2.75.89,2.12,1,2.64.34,2.79-5.07,4.94-3.36,7.67.25.55.41.52.72,1,.55-.05.68-.05,1-.24,1.13-.1,1.44,0,1.68-1l-.24-.48C120.57,163.1,122.05,163,122.54,162.26Z" fill-rule="evenodd"/>
        <path d="M163.54,119.83h-.24c.26.73.59.86,1,1.43h1.44c.15-.41.05-.23.24-.47,0-1.58-.63-1.5-1.92-1.68C163.75,119.48,163.76,119.3,163.54,119.83Z" fill-rule="evenodd"/>
        <path d="M161.62,123.66a2.5,2.5,0,0,0-.47-1.44c-3.54,1.26-4.6,6.49-7,7.68.1.49.06.46.24.72.54.21.56-.1,1.44-.24v-.72h.24c.26-.19.22-.15.72-.24C157.06,128,160.53,124.39,161.62,123.66Z" fill-rule="evenodd"/>
        <path d="M236.67,129.18c1.37.08,2.7.27,3.11-.72.24-.44.07-.44,0-1.2a8.42,8.42,0,0,1-3.11-.72c-1.94-.68-3.65.53-5,.72v.24h-.24a4.66,4.66,0,0,0,.24,1.44C233,128.91,235.75,128.58,236.67,129.18Z" fill-rule="evenodd"/>
        <path d="M229.23,132.29c.22-.4.05-.62,0-1.43-5.7,0-5.73,2.9-9.59,4.07v1c3.63.05,4.33-1.46,7-2.64C227.81,132.71,228.5,133.25,229.23,132.29Z" fill-rule="evenodd"/>
        <path d="M314.11,164.18a14.55,14.55,0,0,1-2.88-2.88c-1-1.43-1.27-3.11-2.64-4.07-1.1-.77-3.22-.47-4.31-1.2-.68-.46-1.5-2.37-1.92-2.64-.57-.36-1.77-.34-2.4-.72-1.52-.9-2.59-2.95-4.07-3.83-.4-.08-.8-.17-1.2-.24l-1.2-1.44-1.2-.24c-2.2-1.29-3.79-3.57-5.75-5-1.05-.78-2.28-1.13-3.36-1.91l-2.4-2.64a17.7,17.7,0,0,0-5.27-2.88c-.25-.19-.06-.09-.48-.24v.24c-.26.22,0,0-.24.24.28.21.69.48,1,.72.49.51-.35.91-.48,2.16a45.4,45.4,0,0,1-7.2,2.64c-.94.22-2.33-.3-2.87-.24a33.69,33.69,0,0,0-4.8.95H259c-.75.41-1.1,2.92-1.68,3.6-.25.18-.22.15-.71.24v.72c-2.34,1-4.57,3.68-6.47,5.27a1.6,1.6,0,0,0,1,1.44c0,4.42-2.82,3.95-4.55,6.48-1.52,2.2-2.21,4.85-3.6,7.19-1.24,2.09-3.65,3.19-5,5-1.79,2.37-3.46,7.83-6,9.12h-1.2a33.41,33.41,0,0,0-5.51,5,37,37,0,0,0-2.64,6l-.24,3.84c-.32.91-1.38,2.16-1.68,3.12-.5,1.63,1.54,2.25,1,4.55-.36,1.44-1.16,2.07-1.2,4.08.91.72,2.24,1.67,2.64,2.87,1.22,2-.42,4.71-.72,5.76v2.88c-.92,3.26-3.91,5.89-5.75,8.39-1,1.31-1.53,2.91-2.88,3.83a33,33,0,0,1-1,7.91v2.4c-.22,1-1.1,4.4-.72,5.52.9,2.63,2.4,4.43,3.36,6.95l.24,3.84a17.28,17.28,0,0,0,1,2.39c.55-.05.67,0,.95-.24l.73-.24a38.34,38.34,0,0,0-2.4-14.38c-.74-2.1.92-5.24,1.44-6.48.78-1.85.59-3.46,1.43-5.27,1.39-3,6.57-9.36,10.32-9.83a86.53,86.53,0,0,0,4.07-10.07c.76-2.65.59-5.56,1.2-8.15v-1.92c.49-1.22,2.36-3.55,2.88-5.27.77-2.6-1.73-4.74-.72-7.44.93-2.49,3.43-4.32,4.79-6.47a3.16,3.16,0,0,1,1.92.48c0,2.53-.68,8.92-1.92,10.07.65,1,1.16.8,2.16,1.44,1.6,1.32-.5,8.45-1.44,9.59v.48c2.24-1.28,5.89-8.07,6.95-10.79-1.32-1.21-1.09-3.48,0-4.8v-.95c-.55.26-.43.22-.71.71a2.4,2.4,0,0,1-1.44-.48c0-5,3-6.68,4.07-10.3.33-1.1-.54-2.1-.71-2.64-.49-1.46.6-2.2.47-4.08-.08-1.15-.84-3.33-.47-4.79.22-.91,1.36-2,1.67-2.88l.24-2.16c.56-1.23,5.94-8.24,6.95-8.87,1.84-1.14,4.24-1,6.48-1.92,4-1.57,8.39-3.26,12.71-4.79,1.12-.4,2.41.32,2.87.48h5.28c1,1.06,2.38,1.77,2.87,3.35a1.82,1.82,0,0,0,1.92-1.19l2.4.24a2.62,2.62,0,0,0,1,1.43c0,1.37-.57,1.71-.72,2.4-.11.53.5.92.24,1.68l-1.68,1.92c-1.27,0-1.94.44-3.12,0s-2.56-2.48-4.07-1.68c-.88.35-.7.79-1.2,1.44.41,2.1,4,2.62,5,3.59,1.7.07,2.49,0,3.12-1,3.93,0,5.25,2.5,8.15,3.6,2.42.92,5-.53,7.43.24s4.23,3.25,6.24,4.56a4.83,4.83,0,0,1-.72,2.15c-1.46.58-3.69.49-5.28,1.2a66.21,66.21,0,0,0-6.95,3.36,2.38,2.38,0,0,1,.48,1.2c1.7.07,3.27-1.17,5-.72.78.2,1.3,1,1.91,1.2h4.56c1.61.49,5.1,1,6.47,1.92,1.14.72,2,2.28,2.88,3.35l1.68,1.2c1.49,1.47,2.77,3.66,4.55,4.8,2.5,1.59,5.45,1.27,6.95,3.83.85,1.45.79,2.93,1.44,4.56,1.32,3.28,3.18,6.8,4.56,10.31l.24,2.16c.18.52.81,1.14,1,1.67.39,1.37-.52,2.43,0,3.36v.24a5.32,5.32,0,0,0,.48-1.68,5.92,5.92,0,0,1,2.88,1c.59,1.43.71,3.07,1.43,4.55.27.55.71.5,1,1.2h1c.68-3.4-.54-4.18-1.68-6.71l-.48-2.88a31.21,31.21,0,0,0-1.67-3.11c-.71-1.11-2.07-2.1-2.64-3.36-.85-1.86-.66-3.78-1.44-5.75-.46-1.17-1.48-2.74-1.92-3.84-2.39-6-5.22-9.06-9.35-13.18l-3.84-3.6c-1.13-1.6-1-3.24-2.15-5-.82-1.28-2-.79-3.6-1.44a10.86,10.86,0,0,1-3.12-2.39c-.6-.64-1.84-3-2.4-3.36Z" fill-rule="evenodd"/>
        <path d="M211,144c-.73,1.06.07,2.05-1.2,2.64a2.48,2.48,0,0,0,.72,1.2c.25.19.06.09.48.24,2-2,3.5-4.23,6.24-5.52A7.67,7.67,0,0,1,218,140c.25-.19.22-.15.71-.24-.06-.84-.08-1-.47-1.44v-.48c-1.26-.08-2.21-.4-3.12.24-.75.56,0,1.57-.48,2.63C213.87,142.16,211.91,142.74,211,144Z" fill-rule="evenodd"/>
        <path d="M161.15,146.44s0,.48.23.24v-.24c1.23-.14,1-.42,1.68-1,.06-1.52.11-2.71-.72-3.36a18.06,18.06,0,0,1-2.39,2.4C159.92,145.93,160,146.17,161.15,146.44Z" fill-rule="evenodd"/>
        <path d="M278.62,161.3c.68-1,2.45-1.62,3.36-2.39h.24v-.24l-4.07-.24c-1.13,1.58-4.17,1.53-6,2.4.26,1.8,1.9,2.06,1.44,3.83,1.45,0,3.38,0,4.07-.48C278,163.69,278,162.15,278.62,161.3Z" fill-rule="evenodd"/>
        <path d="M282.94,158.43h-.48c.25.19.06.08.48.24Z" fill-rule="evenodd"/>
        <path d="M273.35,165.14c-1.51.35-2.54,1-4.08,1.2l-.24,1.91c-1.21.55-1.68,1.51-2.87,1.92l.24.72c.66.12.69.29,1.19,0,1,0,1.25,0,1.68-.47.59-.36.27-.17.24-1.2.94-.45,3.52-1.67,4.08-2.4C273.65,166.79,273.2,165.77,273.35,165.14Z" fill-rule="evenodd"/>
        <path d="M183,176.41c.2-.25.09-.06.24-.48a1.57,1.57,0,0,1-.48-.48h-1.2a17.6,17.6,0,0,1-1.2,1.44,3.91,3.91,0,0,0,.48,1A2.16,2.16,0,0,0,183,176.41Z" fill-rule="evenodd"/>
        <path d="M260.16,181.92c1.72-.24,1.41-1.51,2.16-2.63s2.53-1.63,3.6-2.64h.24v-.24a2.18,2.18,0,0,1-.72-1C262.76,175.89,260.5,179.22,260.16,181.92Z" fill-rule="evenodd"/>
        <path d="M84,176.41a3.5,3.5,0,0,1-1.68,1c-.16.41,0,.23-.24.48v1c.41.15.23,0,.48.24a2.87,2.87,0,0,0,2.87-1.44h.24a4.25,4.25,0,0,0-.72-1.2Z" fill-rule="evenodd"/>
        <path d="M16.09,241.14v-1.2a38.71,38.71,0,0,1,3.12-6c.77-1.23,2.33-2.08,3.6-2.88s3.1-3.13,4.55-4.07c3.35-2.17,6.67-4.33,10.07-6.48v-.72c1.72-.34,2.25-1.9,3.12-3.11.27-.38.89-.4,1.2-.72.92-1,.94-2.29,1.44-3.12s1.68-1.58,2.16-2.4c.15-.72.32-1.43.47-2.15.74-1.39,3.08-2.94,4.56-3.6,1.72-.77,2.86-.27,3.84-1.68a43.91,43.91,0,0,0,2.87-4.79,12.68,12.68,0,0,0,.48-4.08c1-1.78,2.86-7,4.08-8.15a18.18,18.18,0,0,0-1-2.4h-.48c-2.18,2.46-3.7,6.85-4.8,9.59-1,2.55-.29,4-1.91,6.23-1.89,2.55-4.94,2.57-7.68,4.32-.57.37-1.08,1.32-1.67,1.68s-1.1.16-1.44.72c-.92,1.49-.56,3.77-1.44,5.27-1.5,2.56-3.16,5.94-5.52,7.68C34.2,220.23,32.47,220.8,31,222c-.3.23-.41,1-.72,1.2h-.72c-1.15.71-2,2-3.36,2.64-.93.44-2.05.19-2.87.72-.4.48-.8.95-1.2,1.44-4,3-8.09,7.35-7.67,13.9C15.23,241.75,15.8,241.69,16.09,241.14Z" fill-rule="evenodd"/>
        <path d="M314.11,186.72c.15-.42,0-.24.24-.48a2.57,2.57,0,0,0-.48-1.2h-4.56c-1.11-.42-.79-.72-2.87-.72a4.25,4.25,0,0,1-1.92,1.68v.48c.51,0,6.71.43,7.43,1.2Z" fill-rule="evenodd"/>
        <path d="M178.65,189.35a11.21,11.21,0,0,0-2.4,1.44v1c1.75-.52,1.83-2,3.12-2.87a18.43,18.43,0,0,1,2.63-1.2,3.78,3.78,0,0,0-2.39-2.4A27.4,27.4,0,0,0,178.65,189.35Z" fill-rule="evenodd"/>
        <path d="M292.53,187c-2.26,1.48-3.77.85-5.28,3.35H287v.24c2.38-.09,3.51-1.43,5.76-1.91,1.78-.39,3.76,1,5,.24,1.1,0,1.23-.08,1.67-.72.2-.25.09-.06.24-.48-.19-.25-.09-.06-.24-.48A67.39,67.39,0,0,0,292.53,187Z" fill-rule="evenodd"/>
        <path d="M299.48,194.15h.24v-1.68c-3.51.05-4.26,1.85-6.71,2.88a2.57,2.57,0,0,0,.48,1.2c2.64-.25,3.26-1.85,6-2.16Z" fill-rule="evenodd"/>
        <path d="M303.56,199.66c-.79.54-1.43.24-2.4.72-.72.36-1.62,1.56-2.4,1.92-1.27.6-3.18.39-4.31,1,.12,1.62,1.3,3.44,1,4.08-.13,1.69-1.12,1.92-2.64,2.15,0,2.35.38,2.68.72,4.56l1.2.24c1-1,2.39-1.62,3.12-2.88h.71c.36-1.87,1.52-1.39,2.64-2.39s1.7-2.67,2.88-3.36,2.43.05,3.83-.48c.14-.05.73-.65,1-.72,1-.31,2,.12,2.64,0a10.7,10.7,0,0,0,1.44-.72l2.64-.24c.42-.19.24-.61,1-.72,1.75-.28,8.84-.45,9.59,0,2.71.3,3.27,3,5,4.32,1.24.89,3.11,1.29,3.83,2.63s.48,3.38,1.68,4.32v.24h.24l.48-.72c.27-.23.5-3.13.48-4.32a40.58,40.58,0,0,0-3.83-3.59c.07-2,.89-1.59,1.43-2.88.2-.25.09-.06.24-.48-1.71-1.15-3.21-3.37-5-4.31-1.29-.68-3,.17-4.55-.48-.87-.36-1.68-1.59-2.64-1.92-1.35-.47-2.67.64-4.32,0-.12-.05-.54-.67-.72-.72-1-.26-2.23.79-3.11,1l-3.36-.24c-.9.36-2.35,1.52-3.36,1.92l-2.87.24C305,198.09,304.23,199.21,303.56,199.66Z" fill-rule="evenodd"/>
        <path d="M172.41,202.78c2-.73,2.32-3.16,3.84-4.31-.13-1.24-.73-1.57-1.92-1.68a12.12,12.12,0,0,0-1.2,1.68l.24.95a7,7,0,0,1-1,3.12Z" fill-rule="evenodd"/>
        <path d="M201.66,199.9c-.28-.63-.46-.5-.72-1.19-.92.32-1.18.94-1.91,1.43v1.44a3.65,3.65,0,0,0,1.91-.24C201.27,200.87,201.24,200.28,201.66,199.9Z" fill-rule="evenodd"/>
        <path d="M171.69,203.5h.24v-.24a1.3,1.3,0,0,0,.48-.48h-.48Z" fill-rule="evenodd"/>
        <path d="M89.22,204.22a3.45,3.45,0,0,0-1.68-.48,1.62,1.62,0,0,1-1,.48,2.57,2.57,0,0,0,.48,1.2c1.08-.19,1.12-.54,2.16-.72Z" fill-rule="evenodd"/>
        <path d="M201.9,206.86c-.17-.76-.61-1-.72-2.16h-.24v-.24h-1.19c-.12,2.62-1.47,4.53-1.44,7.91a1.62,1.62,0,0,1,1.44,1C200.73,212.22,202.44,209.21,201.9,206.86Z" fill-rule="evenodd"/>
        <path d="M137.65,208.06a2.11,2.11,0,0,0,1.2-.24c.18-.26.15-.23.24-.72.55.05.67,0,1,.24.54-.3.51-.6.95-1a3.3,3.3,0,0,0-.47-1l-1.44.24a7.61,7.61,0,0,1-1.44,1.92Z" fill-rule="evenodd"/>
        <path d="M169.54,211.17c.19.25.08.06.24.48h.48c.45-.72,2.49-2.83,2.63-3.11.3-.63-.45-1,.48-1.92v-.24c-1.46.11-1.29.57-2.64.72A8.5,8.5,0,0,1,169.54,211.17Z" fill-rule="evenodd"/>
        <path d="M60.93,209c-.66-1.28-2.67-.89-3.84-1.92-2.27.23-1.46,1.7-2.64,2.87.27.56.23.44.73.72-.41,2.95-2.13,3.64-2.16,6.72.49.09.46.06.72.23.73.44.61,1.37,1.19,1.92a5.12,5.12,0,0,1-1,2.4c.15.42,0,.24.24.48,2.33,1.76,2.63-2.82,3.59-4.08a11.45,11.45,0,0,0-1.44-1.43C56.39,214,59.19,210.18,60.93,209Z" fill-rule="evenodd"/>
        <path d="M137.65,210.21c-.06-.55-.05-.67-.24-1-.39-.23,0,0-.72,0l-.24.72h.24v.24Z" fill-rule="evenodd"/>
        <path d="M348.15,230.11c-.5-.91-.41-1.71-1-2.64-1.47-2.51-4.69-4-7.19-5.51-.8-.49-1.51-1.75-2.4-2.16-2.06-.94-3.9-.94-5.75-1.91-3.53-1.86-6-3.62-11-3.6h-2.88c-2.95.77-5.38,2.68-7.91,3.84-.92.41-1.46.25-2.4.71s-2,1.73-3.11,2.16c-2,.81-2.88.38-4.8,1.2-1.49.64-2.94,2-4.31,2.64l-1.92.24c-3.39,1.13-7.1,2.76-8.15,5.51h.24v.24c3-.14,4.39-2.23,6.47-3.11,1.3-.56,3.43,0,4.8-.72l.71-1a24.83,24.83,0,0,1,5.76-2.88c1.27-.44,6.18-.44,7.19,0,1.24.54,2.05,2.33,4.08,1.68,1.15-.37,2.84-1.3,4.31-1.68h1.92a11.25,11.25,0,0,0,1.92,1h3.59a10.7,10.7,0,0,1,4.08,1.92c.18.26.15.22.24.72,2,.31,3.86,1.65,5.52,2.15,1.31.41,2.18.07,3.11.72,2.09,1.47,2.46,4.6,5.28,6.48v.72c2.81.25,3.48,2.15,5.27,3.35v.24h.24a3,3,0,0,1,1-1,4.43,4.43,0,0,0-.48-1.91c-.32-1,.4-1.61.48-1.92,0,0-.86-3.41-1-3.6C349.73,231.36,348.55,230.83,348.15,230.11Z" fill-rule="evenodd"/>
        <path d="M184.16,222a2,2,0,0,1-.72,1.44,3.93,3.93,0,0,0,.24,1.2c4.08-.37,6.51-4.45,8.63-7v-.47a13.69,13.69,0,0,0-7.43,4.79Z" fill-rule="evenodd"/>
        <path d="M281.74,233c.12-.66.29-.69,0-1.2-.24.19-.06.09-.48.24.1.49.06.46.24.72V233Z" fill-rule="evenodd"/>
        <path d="M27.6,248.09a3.55,3.55,0,0,0,.48,1.68c.36.16.11.3.48,0,1.34-.14,1.56-.65,2.4-1.2a2.64,2.64,0,0,0-.72-1.91H29A17.66,17.66,0,0,1,27.6,248.09Z" fill-rule="evenodd"/>
        <path d="M200,247.62l-.72.23a11.43,11.43,0,0,0,.49,2.64h.71c.41-.88.8-1.76,1.2-2.64h-.24v-.23A6.35,6.35,0,0,0,200,247.62Z" fill-rule="evenodd"/>
        <path d="M283.9,261.28c1.47,0,1.7.45,2.16,1.44,1.82-.23,4.27-1.6,5.51.24,2.72,0,6-2.8,6.95-4.56.24-.43.06-.43,0-1.19-5.42-1.26-6.79-4.21-11.75.23-1.75,0-2.24-.4-2.87-1.43-1.92.2-1.71,1.25-2.88,1.92-1,.56-2.14-.06-3.36.47s-2.45,2.13-3.59,2.88v1c1.21.13,1.18.47,1.92,1v.72C278.19,263.77,283,260.75,283.9,261.28Z" fill-rule="evenodd"/>
        <path d="M27.6,257l-1.2-.24c-.24.19-.06.09-.48.24v1c.42.15.24,0,.48.23a2.57,2.57,0,0,0,1.2-.47Z" fill-rule="evenodd"/>
        <path d="M21.85,270.15c.55,2,2,3.24,2.16,5.76,2.08-.22,1.81-1.74,2.87-2.88a9.39,9.39,0,0,0-2.63-5.52c0-2,.76-2.4,1.19-3.83A2.92,2.92,0,0,1,25,263a2.38,2.38,0,0,0-2.63,1.92c-.29.57.11,1.67.24,2.4S21.48,268.82,21.85,270.15Z" fill-rule="evenodd"/>
        <path d="M171.69,263v.72h.48C172,263.11,172.08,263.28,171.69,263Z" fill-rule="evenodd"/>
        <path d="M270.23,265.36c-.09-.5-.06-.47-.24-.72-.28-.68,0-.45-.72-.72-.24-.2-.06-.09-.47-.24a2.72,2.72,0,0,1-.73.48,2.55,2.55,0,0,0,.25,1.44C268.78,265.77,269.18,265.43,270.23,265.36Z" fill-rule="evenodd"/>
        <path d="M306.68,266.8c.24-1.15.68-.86.95-1.92-1.41.05-3.64.27-4.31-.48a2.47,2.47,0,0,0-1.44,1h-.24v.24a5.46,5.46,0,0,1,1.2,1.2A35.12,35.12,0,0,0,306.68,266.8Z" fill-rule="evenodd"/>
        <path d="M266.16,266.32a2.57,2.57,0,0,0-.48-1.2H265c-.18.52-.34.93,0,1.43C265.29,266.74,265.48,266.47,266.16,266.32Z" fill-rule="evenodd"/>
        <path d="M162.1,270.15v.48a13,13,0,0,0,3.36-1.68v-1.67C163.41,267.42,163.38,269.23,162.1,270.15Z" fill-rule="evenodd"/>
        <path d="M225.64,280.94c-.38.57-.3,1.21-.72,1.68v.72c1.12-.59,3.81-2.71,2.88-4.32C227.23,279.76,226.14,280.18,225.64,280.94Z" fill-rule="evenodd"/>
        <path d="M279.34,294.13c2.87,0,2.86,1,4.32,2.15,0,0,6.5-.86,6.95-1.19s.69-1.35,1.44-1.68a7.28,7.28,0,0,1,4.8-.24c.83.2,1.36-.62,1.91-.72,1.22-.23,2.22.71,3.12,1a8.7,8.7,0,0,0,1-1c.36-.63-.55-2.89-1-3.6-1.64.1-2.71,1.4-3.84.72-1.51-.14-1.83-1.15-2.39-2.16a10,10,0,0,0-3.12,1c-.79.27-1.49-.41-2.64,0-.92.33-2.38,2.09-4.55,1.2l-.48-.72-3.6-.24c-.76-.29-1.73-1.39-2.4-1.68h-2.39c-1-.26-1.18-.81-2.4-.95-1.74,2.89.86,6.11,2.4,8.39C277.4,294.4,278.79,294.5,279.34,294.13Z" fill-rule="evenodd"/>
        <path d="M268.55,294.61a3.68,3.68,0,0,0,2.64-.72c-.54-1.27-1.71-2.06-2.16-3.36-1.54-.35-2.24-1.08-3.83-1.2-.25.2-.06.09-.48.24a23.13,23.13,0,0,1-.48,3.6,7.53,7.53,0,0,1,1.44,1.2C266.61,294.34,268,294.24,268.55,294.61Z" fill-rule="evenodd"/>
        <path d="M310,293.89a1.62,1.62,0,0,1,1-.48,8.5,8.5,0,0,1-1-2.88,2.32,2.32,0,0,1-1-.72h-.72c-.38.44-.78,1-1.2,1.44C307.2,293.18,308.47,293.58,310,293.89Z" fill-rule="evenodd"/>
        <path d="M260.4,295.57a2.57,2.57,0,0,0,1.44-.48v-.48c-1.37-.56-2.1-1.49-3.35-1.92a13.84,13.84,0,0,1-1.92,1.68l.71,1C258.53,295.37,259.92,295.78,260.4,295.57Z" fill-rule="evenodd"/>
        <path d="M244.1,301.08h.48v-.48a8,8,0,0,0-2.4-1c-.42.92-.3.74.24,1.68A3.16,3.16,0,0,0,244.1,301.08Z" fill-rule="evenodd"/>
        <path d="M307.63,327c-1.28-2.76-7.1-2.43-10.07-3.35-.52.37-1.42.67-1.91,1,.72,1.93,8.28,2.51,9.59,3.83C307.06,328.4,306.87,327.93,307.63,327Z" fill-rule="evenodd"/>
        <path d="M335.2,327.69a2.56,2.56,0,0,0,1.21-.48,3.37,3.37,0,0,0-1.68-3.11,7,7,0,0,1-1,1.2C333.78,327.12,334.25,326.93,335.2,327.69Z" fill-rule="evenodd"/>
        <path d="M330.41,332.49v-.24h.24c-.12-2-1.09-3.06-1.92-4.32H328c-.53,1.89,1.36,3,1.92,4.56Z" fill-rule="evenodd"/>
        <path d="M340.48,336.8a7,7,0,0,0-2.4-3.83,14.57,14.57,0,0,1-.48,2.4,9,9,0,0,0,.24,2.63C339.7,338,339.55,337.55,340.48,336.8Z" fill-rule="evenodd"/>
        <path d="M307.39,355.5c-.27-.41-.28-.85-.48-1.19h-.71a8,8,0,0,1,.24-1.68c-.21-.18-.27-.31-.49-.48a7.28,7.28,0,0,0-1.43-.48c0-2,.1-3.29,1-4.32-.51-1-2.82-2.28-1.91-3.83a10.66,10.66,0,0,1,.24-3.12l4.31.24c-.39-1.93-2.49-1.47-3.83-2.4a14.9,14.9,0,0,1-1.68-1.92h-.24a2.44,2.44,0,0,0,1.2,2.16,3.16,3.16,0,0,1-.48,1.92c-.56.05-.68.05-1,.24-3.31-.17-1.86-1.33-3.36-1.92a41.48,41.48,0,0,0-8.15-.24h-.48c-.47,2.5.54,4.25.72,6.72,3.33-.25,4,1.16,6,2.63V351h.71a3.68,3.68,0,0,1,.25-1.2c2.68.16,2.51,1.63,3.83,2.88,0,0,1-.43,1.44-.24s.78.92,1.2,1.19V355a2.08,2.08,0,0,1,1.19.24,5.83,5.83,0,0,1,.73,3.6c1.56-.27,1.6-1.22,2.87-1.68C308.76,355.76,308,356.4,307.39,355.5Z" fill-rule="evenodd"/>
        <path d="M387.71,338.24c-.3-.61-.25-.52-1-.72a6.69,6.69,0,0,1-1.44,1c-.05.56,0,.68-.24,1a3.58,3.58,0,0,0,.48,1C387.12,340.21,386.93,339.13,387.71,338.24Z" fill-rule="evenodd"/>
        <path d="M334,341.36c.24.19.06.09.48.24a4.51,4.51,0,0,1,.47-1,3.47,3.47,0,0,0-1.67-2.16A2.43,2.43,0,0,0,334,341.36Z" fill-rule="evenodd"/>
        <path d="M364.93,339.68a12.1,12.1,0,0,0-1.67,1.92c-.47.9-.05,2-.72,2.63a3.63,3.63,0,0,0,.72,2.64c1.46-.25,1.91-1,2.87-1.67.06-1.32.62-3.14,0-4.08C366,340,365.75,340,364.93,339.68Z" fill-rule="evenodd"/>
        <path d="M334.25,346.15h.24v.24h.24a2.1,2.1,0,0,0-.24-1.19c0-1.46-.16-2.05-1-2.64-.25.19-.06.09-.48.24A6.72,6.72,0,0,0,334.25,346.15Z" fill-rule="evenodd"/>
        <path d="M382.92,348.07a4.06,4.06,0,0,0,1.67-1c.19-.3,0-.23,0-1h-.71a3,3,0,0,1-.25-.95,20.21,20.21,0,0,0-1.91,1.43C381.94,347.78,382.22,347.5,382.92,348.07Z" fill-rule="evenodd"/>
        <path d="M380.76,351a5.29,5.29,0,0,1-2.64,1.2c0,3.07-.59,6-2.4,7.19a3.91,3.91,0,0,0,.48,1c3.07-1,3.88-4.49,5.52-6.95C381.75,351.89,381.61,351.49,380.76,351Z" fill-rule="evenodd"/>
        <path d="M140.29,354.31c1,1.17,2.57,1.2,3.35,2.63h.48c.16-.41,0-.23.24-.48.07-2.21-.55-2.43-1.92-3.11C141.94,354,141.14,354,140.29,354.31Z" fill-rule="evenodd"/>
        <path d="M160,362.46a1.38,1.38,0,0,1-.48-.48c-1.34-.09-1.54-.43-2.88-.48-.19.16-.54.31-.72.48l-.72.24v.48a3.29,3.29,0,0,1,1.92.72C158.61,363.5,159.55,363.61,160,362.46Z" fill-rule="evenodd"/>
        <path d="M192.31,363.9c-.15.41,0,.23-.24.47v.24c1,.06,1.82.36,2.4,0a5.72,5.72,0,0,0,1.92-.24l.24-.71a1.69,1.69,0,0,1-.48-1H194A4,4,0,0,1,192.31,363.9Z" fill-rule="evenodd"/>
        <path d="M306.44,366.53v1.2a5.94,5.94,0,0,0,2.39-2.4c.27-.2-.14-.48-.24-1.2-.55.06-.67.05-1,.24C306.76,364.85,307,365.73,306.44,366.53Z" fill-rule="evenodd"/>
        <path d="M235,432.7c-2.09,2.94-3.38,6.24-5.52,9.11l-4.07,3.84a20.49,20.49,0,0,0-2.16,4.08c-.36,1.1.1,1.69-.48,2.4a8.54,8.54,0,0,0,.48,1.43c3-.19,4.62-5.33,6.47-7.19,1.51-1.51,3.58-3.07,4.8-4.79,1-1.36,1.78-2.92,3.12-3.84,1.78-1.24,3.82-1.66,5.75-2.88,2.28-1.43,7.29-7.87,8.39-10.55a24.72,24.72,0,0,0,1.2-4.07,8.42,8.42,0,0,0-.24-2.88,11.6,11.6,0,0,1,1.2-6.23c.78-2.41,2.94-1.48,4.31-.48.25,3,.75,7.75-.71,9.83a4.44,4.44,0,0,0,.23,2.16c.55.27,1.64-.24,2.16-.73a8.26,8.26,0,0,0,1.2-4.07l-.24-1.44.48-.24c.28-.65.55-2.15.72-2.64l-.24-2.15.48-.24.24-2.4c.07-.18.67-.59.72-.72,2.06-5.05-4.23-9.84-5.75-12.47-1.15-2-.79-4.85-1.68-7.19-1.15-3-5-8.75-7.43-10.55-1.71-1.26-3.65-2-5.28-3.36-3.2-2.63-3.73-8.95-7.91-9.83a29.4,29.4,0,0,0,3.12,8.88c.63.92,1.8,1.91,2.39,2.87s.54,2.38,1.2,3.36c1.6,2.35,4,4.85,5.51,7.19,1,1.59,1.69,5.07,2.16,6.23.79,2,.78,9.71.24,11.27-.33,1-1.47,1.84-1.91,2.64-1,1.76-.69,4.44-1.92,6l-1.44.48v4.08c-.32.85-1.1,2.48-1.44,3.36-.89,2.29-.23,4.89-1.44,6.71C240.17,430,236.56,430.5,235,432.7Z" fill-rule="evenodd"/>
        <path d="M133.33,504.15l1.68-1.92,1.92-.72c.59-.41.8-1.24,1.44-1.67v-1.2c-.8-.06-5.83,1-6.47,1.67-3.48.07-5.59-.19-7-2.15-.5-.73-.59-1.79-1.2-2.4-1.17-1.17-2.83-1.24-3.35-3.12a3.94,3.94,0,0,1-.24-1.19,3.07,3.07,0,0,0,1-1l1.91.24c1-.23,1.83-1.4,3.6-1,1.49.37,2,.94,4.07.71-.55-6.92,4.14-4.19,8.64-6l.24-.48h-.24c0-1.86.5-1.87,1.2-2.88,5.77-.67,12.5,1.28,15.1,4.56a20.82,20.82,0,0,0,4.79-1.44c2-.74,3,.9,5,0,1.1-.48,1.9-1.95,2.88-2.64a26.26,26.26,0,0,1,6.95-3.35c3.7-1.14,8.33,2.57,11.27.72,1.3.16,1,.57,1.92,1v1.67c-1.86,1.78-3.88,4.07-6.24,5.28h-1a25.2,25.2,0,0,0-2.63,1.92l-1.2.24c-.08.24-.16.47-.24.72-.65.36-1.14.1-1.68.48-2.35,1.66-3.73,5-6.23,6.47a37.83,37.83,0,0,1-6.24,2.64c-1.06.38-1.88,0-2.64.48a12.72,12.72,0,0,0-3.83.47v1c6.17.71,9.35.52,14.63-1.43l3.35-.25a9.46,9.46,0,0,0,4.08-2.63c.26-.18.22-.15.72-.24.49-2.33,3.33-3.34,4.55-5,.78-1.07,1.13-2.29,1.92-3.35l3.36-3.12a9,9,0,0,1,1.43-1.92c.41-.31.92-.31,1.2-.72s.22-.87.48-1.19.54-.32.72-.48c2.19,0,3.15,1.54,3.6,3.11,3.7.81,5.06,2,9.11,2.16-.1-2.23-1.45-2.74-2.4-4.08l-1-2.87c-.35-.83-3.46-2.59-4.31-3.12-.16-.75-.49-2.25-.48-2.4-.56-.88-2.26-.62-3.12-1.2l-1.2-1.43c-1-.5-2,0-2.88-.48s-1.82-1.55-2.63-1.92c-1.16-.53-2.2.27-3.12-.24h-.48a17.07,17.07,0,0,0,3.36,3.59c.08,2.53-.36,2.36-1.68,3.36-1.36,0-1.65-.16-2.16-1a30.24,30.24,0,0,0-7.19,1h-4.8c-.47.21-1.39,1.25-1.91,1.44-2.64.93-6.85-.48-8.87-1.68-.1-2.51,4.58-6.92,6.23-5,1.56-.12,3.53-2,4.55-2.87,2.42.34,3.29,1.49,5.76,1.2l.48-1.68c-1.12-.79-3-1.6-3.6-2.88-.49-1.08-.09-2.17-.72-3.11v-.25c-.94,1.56.08,2.24-1.44,3.6-2,1.5-6.4.43-9.35,1.2-3.66,1-6.93,3.39-10.55,4.79-2.07.08-4.15.17-6.23.24a19.31,19.31,0,0,0-4.31,2.88c-1.48,1.48-2.69,4.31-4.8,5-1.27.86-2.45-.24-3.12-.72-.39,1-.33,2.31-1,3.36-1.11.25-1.8.39-2.39-.48H130c.7,1.75.06,2.29-.72,3.59a3.62,3.62,0,0,1,.24,2.16c-.21.45-1.11,1-1.44,1.44a7.66,7.66,0,0,1-4.8-1.68,1.86,1.86,0,0,0-1.67,1c-2.34,0-5.53-.49-6.48-1.92-1,.12-.82.07-1.2.72-1.63,0-2.3-.2-3.11-1l-.24-.72-2.4-.24c-.79-.42-1.21-1.74-1.92-2.16,0,0-2.33-.34-2.64-.48v-.23l-1.2.23c-.37-.15-1-.93-1.43-1.19v-1h-.72c-.09-.22-.06-.9-.24-1.2-.34-.57-.89-.1-1.44-.48a10.57,10.57,0,0,1-1.2-2.4c-1.44-4.93,2.07-6.94,4.32-8.39,1.39-.9,2.22-3.06,3.59-4.08s3.34-1.36,4.32-2.63c1.77,0,5.29,1.59,6,2.63h.24a1.8,1.8,0,0,0-1-1.19,3.32,3.32,0,0,1,.24-1c4.86.05,4.53,4,6.48,7,.26.39,1,.43,1.43.72l2.64,3.12c.42.26,1.08.2,1.44.48a5.2,5.2,0,0,0,2.4-.24c.19-.25.09-.07.24-.48-1.52-.8-2.93-2-4.32-2.88-.1-2.69,2.72-4,4.08-1.92.81-.12,1.38-.16,1.68-.72v-1.2c.38-.95,2.14-2.57,3.59-1.68l.72.24v1.44c2.89-.27,4.1-2.79,5.28-4.79,2.17-.09,2.36.37,2.87,1.92.42.15.24,0,.48.23h.24c.08-2.18.15-7-1.2-8.63-.08-2.14-.06-3.28,1.2-4.07,0-4.79-.86-5.2-1.92-8.39-.7-2.14-.23-4.06-1.19-5.76L137.41,431c-.32-.51-.08-.84-.48-1.2s-1.19-.59-1.44-1c-1.05-1.59-1.23-3.34-2.16-5s-3.44-2.55-4.55-4.07c-2.34-3.21-1.93-8.82-5.76-10.55V409h-.24v.24c-.69.39-.51.82-1,1.44-.85,1.16-2.34,1.86-3.36,2.87a2.66,2.66,0,0,1-1.44-.23c-.18-.26-.15-.23-.24-.72-2.86-.58-4.21-4.23-6.23-5.76a18.85,18.85,0,0,1-3.84-3.12c-.39-.52-.63-1.37-1.2-1.67a11.84,11.84,0,0,0-2.64-.49c-1.22-.49-3-1.87-4.31-2.39l-3.36-.24c-3.21-.9-7.35-.8-8.63-4.32-1-1.52.09-4.85.24-6.23,2.44-1,3-3.75,5-5,.73-.46,1.13-.39,1.68-1,1.67,0,2.69.22,3.35,1.19,3.73-.15,5.57-3.83,7.91-5.51a9.79,9.79,0,0,1,.24-1.68,6.37,6.37,0,0,0-1.68-1.44c-.77,1.2-.77,2.52-1.43,3.6-.47.77-1.42,1.37-1.92,2.16-3.29.1-3-1.29-3.6-3.12-2.65.11-8.38,7.23-8.63,10.07-2.7.19-2,4.17-3.12,5.27a7.72,7.72,0,0,0,4.32,6c1.62.62,3.26.05,4.79.72.91.39,1.55,1.61,2.4,2.16a6,6,0,0,1-.48,1.91c-.35.72-1,.82-1.44,1.44-1.38,0-3.16.37-4.55,0a15.53,15.53,0,0,0-3.12-1,5.68,5.68,0,0,1-.24-1.92h-.48c0,1.07,0,1.64.48,2.16-.29.84-.67.9-1.2,1.44a4.83,4.83,0,0,1-2.63-.48,22.45,22.45,0,0,1,.95-6.47c-2.62-2.35-3-3.15-3.59-7.67-.08-.56-.37-1.1,0-1.68-.05-2.66.62-2.75,1.68-4.08,1.15.13,1.2.46,2.15.72.09-.16.16-.32.25-.48,0,0-.25-1.87-.25-2.87,0-2.77,0-4-2.15-5.52v-1.68c.72-.7,1.07-1.55,2.15-1.91,1.67-1.15,4.57.21,6.48-.24.58-.14,1.24-.83,1.68-1,.62-.2,6.71,1.41,7,1.67.56-.05.68,0,1-.24H100v-.23c-2.09-.82-5.44-1.33-7.44-2.16a5.3,5.3,0,0,1-4.79-1c.15-2.66,3.26-3.65,4.79-5h.24v-.48c-1.3.41-5.85,2.65-6.47,3.6s-1.19,2.46-2.16,3.12-2.7.43-3.35,1.44a9.78,9.78,0,0,0-1.2,3.11v2.88l-1.92,2.16c-1.93.2-5.44.83-8.15.24a6.68,6.68,0,0,0-2.88-.24c-.83.27-1.28.85-2.64,1v1A5.17,5.17,0,0,0,66,382.6h3.36c.57.07.45.38.72.48,2.47.84,5.35-.23,7.43.95.16.42,0,.24.24.48a3.28,3.28,0,0,1-1,2.64,38.59,38.59,0,0,0-6.71.24l.24.72c1.76-.13,3.06,0,5,0l1.44,1.2c.16.41,0,.23.24.48,0,5.61-4.09,2.29-7.67,3.6-1.87.68-4.43,2.05-5.52,3.59h-.72c-.14.75,0,.58-.47,1v.24c2.27-.25,2.91-2.36,4.55-3.12,1.45-.67,4.25.35,5.28-.72,4.07-.14,5.39,1.14,5,4.8-2.48,1.28-4.37,3.55-6.71,4.79-1.36.72-2.36.88-3.6,1.68-1,.65-1.38,2.19-2.4,2.88v1.2c4.34-1.65,3.95-3.67,7-5.76,2.15-1.5,4.83-2.52,6.71-4.31a4.07,4.07,0,0,1,2.4.72c1,4.16-.24,9.43,1.91,12.46.08.16.17.32.25.49h.47c.61-1.27.31-2.14,1-3.36.41-.76,1.63-1.22,2.16-1.92,1.6,0,2.36.19,3.12,1,1.34,0,1.85-.21,2.4-1,1.68.06,4.38.8,5,1.92,1,1.73.31,3.65,2.4,4.31.76.35,1.76-1.14,2.16-1.92h2.63c3.38,3.52,8.64,6.69,10.55,11.51.46,1.16.68,5.65,0,6.72a2.68,2.68,0,0,1-.72,1.92c-1.88,0-2.44-.34-3.12-1.44a2.74,2.74,0,0,0-1.19.48c-1,.73-1,2.32-1.68,3.35a32.88,32.88,0,0,0-3.84,6.48c-.49,1.27.16,3.22-.48,4.31,0,1.7-.56,1.9-1.2,2.88a12.13,12.13,0,0,0-2.87.48c-2.93,2.44,2,8.78,1.44,11.27a32.35,32.35,0,0,1-1.92,4.79c-.7,1.18-2.4,2.1-3.12,3.36l-.24,1.2c-.49.77-2,2.38-1.44,4.07.41,1.19.19,2.73.72,3.84.33.68.94.86,1.2,1.92,1.61.23,4.08,1.85,2.64,4.31-.64,1.1-4.4,2.05-5.51,3.84-.7,1.11-1.32,2.47-2.4,3.11s-1.65.41-2.64,1-1.33,2.07-1.92,2.88c-.74,1-2.26,1.84-2.88,2.88-1.17,2-4.3,6-6.23,6.95-3.9,1.95-10.44.42-13.9,2.88-2.82,2-4.17,6.71-7.68,7.91-1.14.69-3.32-.22-4.79.24l-.24.48c-1.46.3-4.41-.9-6.24-.24-.92.33-2.54,1.22-4.07.48-1.25-.61-2.61-2.18-3.84-2.88a41.13,41.13,0,0,1-4.07-2.16c-.87-.62-2.41-2.21-4.56-1.43-2,.71-3.11,3-5,3.59H19.69c-2.84.61-5.26.37-7.19,1.68-3.85,2.6-2.89,6.9-5.76,9.83L2.67,528.6c-1.39,2.61-3.4,8.65-2.4,11.27.43,1.12-.3,2.75.24,3.6a3.58,3.58,0,0,0,.48,1c2.48-1.23,1.31-3.79,2.4-6.24l2.16-2.39a2.9,2.9,0,0,1,2.15.72c-.09,7-3.48,9.7,2.16,14.62v.24c2.47-1.34.55-2.93,1.44-5.51.47-1.36,2.13-2.19,2.87-3.36h1c.24-1.67,1.12-1.79,1.68-2.88,1.09-2.1.48-6-.95-7v-.24c-.6.35-.29-.06-.49.72-1.21-.13-1.17-.46-1.91-1,0-3.73,2.17-8,4.31-9.35.64-.39,1-.25,1.44-.72,1.4,0,2.21.07,2.88.72.76.32.64.2.72,1.2l1.44-1.2c.48-.2.89,0,1.19-.24.36-.44.17-.64.72-1-.72-1.34-1.84-1-3.35-1.68-4.31-1.78-8.49,1.89-10.31,4.8a2.57,2.57,0,0,1-1.2-.48c0-4.15,1.73-4.93,3.36-7.19,2.75-.21,5.6-1.84,8.87-1a13.91,13.91,0,0,1,1.91,1c1.84.64,3.23-.13,4.56.72.74.47,1.1,1.71,1.68,2.4.46.54,1.51.57,1.92,1.19a14,14,0,0,0,1.43,2.4,3.07,3.07,0,0,1-.24,1.68c-.3.77-.76.83-1.19,1.44a4.54,4.54,0,0,1-3.12-1c-2.44,2.27-5.33,3.87-7.19,6.71l-.24,1.68c-.46,1-1.57,2.23-1.92,3.36l-.24,2.63c-.78,1.79-2.54,3.31-3.36,5.28.33,1.26-1.67,10.8-2.4,12a3.21,3.21,0,0,0,.73,2.39,5.87,5.87,0,0,0,2.15-.47c.2-3.76,2.34-5.49,4.08-8.16h2.4c1,.46,1,2,1.43,3.12.09.21,3.92,4.92,4.08,5,2.21,1.57,9.47.23,11.27-1,.52-.34,1.17-1.76,1.68-2.15.67-.52,1.37-.33,1.91-1,2.82.46,3.1,1.07,4.8,2.4,0,3.41.69,3.94,1.92,5.75,1-.19.86-.45,1.68-.72-.2-1.09-.75-1.64-1-2.64-.7-3.3,2.26-2.27,3.83-2.87A34.27,34.27,0,0,0,59,555.46c3.35.19,3.93,2.06,6.47,2.87,7,2.28,12.75-3.25,15.11-6.71,1.23.06,1.76.88,3.11.48.47-.13,1.4-.8,1.92-1h1.44c2.14-.88,4.87-3.65,8.15-1.91,2.33-2.31,5-3.78,7.67-5.76l1.92-2.4c1-.73,2.48-.83,3.36-1.68,1.34-1.29,3.1-4.64,4.55-5.51l1.68-.24a25.06,25.06,0,0,1,3.36-1.68h1.92c1.14-.39,2.7-1.38,3.83-1.92v-1c-3.21,0-3.78,1.43-6,2.64-2.76,1.52-6.58,1.57-9.11,3.36-2.13,1.51-3.33,4.65-5.52,6-1.32.82-3,.82-4.31,1.68-1.18.75-2.24,2.28-3.6,2.88a38.61,38.61,0,0,1-5,1.2H87.06c-.79.31-2.06,1.62-3.84.95A3.16,3.16,0,0,1,82,546.59c-5.79.74-4.88,5.42-8.39,7.91-5.78,4.1-11.42-.49-15.35-3.12.07-1.72,1.46-3.23.72-5.27-.22-.61-1.29-1.87-1.44-2.4-.22-.79.4-.78.48-1.44.51-4.1-.16-7,3.12-8.15v-.24c3.68,0,4.55,2.34,7,3.6,1.21.64,2.63.41,3.6,1.2,1.87.08,2.53,0,3.11-1.2-3.36-2-7.93-3.26-10.31-6.24-5-.28-7.61,1.51-9.11,5.28-.6,1.51.23,3.54-.48,5.27A12.15,12.15,0,0,1,53,544.43c-.45.36-1.13.24-1.44.72v.72A30.09,30.09,0,0,0,49.66,549l-.24,2.16c-.29.52-1.09.89-1.44,1.44-3.9.14-4.36-.69-5-3.12h-.24v-.23c-.59.91.17,2.19,0,3.11-.33,1.77-1.64,2.79-1.92,4.32-2.76.56-6.19,2.55-8.87.24-.18-.26-.15-.23-.24-.72-2.3-.47-5.21-5.31-4.08-9.11.51-1.7,2.07-3.55,1.2-6-.19-.53-1-1-1.2-1.44-.39-.79.08-.91-.48-1.44v-.47h-.48c0,2.67.44,4.76.24,7.43-.68.65-1.15,1.87-1.92,2.4a23.84,23.84,0,0,0-2.87,1.91c-1.22-.13-1.18-.46-1.92-1,0-3.48,1-4.51,2.4-6.48l.72-.48a24.53,24.53,0,0,0,.72-2.64H25.2c0-3.81.81-6.58,2.88-8.15.72-.54,1.8-.77,2.4-1.44,3.37.36,9.41,1.85,11.27,4.32,2,0,2.93-.9,4.31-1.44l3.36-.24.48-.72c2.16-1.32,2.56-.6,4.32-2.64-.17-.85-.53-.72-.72-1.2-.51-1.26.19-3,0-4.07a15.25,15.25,0,0,0,1.68-2.16c3.46-.22,3.42,1.09,5.75,1.92,1.93.69,3.25.24,4.31,1.68,2.16-.46,4.48-1.85,7-1.92a8.52,8.52,0,0,0,1,2.64v.24c.75-.41.41-1,1-1.44,1-.8,2.27-.74,3.36-1.44,2.34-1.5,3.29-3,6.71-1a10.93,10.93,0,0,1,2.4-2.4v-1c-1.8-.27-2.73-1.09-4.55-1.2a2.84,2.84,0,0,1-.24-1c-2.76,1.64-6.15,3.08-7.92,5.75-3.17-.09-1.7-2-3.59-2.87H68.84c-1.76-.76-3.22-2.79-4.8-3.84-.12-.84-.5-2.14,0-2.88.3-2.57,2.95-3.76,5.28-4.31h4.79c5.83-2.14,8.33.74,12.23,3.11.84.52,1.66.65,2.16,1.44.9,1.44,1.85,2.4,2.64,3.6v.72c.59.77,3.07,1.87,3.83,2.87a17.58,17.58,0,0,0,9.35-1.91c.74-.4,1.54-1.37,2.4-1.68,1.5-.54,6.71-.77,7.91,0,.17-.19.32-.54.48-.72a3.32,3.32,0,0,1,2.88-.48,5.56,5.56,0,0,0,.48-1.2c.24-.43.06-.43,0-1.2a32.44,32.44,0,0,0-4.56-1.68c-6.36-1.42-11.38,3.63-16.54.24-1.69-1.1-1.52-2.63-2.4-4.55-.34-.76-.85-.88-1-2.16a32.61,32.61,0,0,0-3.83-1.92c-1.2-.4-3.43.37-3.6.24a5.5,5.5,0,0,1-2.88-.48c0-3.69,2.71-3.73,4.56-5.51a21.31,21.31,0,0,1,4.55-3.84,10.58,10.58,0,0,1,6-.48h4.07c1.77.43,3.51,1.6,5,2.16,1.7.62,3,.33,4.32,1.2,3.55,2.35,6.14,6.16,9.82,8.39,1.45.88,2.6-.05,4.08.48,1,.35,2.78,1,3.84,1.44C130.84,505.18,132.14,505,133.33,504.15Zm2.88-53.22h1.2a2.16,2.16,0,0,0,1,.71c0,2.48-1.17,2.49-2.16,3.84a2.5,2.5,0,0,1-1.44-.48A7.18,7.18,0,0,1,136.21,450.93ZM99.29,408.49a4.87,4.87,0,0,1-2.64-.48c.15-1.45-.19-3.91.48-4.8.34-.43.81-.58,1.2-1,1.59.3,1.42.71,2.64,1.68C101,406.25,100.16,407.12,99.29,408.49Zm19.18,26.37c.07-3.68,1.34-4.6,2.16-6.95H123a9,9,0,0,0,1.44,2.4,54.37,54.37,0,0,1-.72,7.43l-.72.48c-.7,1.79,1.22,2.64,0,3.83v.24c1.43-.5,1.62-1.79,2.64-2.63-.3-2.57,0-7,1.2-8.87.39-.62,1.24-1,1.68-1.68,3.3-.06,3.14,1.06,4.79,2.4v4.31c-.29,1-1.38,3.54-.72,5.52l.48.24-.24,1.91c.51,2.18,2.44,4.19,1.44,7.2-.4,1.2-1.52,2.95-1.92,4.07-.51,1.44-.16,2.59-1,3.6,0,2.5-.75,2.49-1.67,3.83-2.23.13-2.64,0-4.08-.95-.41-1.06-.56-2.83-1.2-3.84a2.8,2.8,0,0,1,.48-1.68c1.26-.06,2-.12,2.4.72a2.57,2.57,0,0,0,1.2-.48c-.7-1.95-2.73-3.2-3.84-4.79a1.3,1.3,0,0,0-1,1,4.34,4.34,0,0,1-1.44-.25c-.16-.71-.32-1.43-.47-2.15.4-1.45,1.08-2.3,0-3.6v-3.35c-.35-.76-4.35-3.83-5.28-4.32C116.44,435.9,116.87,435.64,118.47,434.86Zm-10.55,4.32c.67-1.09,1.9-1.83,2.64-2.88h1.68c2.32,2.7,5.42,4.93,7.19,8.15.56,1,.7,3.18,0,4.08-.38,1.08-1.21,1.43-1.92,2.16h-1.92c-.53-.52-1.52-.81-1.92-1.44a25.79,25.79,0,0,0-1.91-3.36v-.48c-1.15.46-.82,2.54-1.2,3.36a4.66,4.66,0,0,1-.72,1.2,5,5,0,0,1-2.64-.48C106.54,446.62,106.33,441.74,107.92,439.18Zm-5,13.66c1.2.08,1.09.5,1.68.72.3.11,1-.67,1.2-.72.92-.22,1.18.27,1.68.24.35.47.8,1,1.2,1.44v.24a12.09,12.09,0,0,0,.72-1.44,4,4,0,0,1,1.2.24c-.19,2.06-1.37.84-1.68,1.2-.49.56-.09,1.26-.72,1.68-1.72,1.15-3.08.39-4.8,1a4.68,4.68,0,0,0-1.43-1.44A4,4,0,0,1,102.88,452.84Zm-94,80.08c-.49.1-.46.06-.72.24-2.43.05-2.4-.47-3.59-1.44.24-3.68,4.08-4.41,5.75-6.71h.72v.24h.24A8.57,8.57,0,0,1,10.1,530C10.09,531.9,9.59,531.91,8.9,532.92Zm2.64,3.6h1.92v.24h.23c.09.8.17,1.59.25,2.4a12.1,12.1,0,0,0-1.44,1.91,3.62,3.62,0,0,1-2.16-.48A5.48,5.48,0,0,1,11.54,536.52Zm42.91,9.11h1.68a6.25,6.25,0,0,0,1.2,1c0,2.84-1.08,3.2-2.15,4.79-1.49-.23-1.73-1-2.64-1.68A36.53,36.53,0,0,1,54.45,545.63Zm-17-25.41c-.41.15-.23,0-.48.23-2.4-.12-5.89-4-7.91-5.27a2.66,2.66,0,0,1,.72-1.92c1.79.15,2.06,1,3.12,1.68,2.27,1.49,4.56.93,5.27,4.08C38.54,519.24,37.68,519.84,37.43,520.22Z" fill-rule="evenodd"/>
        <path d="M95.45,365.57v-.24l-.72-.24-.48.72a.94.94,0,0,0,1-.24Z" fill-rule="evenodd"/>
        <path d="M163.54,366.53v.72h.24C163.69,366.76,163.72,366.79,163.54,366.53Z" fill-rule="evenodd"/>
        <path d="M163.3,368h.24c-.15-.41,0-.23-.24-.48Z" fill-rule="evenodd"/>
        <path d="M155.63,407.53c-1.36,1-3.94.17-5.27-.48-1.69-.82-3.5-4.53-4.56-5l-2.4-.24c-1.67-.82-1.66-2.85-2.87-4.08-.45-.45-1-.43-1.44-1a3.35,3.35,0,0,1-1.44-.48c-1.23-.4-1.87.37-2.88.48a3.32,3.32,0,0,1-.24,1c1.33.48,2.54.78,3.12,1.92v1.2c.51,1,3.88,3.06,4.79,4.31,2.52,3.46,2.59,6.61,6.24,9.35,2.74,2.07,4.6,2.74,8.39,1.2l1.44-.24c.22-.18.22-.77.48-1a11.6,11.6,0,0,0,2.39-1.91c.63-.73.67-1.52,1.2-2.4.74-1.23,2.32-1.9,3.12-3.12h1c.51-2.32,2.32-4.3,2.88-6.71.34-1.47-.5-2.14-.72-2.88-.66-2.15.6-4.4,1-6v-3.36c.54-1.52,2.36-3.4,1.91-5.75-.73-3.89-4.32-6.74-4.79-10.79h-.72c-.22-.26,0,0-.24-.24v-1H164.5c-.15,1.35-1.17,2-.72,3.83.3,1.19,1.65,3,1,5-1,3-4.44,6.39-6.23,8.87-.81,1.11-1.27,2.58-2.4,3.36.35,2.69.33,5.58-2.4,6.47v.24c-2.19,0-4.38-.78-5.27-1.92h-1.2c1.29,1.6,4,1.93,5.27,3.6a3.16,3.16,0,0,0,1.68-.24c4.46.06,3.79-3,5.52-5.52.65-1,1.76-1.86,2.39-2.87,2.86,0,2,1.11,3.36,2.4-1,5.8-3.32,6.81-6.23,10.3C158.19,405.18,157.27,407,155.63,407.53Z" fill-rule="evenodd"/>
        <path d="M118.71,376.36a5.54,5.54,0,0,0,2.64-.72c-.25-.63-.33-.4-.48-1.2a17,17,0,0,0-3.36-.24,13.83,13.83,0,0,1-3.36,1.2c-.15.42,0,.24-.24.48v.48A13.46,13.46,0,0,0,118.71,376.36Z" fill-rule="evenodd"/>
        <path d="M200.7,377.8c-.24.19,0,.09-.48.24,0,2.87,4.77,6,6.48,7.67.46.45,1.36,2.49,1.92,2.64s1.22-.87,1.43-1.2,0-.41.25-.72C210.14,383.55,203.4,378,200.7,377.8Z" fill-rule="evenodd"/>
        <path d="M113.19,381.88l.48-.24v-.48h-1.91a7.5,7.5,0,0,1-2.64,1.2c.15.41,0,.23.24.48A8,8,0,0,0,113.19,381.88Z" fill-rule="evenodd"/>
        <path d="M374.52,385.23v-.72a15.76,15.76,0,0,1-5-1.67c-.4-.47-3.05,1.09-3.59,1.44.05.55,0,.67.23,1,1.41.92,2.37.34,3.6,1.68C371.56,386.55,372.56,385.45,374.52,385.23Z" fill-rule="evenodd"/>
        <path d="M108.88,388.59h.24v-.24l-2.4-.24a7.38,7.38,0,0,1-1.44.48,4.25,4.25,0,0,0,.72,1.2A6.64,6.64,0,0,0,108.88,388.59Z" fill-rule="evenodd"/>
        <path d="M240,388.59a3.86,3.86,0,0,0-1.19.24c.66,1,1.59,1.11,2.39,1.92s1,1.88,1.68,2.64v.24a3.31,3.31,0,0,0,1-.49c-.25-1.32-1.66-2.5-2.64-3.11v-1.44C240.46,388.66,240.46,388.8,240,388.59Z" fill-rule="evenodd"/>
        <path d="M64.52,389.79c.19-.26.15-.22.24-.72a6.63,6.63,0,0,0-2.15.24v.48c.19.24.08.06.24.48C63.77,390.24,64.06,390.21,64.52,389.79Z" fill-rule="evenodd"/>
        <path d="M115.11,389.55c.22.26,0,0,.24.24v-.24c0-.19.07-.16-.48-.48C115,389.48,114.92,389.3,115.11,389.55Z" fill-rule="evenodd"/>
        <path d="M126.86,391.23l-2.64.24c-1.66-.74-1.93-2.22-4.79-2.16-.66,1.64,2.17,1.8,4.31,1.92,1,2.38,3.2,2.67,4.56,4.55a3.9,3.9,0,0,0,2.16-.72c.15-.41,0-.23.23-.48C130.42,393.16,128.09,391.6,126.86,391.23Z" fill-rule="evenodd"/>
        <path d="M210.3,390.51c-.5,1.89,1.06,4.22,1.67,5.75h.48c.75-2.14.34-3.2,0-5.27h-.24v-.24A7.81,7.81,0,0,0,210.3,390.51Z" fill-rule="evenodd"/>
        <path d="M209.34,400.34c.22-.26,0,0,.24-.24a26.63,26.63,0,0,0-1.68-6c-.52-1.05-1.65-1.48-1.92-2.87-.77-.07-.77-.22-1.2,0-.77.21-.37-.13-.72.48-.32.84,4.13,7.16,5,8.39v.24Z" fill-rule="evenodd"/>
        <path d="M237.87,417.36a10.84,10.84,0,0,0,5.51-4.07c.19-.17-.74-3-.48-4.32,0-.24,1.2-4.32,1.2-4.32-.15-.51-1-1.12-1.2-1.67-.5-1.71,1.3-2,.24-3.12,0-2.61-1.57-3.55-3.12-4.56-.66,2.1,1,2.67,1.2,4.56.14,1.44-.55,1.78-.72,2.39-.24.89.79,2,.48,3.36s-1.53,3.16-.48,4.56c-.92,1.68-1.62,2-3.35,2.87A21.54,21.54,0,0,0,237.87,417.36Z" fill-rule="evenodd"/>
        <path d="M123,400.58c1.08,1.59,2.54,1.2,4.32,2.15.16.09,5,5.77,5.27,6.24a3.16,3.16,0,0,0,1.68-.24c.55-.25.52-.41,1-.72C134.05,404.45,126.4,401.53,123,400.58Z" fill-rule="evenodd"/>
        <path d="M213.41,412.08c-.18-1.32-.45-3.68-1.68-4.55a15.38,15.38,0,0,0,1.2,4.32v.23Z" fill-rule="evenodd"/>
        <path d="M364.22,413.52c-.49.62-1.54,1-1.92,1.68-.87,1.49-.77,3.21-1.68,4.56-.61.89-1.83,1.67-2.4,2.63-.86,1.45-1,3.35-1.92,4.8-1.06,1.66-2.49,3.38-3.59,5.28-1.41,2.41-1.93,5.53-.48,7.19-.06,1.95-2,5.06-3.12,6a5.46,5.46,0,0,0,3.36,1.2c0-4.08,1.74-6.67,3.35-9.11.56.05.68.05,1,.24l.72-2.16a25.06,25.06,0,0,0,2.64-4.55v-1.68c1-2.92,2.64-6.18,3.84-8.87.73-1.67,0-3.48,1.19-4.56a5.54,5.54,0,0,0-.72-2.64Z" fill-rule="evenodd"/>
        <path d="M290.61,414.72a.7.7,0,0,0,0-1Z" fill-rule="evenodd"/>
        <path d="M149.4,424.31c-2.89-.81-4.84-3.59-7.2-5-1.6-1-3-.86-4.07-2.4h-.48c.28,2.15,1.53,4.15,1.68,6.71,2,.37,4.71,4.18,5.75,5.76,5.61.18,9.36-2.08,11.75-5.76h.72v-1.2C154.57,421.91,153,425.33,149.4,424.31Z" fill-rule="evenodd"/>
        <path d="M288.69,425.51c.08.86,0,.8.48,1.2V427h.24a3.89,3.89,0,0,1,1.2-1c.32-1.39.56-3.31-.24-4.08A14.65,14.65,0,0,1,288.69,425.51Z" fill-rule="evenodd"/>
        <path d="M202.38,425a1.57,1.57,0,0,1,.48-.48,4.53,4.53,0,0,0-.24-1.43h-1c0,1,0,1.24.48,1.67V425Z" fill-rule="evenodd"/>
        <path d="M333.77,429.35c1.18.11,1.25.42,1.67,1.2a4.12,4.12,0,0,0,2.4-.48c3.55,0,3.53-2,5.52-3.36a2,2,0,0,1,.24-1.2v-.72c-1.05.27-2.51.92-3.36,1.2s-1.88-.48-2.4-.24c-1.31.61-1.15,1.87-3.35,1.92V427c-1,.25-3.15.21-4.32.72a31.74,31.74,0,0,1-4.55,1.92,12.8,12.8,0,0,1-4.8-.24s-4.09,2.38-4.31,2.63h-2.4c-.64.46-.58,1.64-1,2.4-1.08,2.16-2.94,5.47-2.88,8.63,1.1.22,1.17.7,1.92,1.2v.72c2.18-.35,4.26-1.18,6.23.24,2.16-.46,2.14-4,3.84-5H323l.48-.72c.18.09.55.44,1,.24s.58-1.11,1-1.44l2.15-.72c1.3-.86,1.58-2.7,2.4-4.08C330.65,432.22,332.75,430.45,333.77,429.35Z" fill-rule="evenodd"/>
        <path d="M189.2,432.47a3.16,3.16,0,0,0-.48-1.92h-1c-1.29,2.06-3.27,3.32-4.56,5.27H183v.24c2.81-.35,4.13-1.89,6-3.12C189.11,432.53,189,432.71,189.2,432.47Z" fill-rule="evenodd"/>
        <path d="M262.8,433.9c-.35-.59.06-.28-.72-.48-1,1.38-2.14,3.13-3.59,4.08a3.18,3.18,0,0,0,.24,1,3.65,3.65,0,0,0,1.91-.72C261.83,436.87,261.72,434.86,262.8,433.9Z" fill-rule="evenodd"/>
        <path d="M196.39,436.06H195c.36,3.15,1.42,6,2.16,9.11l.24,5c.51.79,1.75-.15,2.4,1.68a2,2,0,0,0,1.19-.24c.85-1.1,1.43-10.94.72-12-.24-.55-.41-.52-.72-1-.49.1-.46.06-.72.24C198,438.91,197.17,437.48,196.39,436.06Z" fill-rule="evenodd"/>
        <path d="M259.2,440.61v-.47H259v-.24c-1.77.06-2.21.77-3.35,1.44,0,.55,0,.67.24,1,0,2.42-1.91,2.47-3.36,3.36a3.41,3.41,0,0,0,.24,1h1.2a3.61,3.61,0,0,1-.48,2.4,31.15,31.15,0,0,1-5,2.87h-2.16c-.74.33-1.11,1.62-1.92,1.92l-2.4.24c-.61.52-.11,2.31-.72,2.88v.24c1.41-.21,3.2,1,5,.48.09,0,6.23-3.6,6.23-3.6v-1a22.05,22.05,0,0,1,4.32-4.31l-.24-2.64c.27-.83,1-.95,1.19-2.16h-.71v-.24h-.24A5,5,0,0,1,259.2,440.61Z" fill-rule="evenodd"/>
        <path d="M167.38,447.57l-2.64.24c.61.59,1.7.95,2.16,1.68,1.95,3.11,3.81,6.73,6.95,8.63v.72c2.16,0,1.88-1.1,2.88-2.16.47-.33,1.06-.3,1.44-.72,1.62.13,2,.73,2.88,1.44v.48h.23c.07-2.15.1-5-1.2-6.48-.21-.32-.91.57-1.91.24a11.35,11.35,0,0,1-5.28-3.83h-1c.16.41,0,.23.24.48-.17.89-.35.85-.72,1.44A4.43,4.43,0,0,1,167.38,447.57Z" fill-rule="evenodd"/>
        <path d="M330.89,453.32c.25-.54,0-1.3.24-1.68,0-1,.05-1.46-.48-1.91-1.44,2.46-2.42,5.29-4.08,7.67v.48H328c.06,0,2.41-4.18,2.64-4.56Z" fill-rule="evenodd"/>
        <path d="M222,468.67c2.63-.12,8.61-3,10.31-1.92,1.08.11,1,.31,1.68.72.21,4.11-.48,2.69-1.44,5.27.19.25.09.06.24.48,2.74-.66,6.07-1.74,7.67-3.59,1.06.15,2.28.52,2.64,1.44,2.68-.81,2.46-3.14,4.31-4.56a7.59,7.59,0,0,0-.95-2.88c-1.67.47-4.64,4.23-6.72,2.88-.93-.39-1-1.18-1.91-1.68v-2.4c.44-1,2.72-2.37,1.91-3.83a5.53,5.53,0,0,1-6.23,1.91c-2.47,3.82-7.75,5.4-11.75,7.68Z" fill-rule="evenodd"/>
        <path d="M315.79,466.27c-1.51,0-1.52.16-1.92,1.2-3.41.09-2.63-1.39-3.84-3.36-.66-.67-2-.18-2.88-.72s-2.35-3.59-2.87-4.55c-.68-.16-1.55-.42-2.16,0-1.09.67-2.18,8-1.92,10.07,2.66.3,1.46,3.32,3.12,4.55a14.65,14.65,0,0,1,1.68-2.87c2.09,0,2.22,1.06,2.87,2.39,1.24-.53,4.58-4.22,6.24-3.35a3.84,3.84,0,0,0,3.83-1.92h1.44v-1.2C318.22,466.46,316.86,467.11,315.79,466.27Z" fill-rule="evenodd"/>
        <path d="M321.54,461.24c-.83.38-.91,1-1.44,1.67v.48l1.44.24a9.84,9.84,0,0,1,3.12-2.63v-.49l-.72-.23C323.18,461.39,322.42,460.82,321.54,461.24Z" fill-rule="evenodd"/>
        <path d="M137.41,467.23c-.54.8-1.37,1.15-1.92,1.92h-.24v.24c1.75.14,2.9,0,4.08-1l.48-.24v-.48a1.47,1.47,0,0,1-.48-.48Z" fill-rule="evenodd"/>
        <path d="M121.35,470.83c-.79-1.35-.69-2.27-1.92-3.12,0,3.81,1.21,4.83,2.63,7l3.12.72c.25-.19.06-.09.48-.24v-.48A19.36,19.36,0,0,1,121.35,470.83Z" fill-rule="evenodd"/>
        <path d="M251.77,469.87c-.15.41-.05.23-.24.47.3,3.44,4.08,4.93,8.15,4.8-.25-1.95-5.18-4-6.47-5.51A4.08,4.08,0,0,0,251.77,469.87Z" fill-rule="evenodd"/>
        <path d="M327.05,481.13h.24v-.23c1.39-1,2.52-4.09,2.64-6.24h-.48a17.94,17.94,0,0,1-2.4,5.28Z" fill-rule="evenodd"/>
        <path d="M309.07,498.64c.87-1.51-.27-4.41.24-6.48a19.27,19.27,0,0,1,2.4-5.27c2.86-.07,3.33,1.46,4.32,3.11l1.43.25a10,10,0,0,1,1.44-1c-.33-3.69-1.77-4.74-4.31-6.24-1.63,1-3.92.7-5,2.16-1.57,2-2.69,5.67-3.35,8.39-.38,1.54,0,4.36-.73,5.52v1.44A39.06,39.06,0,0,0,309.07,498.64Z" fill-rule="evenodd"/>
        <path d="M148.2,494.08c-1.23,1.39-3.65.85-5.52,1.68-.72.32-1.41,1.34-2.15,1.68v.48l4.79-.24c1-.3,2.42-1.3,3.36-1.68s2.28-.1,2.64-.24h.47C151.53,494.34,149.87,494,148.2,494.08Z" fill-rule="evenodd"/>
      </g>
    </g>
  </g>
</svg>
