<svg xmlns="http://www.w3.org/2000/svg" width="400.25" height="563.61" viewBox="0 0 400.25 563.61">
  <title>shit-tiger-1</title>
  <g id="圖層_2" data-name="圖層 2">
    <g id="DESGIN">
      <g>
        <path d="M332.37,177.37c2.27,1,4.13,2.94,6.72,3.59v-.48h-.24c-.78-2.26-3.72-3.23-5.52-4.55a29.21,29.21,0,0,1-5.75-6c-.51-.78-.65-1.9-1.2-2.63l-.72-.24c-1-1.75-.87-4-3.36-4.32-.58-.35-1.57,0-2.4-.24-2-.67-3.46-2.33-5.75-2.88l-4.79.24a7.51,7.51,0,0,1-2.16-.47c-3.17-.77-6,.54-8.63.23-1.37-2.13-4.88-4.54-6-6.71l-.24-2.16a21.65,21.65,0,0,0-1.91-3.35c-.17-.72-.32-1.44-.48-2.16-.43-.7-1.48-1.25-1.92-1.92a46.24,46.24,0,0,1-3.6-6.23v-1.68c-.49-1.79-1.93-3.83-1.2-5.51-.34-.63-1.15-1.68-1.44-2.4v-2.4c0-.12-.71-1-.95-1.44-.62-1-2.07-1.54-2.88-2.4-.64-.66-.85-1.69-1.44-2.39s-1.83-1-2.64-1.68a17.47,17.47,0,0,1-1.2-1.68v-1.2a27.23,27.23,0,0,0-2.63-1.92c-.32-.24-2.25-3.09-1-3.83-1.3-1.15-2.49-1-2.64-3.36.35-.38.51-1.43,1-1.68,1.05-.57,2,0,2.64-1,.43-.63.37-1.47,1-1.91.79-.6,2.3-.41,3.11-1,2.26-1.56,3.84-4.07,5.76-6l3.83-3.35c.73-1,.38-2,1-3.36.73-1.66,3-2.72,3.6-4.32l.24-2.39c.72-1.82,1.91-3.79,2.64-5.52v-1c1-1.94,3-3.67,3.83-5.75.69-1.77-.3-4.38.24-6,.35-1,1.25-2.57,1.68-3.6l.24-3.12c.08-.34.64-1.18.72-1.44V50.06a8.66,8.66,0,0,0,.24-3.12c-.23-1-1.22-2.35-.72-3.83.18-.55.89-2.14.48-3.36-.13-.39-.58-.51-.48-1.44s1.1-1.88.72-3.12c-.24-.76-1.35-1.9-1.68-2.63-.72-1.62-.48-4.06-.48-6.24-3.34-2.22-3.47-5.23-5.51-8.63l-2.88-2.63c-2.21-2.94-6.87-7.38-10.31-8.88-2.19-.95-4-.42-6.71-1.44C266.39,3.19,262,2,257.57.43c-1.81-.62-2.8,1.17-4.79.48-3.52-1.21-13.63-1.22-17,0-2.77,1-7.08-1.1-8.63-.48s-3,2.05-4.56,2.64A43.53,43.53,0,0,1,218,4h-2.4c-1.43.33-3.9.68-4.79,1h-5.76l-1.43.72v.48c-1.45,1-3,.07-4.56.48-.61.17-1.4,1-1.92,1.2-1.17.38-2.45-1.14-4.07-.48-2.23.91-4.42,3-6.72,3.84-1.39.5-3.37.19-4.55,1-1,.64-1.82,2-2.88,2.63-1.28.82-2.75.52-4.32,1.2-.62.28-1.6,1.15-2.15,1.44-2.15,1.13-5,.57-7.43,1.44-1.31.46-3.05,1.6-4.32,2.16-1.62.7-4.73.9-5.51,2.4.43.37.33.21.47,1a8.24,8.24,0,0,0,2.64-.72c.7-.18,1.6.27,1.92.24,1.06-.13,4-2.64,5.28-3.12l2.39-.24c.58-.19.76-.56,1.2-.72l4.56-.48c.72-.3,1.83-1.39,2.63-1.68,1.72-.63,3.35-.17,4.56-1.2V16c.3-.3.86-.19,1.2-.48s.42-.94.72-1.19c1.27-1.1,10.2-2.56,12.46-1.2,3.08,1.07,4.6,9.85,4.08,14.14-.47.32-2.51,1.79-2.88,2.16h-.24c-.69,1,0,1.41-1.2,1.92-1.19.84-2.07-.12-3.59.24-.91.21-2.51,1.43-3.36,1.44h-.24V32.8a2.38,2.38,0,0,1-1.92-1.68c-.52-.85.17-1.68,0-2.16A4.13,4.13,0,0,0,183.73,27a32.91,32.91,0,0,1-.24-4.07c-1-.66-1.69-1.74-2.88-2.16v.24c-2.76,1.95-2,6.64-2.64,10.79-.13.85.46,1.38,0,2.15a3.19,3.19,0,0,1-2.4,2.16,4.2,4.2,0,0,1-3.35.24c-.19-.06-.58-.66-.72-.72l-2.88-.24c-1.32-.39-5.09-1.91-5.75-2.87-.82-1.19-.61-6.84-1.44-7.44v.24c-1.22,1.2-.66,2.53-1.44,4.32-.39.9-1.39,1.73-1.68,2.88.72,1.1.41,2.5,1,3.83.3.74,1.28,1.07,1.68,1.68a9.47,9.47,0,0,1,1.2,5.28c-.5.42-.65,1.33-1.2,1.67a43.6,43.6,0,0,1-6.71,2.88l-4.32.48c-1.36.5-3.36,1.45-5,.48-.67-.39-2.32-2.84-2.87-3.6-1.73-2.37-2.46-2.75-2.16-6.71a12.7,12.7,0,0,0,2.64-2.64l.48-3.83c.55-1,1.91-1.43,2.39-2.16.32-.47,0-.91.48-1.2,1.9-1.19,4.9-.18,5.76-2.4a3.16,3.16,0,0,0,.24-1.68c-1.58.13-2.29.89-3.6,1.2-1,.23-2.76-.53-3.36-.24-.07.24-.16.48-.23.72h-1c-.82.33-1.82,1.15-2.64,1.44-1.68.6-3.08.3-4.8,1-1.29.5-4.64,1.53-6.71,1-1.32-.36-2.86-1.45-4.07-1.92h-1.92a16.49,16.49,0,0,1-2.16-1c-1.73-.74-3.62-.27-5-1.2-2.14-1.41-2.07-3.3-3.35-5.51s-4.79-3.89-7-5.51-3.56-4.93-5.52-6.24L95.74,6.9c-1.47-.93-2-2.1-4.56-2.16-.86.74-2.17.79-2.88,1.68a14.12,14.12,0,0,0-3.11,9.83,3,3,0,0,1,1.68,3.12c-1.18.34-1.06,1.14-1,2.64.71,1.14.62,2.58,1.2,3.83.38.84,1.48,1.43,1.91,2.16.76,1.29.37,2.35,1.2,4.08.42.86,1.12.9,1.92,1.44,1,.65,2.37,3.53,2.64,4.79h.72c.63.93,1.19,1.17,1.68,2.4,4.46-.81,5.74,4.53,8.63,6.23.85.5,2.22-.1,3.35.24.9.27,1.66,1.34,2.4,1.68l2.64.24c1.51.68,2.9,2.31,4.55,2.88l3.36.24c1.2.51,2.3,1.88,3.6,2.39,2.42,1,5.79-.33,7.67-.48l8.39-.24c2.45-.72,5.49-2.09,7.91-2.87,1.91-.62,3.34-.34,5.28-1a61,61,0,0,0,5.51-2.64c.91-.41,1.73-.25,2.64-.72,1.1-.57,2-2,3.11-2.63l2.88-1v-.72a9.14,9.14,0,0,1,3.12-2.16l2.39-.24c3-1.22,6.11-3.05,9.12-4.32l4.55-.48c1.36-.44,3.49-2.09,5.27-1.2l1.92-1c.4-.48.16-1.15.72-1.44h1.44a13.37,13.37,0,0,0,1.68-1c.83-.51,1.44-1.73,2.4-2.16,1.29-.58,3.34.14,4.55,0,2.14-.24,4.26-1.4,6.24-1.92l6.71-.24a56.08,56.08,0,0,1,6.47-1.91c2.2-.54,5.08.12,6.71-.48l7.2-.24c.19-.07.57-.66.72-.72a18.6,18.6,0,0,1,6.23,0c1.63.6,3.79,1.1,5.52,1.91.17.08.68.66,1,.72,1.2.28,3-.3,4.55.24s2.47,2.48,3.84,3.36c5.93,3.82,9.34,9.69,12,16.78.52,1.4-1.09,5.31-1.44,6.24-.84,2.24.44,5-.47,7-.26.53-1.92,2.78-1.68,2.88.35.6.14.51,1,.72.67-1,2-1.41,2.63-2.4.73-1.15.73-2.29,1.44-3.36.83-1.25,8.06-5,10.31-5,2,2.14,2.81,1.54,6.23,2.15.85,1.21,3.05,3.71,2.4,6.24-.11.44-1,1.53-1.2,1.92-.45,1.16.44,3,.24,3.83-.25,1-2.29,4.68-3.11,5-.61.55-1.66.51-2.88.48a1.47,1.47,0,0,0-.48-.48v-.72c-1.72-.35-2.84-2-4.32-2.64-1.67-.74-4,.55-6.23,0-1.56-.39-3.34-1.47-4.79-1.2s-3.71-.73-4.08-.48c-.9.5-2,.84-2.16,2.16h-.24c-.23.24.24.24.24.24.27,1,.42,1,1.68,1,.62-.36.75,0,1.44,0,3.72-.2,3,2.71,5.75,3.12.59-.4,1.26-.15,1.92,0,.24.54.18.66.72,1,.65-1,.7-1.42,2.4-1.43v-.24c.24-.24.23.23.24.24,2.41,1,2.65,3.16,3.59,5.75.29.78,1.35,1.72,1.68,2.4s.78,2.5.24,3.35c-.34,1-1.24,1.37-1.68,2.16l-.24,1.92c-.67,1.74-4,5.37-6,5.75v.72c-1.26.81-5.33,4.38-5.51,6a11.14,11.14,0,0,0-2.4.48c-.76.48-1.08,2-1.92,2.39H265c-2.36,1-1.9,1.91-6,1.92v1.44c.59.43.65,1.3,1.2,1.68,1,.71,2.42.43,3.11,1.44s.38,2.58.72,3.35c.74,1.22,2.54,1.5,3.6,2.4.51.43.68,1.52,1.2,1.92.74.57,1.91.44,2.64,1,1.78,1.28,6.32,6.31,7.19,8.39.48,1.16-.16,1.68.24,2.64,1,2.31,3.15,3.56,3.35,6.95-.55.39-.56.35-.72,1.2,2.95,2.06,6.89,9.54,8.4,13.18.57,1.38,0,6,.48,7,.26.49.46-.22.72,1,4.48-.58,6.23,2.78,9.35,4.79.72.47,2.62,1.29,3.83,1,.26-.07.09-.59.72-.48,1.38.24,2.46,1.48,4.08,1.68.5-1.44,1.92-1.9,2.87-2.88h3.36c2.4.69,9,4.72,9.83,6.72l.24,2.15a48.87,48.87,0,0,0,3.83,5C330.09,177.22,331.16,176.83,332.37,177.37ZM140.09,50.3c-1.29.85-2.61,1-5,1-1.05-.84-2.34-1.32-3.12-2.4a19.79,19.79,0,0,1-2.88-7.43l-1.44-.24c-.24.19-.06.08-.48.24-.37.78-1.1,1.2-1.43,1.92-1,2.15-1.46,5.77-3.6,6.71h-2.64c-3.87-2.76-8.75-3.15-12-6.24,0-2.4.85-3.86,1.19-6h-.24c-.73,1.15-2.64,3-4.31,3.12a3.25,3.25,0,0,1-.72-2.4h.24v-.24c1.5-.15,1.53-.67,2.88-.48.07-1.39.48-1.26.71-2.4-.6-.42-.63-.44-.71-1.44,1.08-1.39.89-2,3.59-1.91a8.18,8.18,0,0,0,1.68,1.2c.81-1,3-2.62,4.07-4.08h2.88c2.12,1.72,12.69,1.28,11.27,5.75-.16.52-1,.93-1.2,1.44-.34.92-.27,1.74-.48,2.4h.24V39h.24v-.24c2-1.59,3.54-4.68,6.72-5,1,1,1.46,1,1.43,3.11-2.37,2.31-1.05,7,.48,9.11.57.78,2.19,1.07,2.64,1.92ZM249.9,5.22c-1.61,1.29-.88,3.05-1.68,5.28-.59,1.64-6.31,9.38-7.67,10.31-2,1.33-6.56,1.11-9.11,1.68h-5.52c-2.83.61-5.79.63-8.39,1.2l-5.27.24c-2.33.85-5.17,2.21-7.92,2.39-.37-.48-1.45-.91-1.68-1.44.08-.47.17-.95.25-1.43-.16-.52-.94-.8-1.2-1.2a7.62,7.62,0,0,1-1.2-3.84c1.35-1.6,2.47-6.15,6-6.23a5.1,5.1,0,0,0,1.92,1.2,2.05,2.05,0,0,0,.24,1.2c.26.17.23.14.72.23,1.22-1.7,3.86-2.34,5-4.07,1.71-2.52.88-4.83,5.28-4.8,1.39-.92,4,.13,5.27.24l1.68,1.92c.45,1.14-.36,1.86,0,2.88.08.22.87.74,1,1v2.87a4.55,4.55,0,0,0-1.92,3.12,2.91,2.91,0,0,0,2.16.72c1.32-1,3.73-.6,3.84-2.88-1.82-2.82,1.31-5,2.39-6,4.33-3.84,4.8-7.59,13.43-7.43C248.54,3.47,249.6,3.19,249.9,5.22Zm33.8,12.47c-.16.19-.31.54-.48.72-1.07.79-2.53.58-3.83,1.2-.83.39-2.05,1.52-2.88,1.92l-2.4.24c-1.27.48-2.75,2.24-3.84,2.87-.24.15-1.86.95-1.91,1-.45.17-.83-.33-1-.24-.31.2-1.78,2-2.16,2.4l-2.88-.24c-1.39-2.65-5.12-2.58-7.67-4.07l-1.44-1.68c0-2.95,1.5-4.31,1-7.92-.28-1.92-2-4.07-1.19-6.47.17-.54,1-1,1.19-1.44.63-1.22.22-1.81,1.44-2.39.69-.63,2.24-.52,3.6-.48,2.1,1.32,5.6.82,6.47,3.35A2.65,2.65,0,0,1,266,7.86,4.39,4.39,0,0,0,264.28,11s.39.53.24,1a91.92,91.92,0,0,0-2.88,9.11c-.18,1,.22,1.74-.23,2.64h.95a31.9,31.9,0,0,1,3.6-3.84c.23-.19.8-.26,1-.48.86-1.17.74-2.55,1.92-3.36.84-.57,2.92-.66,3.6-1.2s.87-1.39,1.67-1.67C278.4,11.61,283.66,14,283.7,17.69Zm8.63,36.44a11.73,11.73,0,0,0-1.91-2.39c-.77-.58-1.9-.63-2.4-1.44-.87-1.43-1.26-3.38-1.92-4.8-2.73-.07-4.7-1.38-7.19-2.15-1.05-.33-1.38.72-1.92.95l-2.16-.23c-2.84-4.36-2.37-7.93-.48-12.71.47-1.18-.3-2.77-.48-3.36l.72-3.36c1.35-.88,3.4-2.46,5-2.87l3.59.24a9.52,9.52,0,0,1,2.88-.48c3.34,3.08,5.21,2.48,5.75,8.15A7.32,7.32,0,0,0,289.7,33c.75.7.61,2.23,1.2,3.11C292,37.84,294.07,39,295,41c1,2.1.35,9.38.24,12C294.23,53.6,294.1,54.1,292.33,54.13Z" fill-rule="evenodd"/>
        <path d="M110.6,35.67V34h.48a3.28,3.28,0,0,1,0,1.68Z" fill-rule="evenodd"/>
        <path d="M217.53,103c1.26,1.27,1.95,3.48,3.36,4.56,2.4,1.83,5.09,2.07,7.67,3.84,1.19.81,1.63,2.8,2.64,3.83v.24c-4.28,0-5-2.08-7.92-3.12l-2.63-.24c-.58-.19-1.35-1-1.92-1.19-2.44-.87-4.55-.44-6.47-1.68l-2.64-2.88a41.09,41.09,0,0,0-10.31-5.27c.25-1.16.73-1,1-2.16A16.21,16.21,0,0,0,206,96.09c1.28-1,1.49-2.39,3.36-2.88h3.12c.45-.13.89-.83,1.19-.95,1.86-.77,2.91,1.16,4.8.47,2.24-.8,4.21-2.94,6.23-3.83,2.37-1,6.06-.37,8.4-1.44.94-.43,1.86-2.39,3.11-2.4a15.1,15.1,0,0,0,6.71-1.44c.3-.16.59-.8,1-1a6,6,0,0,0,3.6-1c1.85-1.15,3-3.49,4.79-4.56,3.5-2.11,7-2,9.35-5.51h1.44c-.09,1.09-.26,1.24-1,1.67.06,4.42,3.68,4.65,5.28,7.44,1.08,1.87,1.18,4.2,2.4,6a3.35,3.35,0,0,1-.72,2.64c-1.59-.29-2.69-1.43-4.08-1.92-1.06-.37-1.06.35-1.92-.24a50.48,50.48,0,0,1-3.11-4.8c-3.47-.66-6.31,1-8.63,2.16,0,3.35,2,2.93,3.83,4.32.82.62.65,1.95,1.68,2.39-.13,1.14-.37.9-.72,1.68-2.7-.42-4.1-2.46-6.47-3.11h-4.08c-4.94-1.73-7.82-1.78-13.9-1.44a2.78,2.78,0,0,1-.72,1.2,2.05,2.05,0,0,0,.24,1.2c.38,1,4.58,3,5.75,3.35h3.84c.7.24,2,1.5,3.11,1.92,1.25.47,2.28.17,3.12,1,1.1,1,2.09,3.8,2.88,5.27.52,1,1.72,1.45,2.16,2.64h.23c-.19.63-.29.57-.47,1.2a8.35,8.35,0,0,1-1.92.24c-.61-3.19-4.21-5.6-8.15-5.51a20.5,20.5,0,0,0-2.64,2.63c-3,0-4.47-1.6-6.47-2.63a22.33,22.33,0,0,0-2.4-1.2c-1-.34-2.26-.07-2.64-.24a27.71,27.71,0,0,0-3.36-1.68c-1.94-.57-7.07-.33-8.39-1.68a4,4,0,0,0-3.11,1C212.76,100.7,215.7,101.22,217.53,103Z" fill-rule="evenodd"/>
        <path d="M257.33,95.85c.21.4.44,1.27.72,1.68a3.74,3.74,0,0,1-.48,1c-.72-.25-.71-.48-1.44-.72a2.57,2.57,0,0,0,.72-1.92Z" fill-rule="evenodd"/>
        <path d="M192.6,104v-.48h1C193.51,104.15,193.67,104,192.6,104Z" fill-rule="evenodd"/>
        <path d="M.79,351c.09,1.12.16,2.24.24,3.36,1.06,2.63,2.45,7.24,3.6,10.3v4.56c.2.82.74,2.2,1,2.88l.48,4.07c.24.53,1.2,1.6,1.44,2.16L8,382.6c1.16,2.36,3.7,3.23,5,5.27a12.51,12.51,0,0,1,1.2,2.4v1c1,2,3.11,3.52,4.31,5.27a40.28,40.28,0,0,1,2.16,3.84v.72c2.64,3.36,6.34,5.37,9.83,7.91,1.31.95,1.88,3.1,3.84,3.35.15-.42,0-.23.24-.47-2.12-4.81-6.48-7.41-9.59-11.27-.59-.74-1.88-1.18-2.4-1.92v-.72c-.58-.91-1.85-1.65-2.4-2.64s-.42-1.74-.95-2.63c-.84-1.41-2.78-2.48-3.6-3.84a95,95,0,0,1-4.8-8.39c-1-2.24-.32-4.47-1-7.19-.35-1.53-.83-3.38-1.19-4.8v-3.84c-1.49-4.3-6.4-9.5-4.8-16.06a24.53,24.53,0,0,0-.24-8.63c-.43-1.79.48-10.55,1-12,.73-2.2,2.87-2.84,4.32-4.31,3.74-.3,5.55.78,8.39,1.68,3,.95,5.51.32,8.15,1.67,1.49.77,3.26,2.28,4.79,2.88,2,.8,4.49-.61,5.52-1,1.57-.53,2.69.69,4.07.48a12.41,12.41,0,0,0,1.2-5.51c.89-.61.87-1.12,2.4-1.2.24.19.06.08.48.24a4.88,4.88,0,0,1,.72,2.87c-1,.93-.3,2.19-.72,3.84-.16.64-.78,1.35-1,1.92-.83,2.67,0,6.48.72,8.39.79,2.09-.4,4.68.24,6.71.45,1.44,1.62,2.54,2.15,3.84,1.1,2.62,2.21,4.71,3.36,6.95.11.21-.11.85.24,1.44,1.56,2.6,7,5.23,7.2,8.63l-.72.24c-3,1.86-6.12-2.52-7.43-3.36-1.84-1.16-4.86-1.28-6-3.11a15.49,15.49,0,0,1-1.44-2.88l-.24-2.4c-.9-2.14-2.42-4.18-3.35-6.47l-.48.24c-.3.49-1.85,4.62-1.68,5.27.12.46,1.08,1.63,1.2,2.16a5.17,5.17,0,0,1-.48,2.4c-.5,1.57.81,4,1.44,4.79,1.17,1.41,4.05,2.26,4.55,4.56H43c1,1.62,2.5,2.82,3.6,4.32.47.64.64,1.59,1.19,2.15,1.16,1.18,2.29.47,2.4,2.88.3.38.16.12,0,.48-.72,1.09-1.52,1-2.63,1.68-.56.36-1.08,1.37-1.68,1.68-1.3.67-3.34.05-4.8,0-.57-.87-1.07-1-1.2-2.4,1.29-.39,1.88-.19,1.92-1.92-.8-.74-.39-2.09-1-3.12s-1.4-.79-1.68-2.15H38c-.45-.71-1.58-1.27-1.92-1.92-.6-1.14.5-1.36-.72-1.92-.39-.25-.29.31-1,0l-.72-1-1.44-.24L31,366.05H30c-1.29-.73-2.05-3.18-3.59-3.59-2.53-.68-3.18,3.7-3.12,6.23h.24c.82,2.31,4,3.34,6,4.56.44.26,2.26,2.58,2.64,2.63.85.13,2.08-.41,3.12-.24,1.54,2.47,1.84,5.45,1.68,8.87,4.22-.35,9.52-1.6,13.18-.48,1.31.41,1.82-1.06,3.36-.48,1.15.44,2.15,1.83,3.36,1.68,3.78-.46,9.27,2,9.59,4.8-.19.23-.23,1-.48,1.2-.91.66-2.41.35-3.36,1-.19.25,0,.59-.24.95-.47.85-1.51.85-1.92,1.92,3.07,1.79,7.35,2.37,10.55,4.08,1.57.84,2.66,2.54,4.32,3.35l2.16.49c1.44.77,4.34,3.1,4.55,5a2.65,2.65,0,0,1,.24,1.44c-.91.47-1,.87-2.4,1a20.26,20.26,0,0,0-3.83-2.4l-2.4-.24c-.75-.3-1.6-1.37-2.4-1.68-2.1-.82-5,.29-7.43-.24-4.2-.92-11.8-.41-14.87,1.92-.19.28-.18.4-.23,1H49V409c2,0,3.51,1.63,5.52,1,.39-.13.65-.78,1-1,.89-.54,2.18-.47,3.59-.48v.24h.24v.72c4.12.12,8.79.09,11.75,2.4.82.63,2.14,3.06,2.88,3.59,1.68,1.2,4.11,1.09,6,2.16,1.08.61,1.65,2.25,2.64,2.88,2.36,1.49,5.74,2.23,7.19,4.55s.44,6.6,1.2,9.59c.68,2.65,2.34,4.7,3.12,7l.24,2.87c.68,1.45,3.37,1.62,4.07,3.12.21.44-.09,2.16.24,3.12a38.18,38.18,0,0,0,2.64,4.79,7,7,0,0,0,.48,3.12c1,2.31,3.13,6,3.6,8.63,1.62.27,2.82,1.54,4.55,1.68.63,0,.44-.39.72-.48,1.49-.46,4.63.36,5.75.72,1.48.46,1.58,1.68,3.36,1.92,1.84,1,4.77-2.45,7-2.64,2.49,2.54,5.05,5,5,10.07-.52.43-.64,1-1.2,1.44-1.65,1.24-3.41-.7-5.52,0-.68.22-.68.76-1.67,1-.4-.5-.67-.34-1.2-.72s-.54-1.08-1-1.68c-.57-.82-1.69-1.23-2.4-1.92-1.23-.09-5.06-.2-6.23.48-1,.59-1.46,1.61-2.88,1.92a3.86,3.86,0,0,0,1.2,2.4,11.77,11.77,0,0,1,7-2.4,14.31,14.31,0,0,1,2.16,7.43c-.51.4-.64,1.37-1.2,1.68-1,.55-1.46-.47-1.67,1V491a1.6,1.6,0,0,0-1,1.44h.23c.42-.6.45-.63,1.44-.72a19.86,19.86,0,0,1,2.16,2.88c.57,1.39.07,6,0,7.43a3.94,3.94,0,0,1-3.11,1c-1.1-2.16-3.41-6.74-1.68-10.07h-.48c-.46-.35-.8-.44-1.2-.24-1.19.69-.73,1.42-2.88,1.44-1.26-2.08-1.29-4.34-2.4-6.47-.55-1.06-2.21-1.91-2.63-2.88l.24-1.44c-1-2.15-2.9-2.46-6.24-2.39-.67.44-2.08.44-2.88.71.09.4.17.8.25,1.2a44.63,44.63,0,0,0,6.47.24c.79,1.11,1.81,1,1.92,2.88-1,1,.79,5.2,1,6.95a17.32,17.32,0,0,0-1.91,1.92h-1c0,3.83,1.78,4.5,2.87,6.95.65,1.45.06,3.52,0,5a4,4,0,0,1-3.11,1c-1.41-3.07-3.36-4.19-2.4-9.11a3.41,3.41,0,0,0-1.2-.24c-.12,1.65-.63,1.67-1,3.35a3.38,3.38,0,0,1-2.4,1,3.75,3.75,0,0,0-1.43-2.15V501c1.68,1.67,2.12,8.58,0,9.59-.52.48-1.1.5-2.16.48-.42-.7-1-1.68-1.92-1.91-.24.19-.06.08-.48.23a16.59,16.59,0,0,1-.48,4.56c-1.51.65-2.42,1.21-3.83.72-2.08-.72-2.88.55-4.56-.48-1.23-.75-1.24-2.22-1.92-3.6s-2.25-2.48-2.87-4.07c-.51-1.29-.11-5.05.23-6a24.35,24.35,0,0,1-1.67-3.84c-.77-2.79.3-8,0-10.79-.42-.15-.24-.05-.48-.24a28.93,28.93,0,0,1-6.48,1c-1-1.49-2.63-2.17-3.35-4.08v-2.39c-.21-.92.23-3.47-.24-4.56l-1-.72c-.28-.77.62-1.81.72-2.16l-1-3.11c-.5-1.05-1.54-2.56-1.92-3.6-.64-1.76,0-2.6-1-4.08-1.15-1.79-3.66-2.69-4.79-4.55-.74-1.21-.41-2.67-1-4.08A38,38,0,0,0,52.1,449h-.24v.48c-.9,1.39,1.32,7.43,1.92,8.63.89,1.78,2.53,2.82,3.59,4.31s1.12,3.63,2.16,5.28c.41.64,1.35,1.16,1.68,1.92.43,1-.14,2.38.24,3.59.28.91,1.41,1.26,1.68,2.16s-.92,4.75-.24,6.47c0,.13.64.55.72.72a22.33,22.33,0,0,0,1,2.64c1.42,2.45,6.07,2.53,6.71,5.51,1,1.68,0,6.06,1,7.92l1.68,1.43a17.68,17.68,0,0,1,1,2.88l-.24,1.2c0,.11.66.56.72.72.63,1.88-.72,3.53,0,5s2.28,3.4,2.63,5.28c.5.09.47.06.72.24H79v.72c1.42.08,4.31-.46,5.76,0,1.89.6,3,1.81,5.75,1.92.3.49.94.76,1.2,1.2.75,1.27-.09,2,1.92,2.15.38-.75,1.12-1.38,1.44-2.15,1.15-2.82,1.12-5.7,5-5.76.59-.4,1.26-.15,1.92,0,.36.56,1.15.93,1.44,1.44.48.86.2,2.12.72,2.88.25.18.22.14.72.24.25-.18.22-.15.72-.24.38-1,1.55-1.55,1.92-2.4v-6.71c1.3-2.64-1-13.65,4.31-13.67.82,1.49.1,2.52.72,4.32.38,1.12,1.62,2.28,1.68,4.31-.2.25-.09.07-.24.48-.47.28-1,1-1.44,1.2-.91.39-1.53,0-2.16.48a5,5,0,0,0,4.32,1.92c.89,1.29,1.89,1.3,1.91,3.59.44.38.34.21.49,1a7.81,7.81,0,0,0,1.91-.24,45,45,0,0,0,2.88-4.07c1.17-2.71-.87-5.76,0-8.63.28-.94,1.55-1.93,1.92-2.88.63-1.62.14-5,.48-6.71a2.6,2.6,0,0,1,1.91-.72c.26-.18.23-.15.73-.24.84,1.25,2.3,2.07,2.87,3.59.75,2,.13,5.32-.48,6.72,0,.08.64.95.72,1.44l1.92.23c.5-.67,1.51-1.18,1.92-1.91.83-1.52.36-3.14,1-4.8.3-.83,1.4-1.26,1.91-1.92a20.3,20.3,0,0,0,3.36.48c.29-1.27.77-1.7,2.4-1.68a4,4,0,0,1,.24,1.2c-1.32.62-2.63,1.36-2.64,3.36l.72.24c2.56,1.89,8.57-.29,11.75.48.52.84,1.32,2.54,2.15,3.12s7.27,1.73,9.35.95c.61-.22,1.32-1.09,2.64-.72.69.2.79,1,1.2,1.2,1.3.78,4.1-.44,5.28-.48l3.11.25c.19.12.22.84.48.95.06,0,4.43-.82,5-.95,2.7-.61,3.94,1.62,6.47.71a28.73,28.73,0,0,0,4.8-1.91,12.41,12.41,0,0,1,1.91-1.44c1.66-.59,3,1.16,5,.72,1-.23,2.68-1.21,3.83-1,2,.42,2.64,2.38,3.84,3.59s2.67,3.14,4.08,4.08a13.44,13.44,0,0,1,3.35,2.64c.27.33,0,.75.24,1.2a12.6,12.6,0,0,0,2.4,2.15c1,.57,2.76,1.55,4.32,1.2,1-.23,2.95-.89,4.31-.24,3.39,1.63,6.6,4.52,9.83,6,1.7.77,3.3.76,4.8,1.67a26.65,26.65,0,0,0,3.11,2.16c3.43,1.4,5.78-.4,9.83,1.2,2.3.91,3,2.83,6.24,2.88,3-2.84,6.47.25,8.87,1.44.71.35,2.87,1.2,2.87,1.2.71-.36.78-.26,1-1.2-.16-.19-.31-.54-.47-.72-.95-.93-7.41-5.18-9.12-4.8-2.5.57-3.87,1.65-7.43,1.68a25,25,0,0,0-6.47-5,9.21,9.21,0,0,1-4.08,1.19,59.19,59.19,0,0,0-5.75-3.83l-1.44-.24c-2.52-1.55-7.07-6.65-9.83-7.19-.6.84-1.63.78-3.12.71-2.44-3.82-3.57-3.53-9.11-3.83-2.77-4.15-8.63-5.89-8.63-12.71a1.39,1.39,0,0,0-.48-2.16,2.89,2.89,0,0,1-3.35-.24c-.72-1-.36-1.61-2.16-1.67-.09.49-.06.46-.24.71-.58,1.72-2,2.22-3.12,3.36a25.07,25.07,0,0,0-3.12.72c-.61.07-.81-.4-1.67-.48v-.72a2.8,2.8,0,0,0-1.68-.48c-1.08,0-1.84,1.86-2.88,2.64-2.77,2.07-8.39,6.62-11.51,1.92-.78-.94-.43-2.61,0-3.6,1.72-1,4.74-3.68,6.71-3.83.44.5,1.16.54,1.68.95a2.07,2.07,0,0,1,.24,1.2l1.68-.24c.91-1.16,2.46-2,3.12-3.35-.58-.39-2.43-1.87-2.64-3.12.22-.46.09-.28,0-1,1.33-.79,2.82-1.74,3.12-3.59-.44-.38-.34-.22-.48-1a24.14,24.14,0,0,1,2.16-1.68c1.67-.77,2.42-.26,3.35-1.68-.64-.68-.16-.7,0-1.92-1.16-.73-1.49-1.59-1.43-3.6,2.09-1.48,2.26-3.9,3.59-6.23,2-3.5,6.4-2.85,10.31-4.31,1.43-.54,1.73-1.73,3.6-1.92.55.55,1.41.83,1.67,1.68.5,1.6-1.12,3,1.2,4.31.16-3,1.94-4.64,2.64-6.95a3.13,3.13,0,0,1-2.88-3.12c1-1.55.94-5,1.2-7.43h-.24v.48c-2.41,2.41,1.09,9.21-4.31,9.35a2.13,2.13,0,0,0-1.2-.24c-.62-.93-1.29-1.16-1.44-2.64.37-.51.08-1.34.24-2.15.37-1.82.88-3.66-1.44-3.84l-1.2,1.68c0,2.51.45,3.74.48,6-.57.43-.86,1.31-1.44,1.68-1.39.88-4.15.71-5.75,1.44a78.62,78.62,0,0,0-9.35,4.55c-2.83,1.77-4,4.74-5.76,7.67s-6.61,4.54-9.58,6.48c-1.56,1-3.14,3-5,3.6h-6.47c-3.15.7-4.68.21-7.68.72-.78.13-2,.73-3.11.48-1.62-.38-2.57-1.81-3.84-2.16-.82-.23-2.21.56-2.64.72-1.33.47-3.43-.27-4.07-.48-1.09-.36-1.59.34-2.4.48-.5-.65-1.48-1-1.92-1.68-1.46-2.23-1.82-5.58-4.07-6.95s-5-1.53-5-5.28c1.3-.81,3.49-.76,5.76-.72a5.57,5.57,0,0,0,2.63,1.68c.52-.33,1.28-.21,1.92-.48a7.23,7.23,0,0,0,4.32-5.27c-.65-.41-.6-.61-1.68-.73a46.35,46.35,0,0,1-5,1,1.79,1.79,0,0,0-1.91-1.19c-1,1.51-3.25,1.27-5.76,1.19-2.21-1.48-3.53,1.27-5.27,1.68a2.64,2.64,0,0,1-.72-1.91c.19-.25.08-.07.24-.48H124c.17.13,0,.34.48.24v-.24c.6-.93.27-3.65.24-5a4.83,4.83,0,0,0-3.6-1c-.19.05-.64.75-1.2.48-1.68-.4-1.79-1.43-1.68-3.6h.24v-.24h.72c.06-2.77-2.33-4.17-3.59-6.23-.52-.84-.06-1.83-.48-2.88-.26-.63-1.15-1.57-1.44-2.15a11.68,11.68,0,0,1-.72-3.84l-.48-.24c-.35-1.13.37-2.14.48-2.64.25-1.18-1.52-4.81-1.92-5-.1,2-1.62,2.14-2.88,2.88.56,1.29,1.94,2.69,1.44,4.79-.27,1.15-.84,1.45-1,2.88a8.18,8.18,0,0,1,2.4,4.32,2.69,2.69,0,0,0-.72,1.67,3.59,3.59,0,0,1-1.2.24c.28,4.19,3.74,6.08,4.08,10.79-.77.84-.5,1.37-2.16,1.44-.26.18-.23.14-.72.24-.94-1.45-2.66-2.4-3.6-3.84-1.51-2.33-1.92-5-3.35-7.43-.61-1-1.82-2.08-2.4-3.11s.12-3.69-.48-5.52c-.24-.74-.85-2.23-1.2-3.6-.79-3.15.27-10,1-12l-.24-1.43c.15-.73,1-2.21,1.2-2.88L101,416.4l.48-.24.24-3.59a11.2,11.2,0,0,1,1-2.64l1.2-1-.48-2.64.24-6.47c-.17-.61-.78-1.49-1-2.16-.86-3.16.41-8.36,1-10.55,1.32-5.25,1.64-10.53,3.59-15.1.68-1.59.41-3.79,1.44-5a20.74,20.74,0,0,1,4.08-3.11c1.3-.94,2-2.13,4.32-2.16.82.84,1.37.92,1.43,2.63-1.27,1.8-2.09,4.36-3.35,6.24-1.4,2.08-3.55,3.67-4.56,6.23,0,0,1.22,3.14.72,4.32l-.72.48c-.18.31-.68,1.78-.72,1.91-.54,2,1.5,5.13,1.68,6.72h1a5,5,0,0,1,.48-1.92l-.24-2.64c.25-1,1.32-2.18,1.68-3.11.62-1.62.23-3.21,1-4.8,1.5-3.29,4.41-7.22,6.23-10.55,2.15-3.93,2.17-9.18,4.32-12.7,1-1.73,3.64-2.07,4.79-3.6s1.81-3.39,2.88-5c.35-.55.85-.34,1.44-.71.8-.88,1.59-1.77,2.39-2.64.8-.58,1.53-.66,2.4-1.2l.72-1c1.77-1.26,3.63-1.93,5.51-3.12a21.46,21.46,0,0,1,2.88-1.91c3.3-1.33,7.38-1.59,10.79-2.64l5.28-.48c.88-.32,2.81-.48,3.83-1,2.16-1,5.69-3.51,9.35-2.64,1.51.36,3.23.85,5,1.2a3.63,3.63,0,0,1,.71,2.64c-1.39.67-2.24,2.05-3.59,2.63l-10.31,1.2c-3.51,1.3-6.51,4.25-9.83,5.76l-2.4.24-3.59,3.83c-2.15,1.61-4.11,3.2-6.24,4.8l-1.92,2.16c-1.89,1.32-4.71,1.52-6.71,2.87-.65.44-1,1.28-1.44,1.92l-5.27,5c-2.26,3.71-2.63,9.85-4.56,13.18-.47.83-1.59,1.41-2.15,2.16a72.72,72.72,0,0,0-4.56,6.47c-1.31,2.22-1.74,7.1-2.4,9.83-.72,3,1.47,5,2.16,6.72.36.88.44,2.39.72,3.11l.48,7c2,5.08,2.68,10.63,4.07,16.06a4.56,4.56,0,0,1-.24,2.64l.48,6c-.14.7-1.09,1.62-1.43,2.16a14.28,14.28,0,0,0-2.16,7.67c.91.66,1.34,2.16,1.91,3.12h.49c.17-.59.57-.78.71-1.2.77-2.2,0-3.84,1-6,.6-1.39,2.08-2.81,2.64-4.07l.48-4.08c.22-.6.94-2.55.48-3.83-1.17-3.24-2.16-6.84-3.36-10.07-.55-1.5-.77-5.5-1.2-7-.07-2.87-.16-5.75-.23-8.63a17.51,17.51,0,0,1,.23-9.11c.84-2.75,3-5.11,4.8-6.95l1.92-1.68c1.63-2.62,2.67-5.61,5.27-7.19s7.6-2.75,9.11-5a25.88,25.88,0,0,0,2.4-5.75c-.57-.2-.39-.1-.72-.48-1.16.59-1.94.23-3.36.72-1.69.59-6.39,4.85-7.67,6.23h-2.39a8.29,8.29,0,0,1-.48-2.63c.7-.52.46-.93.95-1.68s1.63-1.4,2.16-2.16c1.29-1.86,2.41-4.81,4.32-6a35.77,35.77,0,0,1,4.55-2.64l3.84-.24c1.1-.44,2.33-1.78,3.36-2.4,1.71-1,3.51-1.33,5.27-2.4.61-.36,1.47-1.35,2.16-1.67l1.68-.24c.79-.39,1.81-1.36,2.63-1.68,1.92-.75,9.27-.49,11.27-.48a3.25,3.25,0,0,1,.72,2.4c-1.07.7-1.81,2-2.87,2.63s-2.47.73-3.12,1.92c-.93,1.7-.19,3.59-.72,5.76a29.22,29.22,0,0,0-1.2,4.55c.42.15.23,0,.48.24.42-.15.23,0,.48-.24,1.31-1.63,1.89-3.87,3.12-5.51,2.34-3.14,8.41-5.21,12-6.24.64-1.5,1.26-3.27,3.36-3.35a5.06,5.06,0,0,0,1,.48c.29,2.63-.83,3.89-1.68,5.75v1.2a23.67,23.67,0,0,1-2.16,5.27c-.79,1.21-2.74,1.89-3.59,2.88a29.73,29.73,0,0,0-1.44,2.88c-.58.9-1.82,1.74-2.4,2.63s-.41,1.82-1,2.64h-.48c-.48.71-.47,1.28-1,1.92-.22.3-1,.46-1.2.72-.83,1.23-.32,3.18-1,4.55a40.27,40.27,0,0,1-2.39,3.84c-1.14,1.92-1.39,4-2.88,5.51.64,2.32,1.55,5.4,2.4,7.68l.24,3.11c.61,2.59.8,6.13,1.68,8.39.69,1.8-.32,4.86.24,6.24s2.16,2.8,2.87,4.08c1.11,2,1.08,3.65,2.16,5.27.78,1.16,2.16,2.31,2.88,3.6s.56,2.44,1.2,3.83c1,2.27,2.41,4.94,3.35,7.44.71,1.86.69,5.94,1,7.19a3.16,3.16,0,0,0,1.92.48V450c.52-.78.24-1.81.24-3.36V436.54c-.09-.34-.63-.48-.48-1.2a4.31,4.31,0,0,1,3.84-2.87c1.1,1.81,1.11,4.86,1.92,6.95.41-.16.23-.05.47-.24a64.09,64.09,0,0,0,1.92-9.59,8,8,0,0,0-1-1.68c-.47-.31-1.43-.05-2.15-.24a2.49,2.49,0,0,1-.49-1.44c-.79-1.29.63-2.87,1-3.84.94-2.69,2-5.19,2.15-8.39-.56-.08-1.12-.15-1.68-.24-.34-1.12-.83-2.1-2.39-2.15-1,1.19-1.53,4-1.92,5.75v4.79a29.82,29.82,0,0,0-1.2,7.68,7.5,7.5,0,0,1-2.64.48,36.15,36.15,0,0,1-2.16-4.8c-.58-2.13.53-4.88-.24-6.71s-2-3.81-2.63-5.51l-.24-2.88c-.27-.66-1.19-2-1.44-2.64V402c-.3-1-1.16-2.06-1.44-3.12-.75-2.85,1.23-8,1.92-9.83l.48-6c1.3-3.13,5-4.58,6.71-7.44.47-.76,0-1.08.24-1.68.56-1.42,5.12-8.93,6.23-9.35a2.78,2.78,0,0,1,1.68-.24c.63.49.44.75,1.44,1,1.12-2.92.63-9,4.32-9.35,1-.55,1.81.47,2.63.72h5.28a2.57,2.57,0,0,1,.48,1.44c-.61.36-.76.36-1,1.2,1.75.83,4.61,1.87,4.79,4.32-.53.38-.5.39-.47.71a2.5,2.5,0,0,1,.47,1.44,35,35,0,0,0-2.63,2.88c2.42.72,2.31,3.56,4.31,3.84a4.55,4.55,0,0,0,2.16.24c.59.89,1.09,1.13,1.2,2.63l-1.44,1.2-3.84.24c-2.4,1-2.64,1.43-6.47,1.44-.55-.66-1.15-.48-1.92-1a12.58,12.58,0,0,1-5.75-8.63,4.08,4.08,0,0,1-1.44-.24c-.06.89-.56,1.39-.48,1.92a19.21,19.21,0,0,1,.72,2.16c.5.09.46.06.72.24,4,1.24,3.36,5.19,5.75,6.71,1.3.82,3,.67,3.84,1.92a2.79,2.79,0,0,1,.48,1.92c-2.25,2.22-3.3,5.65-4.8,8.63a30.69,30.69,0,0,0-1.68,2.87c-.3.91.07,3.64-.47,5.28-.37,1.1-1.18,3.49-1.68,5-.22.69.47,2.34.48,3.6,1.45,1,3.85,2.57,4.07,4.79.93,1.55-.19,4.72.24,6.72a33.14,33.14,0,0,0,2.4,6.71c1.11.1,1.05.36,2.16.48a37.65,37.65,0,0,0-1.68-8.87c-.21-.78-1-2.48-.72-3.36.52-1.67,2.29-3.87,2.64-5,.26-.88-.19-2.9,0-3.84.29-1.44-.53-1.87-.72-2.64-.8-3.26.59-12.7,1.68-14.38.46-.73,1.54-1.08,2.16-1.68a18,18,0,0,1,1.91,1,5.53,5.53,0,0,1,1,3.12c-2,1.37-.11,3.47,0,5.75-1.15.78-1.39,3.33-1,5,.9,3.52,3,5.68,3.84,9.36.63,2.74-.92,6.28,0,8.87.32.9,1.55,1.71,1.92,2.64.61,1.52.36,2.65,1,4.31,1.06,3,6.19,9.76,8.63,11.27s5.21,2.73,7,5c.77,1,1.8,3.19,2.88,3.84,2.24,1.36,4.71,1.2,4.79,4.79.4.74-.26,1,0,1.92.52,1.83,2,3.6,2.16,6a45.2,45.2,0,0,1,4.8,0,3.78,3.78,0,0,0-1-2.87c-1.14-1.09-3.24-1.8-3.84-3.36-1.11-2.9-.43-7.65-2.16-9.83s-5.91-2.12-6-6.23a5.06,5.06,0,0,0,.48-1A7.92,7.92,0,0,1,242,437c1.84,1.86,4.3,1.17,6.24,2.4,1.5.94,2.42,3.24,3.6,4.55.42-.15.23,0,.47-.24a1.57,1.57,0,0,0,.49-.47c-1.25-1.19-.93-3.6-1.68-5.28a11.58,11.58,0,0,0-5.28-5.51c-.92-.52-3.38-.34-4.07-.25-2.52.34-7.57-1.28-8.4-2.63-5.8-9.5-5.64-24.52-8.63-36-.44-1.71.2-3.86.24-5.28.08-2.67-.3-5.08.48-7.19v-4.08c.4-1.41,1.6-2.24,2.16-3.35l.24-2.88c.93-2.27,4.53-4.65,5.75-7,.11-.21,1-2.4,1-2.4.19-.73-1-5-1.43-5.28v.24c-.25,1.44-.48,2.88-.73,4.32a9.5,9.5,0,0,1-2.15,2.4H228.8c-.39.21-.52,1.21-1,1.43-1.75.92-4.61.33-6.71.25-.77-1.17-2.25-1.84-2.88-3.12-1.24-2.51-2.29-5.77-4.56-7.19-1.5-.95-4.88-.95-6.95-.24-.31.1-.19.61-1,.47-2-.34-3-2-4.79-2.39v-2.16a10,10,0,0,1,2.87-.24c3.39,2.11,10.64-2.56,13.67-.72,2.09.65,5.81,4.45,6.23,6.71a8.77,8.77,0,0,0,2.16-.24c0-3.42,1.71-3.59,2.88-5.51.68-1.13.55-3.14,1.44-4.08a8.68,8.68,0,0,1,3.11-1.92h1.2c.26-.12.39-.8.72-1,2.11-1,5.41.33,6.95,1a8.63,8.63,0,0,0,1,1.68c-.39,1-.85.54-1.43,1.2a20.65,20.65,0,0,0-1.2,2.4c-.17.27-.78.26-1,.48-1.06,1.33-1,3.31-1,5.75h.48c.18-2.61,5.57-5.77,7.91-6.47,2.68-.79,4.58,1.28,6.95.48s4.58-2.28,7.67-1.68a4.73,4.73,0,0,1,1,2.64,10.61,10.61,0,0,0-1.93,3.84c.27.21,0,0,.25.23,1.57-1,3.16-2.73,4.79-3.59a4.42,4.42,0,0,1,2.16-.48,51.6,51.6,0,0,1,5-2.4c1.43-.54,9-.05,10.31,0,1.1,1.42,2.85,2.5,4.08,3.84,1.84-.07,3.24-.91,4.55,0,1.52.51,4.77,4.17,5,6a16.55,16.55,0,0,0-1.44,1.68c-5.45.08-5.07-2.93-8.87-3.6a4.58,4.58,0,0,1-3.36,1.44c-.55-.75-3.22-1.87-4.55-1.92V356c1.13.21,1.12.81,1.92,1.2,2.84,1.39,5.55,2.3,5.51,6.48.18.25.15.22.24.71-.26.22,0,0-.24.24-4.26,0-2.3,1.34-4.08,2.16h-6.47a33.54,33.54,0,0,0-5.75-2.87h-.24c-2.2-.53-4.23.16-5.76-.72h-.24c-.37.07-.79.76-1.68.48s-1.53-.29-2.63-.72c-.73-.29-1.65-1.22-2.4-1.44s-1.11.19-1.44.24a46.26,46.26,0,0,1-6.23,0l.24,1.68a15.33,15.33,0,0,1-3.36,1.44v.71a6.08,6.08,0,0,0-2.4,2.88c1.09,1.07,1.09,3.5,1.92,4.8,1.25,1.94,3.09,3.12,3.84,5.75.91,3.21.31,6.23,2.64,7.91,4.09,3,7.47-1.35,10.06-2.63l1.68-.25a15.47,15.47,0,0,1,1.68-.95h1.68c.56-.24,1.5-1.22,2.16-1.44.92-.32,1.35.37,1.68.48h2.39c.51.16,1.26,1.05,1.68,1.2,1.83.62,3.74-1.3,4.8-1.68s1.92,0,3.35,0c-.91-4.15-7.85.41-10.31-.24-.71-.19-1.52-1-2.15-1.2l-8.15.24c-1.63.39-4.28,2-6.48,1a11.1,11.1,0,0,1-4.79-4.8c-.41-1-.18-1.82-.72-2.64-1.6-2.37-3.61-2.64-3.6-6.95a11,11,0,0,0,2.64-3.59c2.06-.07,3.22-.45,5.27-.48.79,1,2.21,1.46,2.88,2.63,1,1.81.53,3.95,2.64,4.8v.24h.23c.19-1,.13-.87,1.2-1,1.83,1.27,4.28,3.16,6.72,3.6.81-.87,2.19-.12,3.59-.48.82-.21,1.14-.9,1.68-1.2,1.93-1.08,4.13-.53,6,0,.77-1.12,2.13-1.48,2.63-2.88a2.63,2.63,0,0,1-.24-1.44c2.11-1.73.93-2.49,5.28-2.39.95-.6,3.2.75,3.36.47,1.57-.77,3.71-2.41,6.23-1.43.6.23,1.41,1,2.16,1.19,1,.21,2.53-.62,3.83-.23a5,5,0,0,0,1.2.47v-.47a7.83,7.83,0,0,1-2.4-3.12l-.24-2.64c-.86-1.66-2.9-3-3.35-5-1.32-.25-1.47-1.24-2.4-1.68l-2.4-.24a8.31,8.31,0,0,1-1.2-.48v-.48l-1.91-.24c-2.09-1-3.64-3.49-5.76-4.56a28.47,28.47,0,0,0-5.27-1.43H277a53,53,0,0,0-6-1.92c-1.05-.19-2.23.55-3.36,0-.83-.41-1.42-1.65-2.16-2.16s-1.59-.83-2.4-1.44l-1.67-1.92c-.71-.37-1.32-.1-1.92-.48a19.82,19.82,0,0,0-2.16-1.67c-1.14-.47-2.64.25-3.6-.25-2.26-1.16-1.44-1.95-4.55-1.43H247c-1.06.41-1.75,1.41-2.88,1.91.12,3-1.15,5.27-3.59,5.52-1.88,1.17-5.28-1.3-6.72-1.68-1.12-.3-1.89.76-2.63,1a17,17,0,0,1-6,0c-.35-.54-1.17-.94-1.44-1.44-.55-1-.35-1.95-.95-2.88-1.18-1.8-3.3-3.28-4.56-5-.88-1.23-1.25-2.68-2.16-3.84-2.09-2.65-5.48-1.7-6.71-5.75,3.81-3.3.73-10.44-1-13.91a7,7,0,0,1-.48-5,23.58,23.58,0,0,1-1.68-4.08c-.27-1.11.36-2.13-.24-3.35s-1.76-2.57-2.39-3.84c-.28-.55-.11-1.39-.48-1.92-3-4.24-6.22-5.94-5.76-13.19a16,16,0,0,1,3.84-1.67c.57-1.37.59-3.15,1.92-4.08a3.93,3.93,0,0,1,2.39-.72c.58.57,1.63.85,1.92,1.68v4.32c1.89,5.1,4.67,10.73,11.51,10.78v-.95a7.68,7.68,0,0,1,2.4-.24c.5.52,1,.52,1.68.95,1.44,1,2.45,3.61,4.07,4.32h1.68c-.16-2.2-.93-3.31-1-6,1.27-.88,1.25-1.69,3.6-1.68.88.92,3.26.2,4.55.72.84.33,1.64,1.49,2.4,1.92a12.75,12.75,0,0,0,8.15,1.67c.11-2.19-1.31-1.93-1.44-4.31a5.6,5.6,0,0,1,2.88-.48,11.27,11.27,0,0,0,5.27,1.2l.48-.72a12.46,12.46,0,0,1-3.35-7.19h.24c.88-2.5,4-3.18,5.27-5.28,1.54-2.52,1.2-6.76,2.88-9.11,2.37-3.31,6.92-3.62,7-9.35.19-.24.09-.07.24-.48a13.62,13.62,0,0,1,5.52-2.4c2.52-.57,4.8.77,7.19.24,2.58-.56,7,.87,8.39.24a13,13,0,0,0,.48-1.91l2.64-.24a15,15,0,0,0,1.91,1.91c4,.17,5.41-2.18,8.15-3.59,2-1,4.4-1,6-2.4l.24-1c.71-1,5.39-6.12,6.23-6.47h2.64c1.2,1.37,4.38.09,6.23,1,3.34,1.56,6.46,4.14,9.83,5.51l3.84.48c2.46,1,5.36,3.12,6.47,5.51.82,1.77.88,4.22,2.16,5.52,1.59,1.61,3.81,2.57,5,4.55.8,1.32.6,2.5,1.19,4.08a2.78,2.78,0,0,1,.48,2.16,14.4,14.4,0,0,1-1,2.64l-1.43,1.19v4.08c-.63,1.53-3.14,2-3.84,3.36v6a50.28,50.28,0,0,0,1,8.87h.48c.31.66-.08,1.39.24,1.92.43.71,1.51,1.43,1.92,2.16.66,1.16.32,2.25,1,3.59.34.73,1.5,1.49,1.91,2.16,1.87,3,3.69,6.81,8.16,7.19.47-.63.74-.43,1-1.43-2.26-1.2-3.44-2.42-3.36-6,.74-.5.82-1,1.92-1.2,1.07.76,1.55.3,2.63,1v.24a50.43,50.43,0,0,1,3.6,4.08l.48,1.43c.38.35,2.25.91,2.88,1.44.42-.15.23,0,.48-.24s.27-.3.47-.47c-.81-1.28-1.43-1.84-1.43-4.08.5-.34,1-1.21,1.43-1.44l2.16-.24c1.34-.55,2.73-2.87,5.28-1.92,1.75.66,3,2.16,5.27,2.4a2.5,2.5,0,0,0,.48-1.44,7.15,7.15,0,0,1-1.92-4.79,1.69,1.69,0,0,0,.48-1c.92-.54,1.9-1.65,2.88-1.92,1.87-.53,2.47.76,3.36,1.2a37,37,0,0,1,5.51,3.59c.74.56,1,1.48,1.92,1.92a4.85,4.85,0,0,1,1-1c-.62-2-4.38-6.41-3.36-9.35a20.57,20.57,0,0,0,1.2-2.87c.2-1.31-.32-3.72,0-4.56,1-2.73,4.1-3.58,2.88-8.39-1.07-4.18-3.41-8.37-5-12-.75-1.68-.55-3.16-1.44-4.55-1-1.63-3-3.31-3.59-5.28l.24-5.51h-.48c-.26-.18-.23-.15-.72-.24a3,3,0,0,1-3.12,1.91c-.42-.59-1.29-.85-1.68-1.43-.79-1.19,0-1.95-1.92-2.16-.32,8.47,3.44,6.5,6.72,11,2,2.77,2.44,6.12,3.83,9.59.59,1.45,2.29,2.79,2.88,4.07.73,1.61.57,5.74.72,7.68-1.37,1-2.09,2.9-3.6,3.83-1,.64-1.55-.23-1.91,1.2,1.51.49,1.86,1.9,2.87,2.88.08,1.52.63,4.42-.24,5.75-.39,1.35-1.33,1.3-3.11,1.2a10,10,0,0,1-1.2-5c-.95-.52-2.35-1-2.88-1.92v-1c-.22-.33-.62,0-1-.24-.54-.38-.33-.87-.72-1.44s-1.14-.33-1.44-.72c-.85-1.12-.94-2.11-2.39-2.64-.22.76-.45.79-.72,1.44a3.27,3.27,0,0,1,.24,1.68c.87.6,1.12,1.78,1.91,2.4,2.28,1.76,3.67,1.71,3.6,6a3.61,3.61,0,0,1-2.88,1c-1.13-1.78-2.68-3.56-3.83-5.27a12,12,0,0,1-2.88.24v.48a6.61,6.61,0,0,1,3.12,4.55,5,5,0,0,1-1.68.24c-.66-1.14-1.1-1.87-2.64-2.16h-1.68c-1.43-.6-3.54-3.26-4.07-4.79l-.24-3.6a18,18,0,0,1-.72-1.68v-3.59c-.33-1.09-2.31-2.24-1.68-4.08.22-.64,1.21-1.42,1.44-1.92,1.85-3.91-1.36-7.29-2.4-9.59l-.24-2.87h-.48c-1.68-2.32-3.38-4.1-5-6.48s-5-3.06-5-7.43c2.05-1.61,1.46-4,1-5.51a9.88,9.88,0,0,1,.48-5.28c-1.2-2.32-2.23-5.06-3.59-7.19h-.25c-.32,1-.81,1.1-.95,2.4-.35,1.09.9,3.05,1.2,4.31.5,2.16-.83,5.18-1.44,6.71-1,.61-3.05,1.26-3.84,2.16-.86,1.41-.18,2.76-1.92,3.36a3.16,3.16,0,0,1-1.68.24c-1.79-1.63-4.53-1.84-4.79-5a15.75,15.75,0,0,0,2.64-5c.21-.87-1.18-4.6-1.44-5.28l-.48-4.07c-.38-1-1.08-3-1.44-4.08-.67-1.91,1.1-2.77.48-4.55a40.25,40.25,0,0,1-1.68-4.8c-.51-2.39.76-5.45-.24-7.67-1.14-2.53-2.22-6-3.84-8.15s-4.46-3.15-6-5.27a20,20,0,0,1-1.68-4.08v-1.2c-.23-.44-1.1-.73-1.43-1.2l-1.92.72c-2.47,7.29.08,10.19,3.11,15.82.59,1.09.54,2.12,1.2,3.12.79,1.19,1.87.89,3.12,1.68a11.9,11.9,0,0,1,3.59,4.79c.9,2.23.7,6.67.25,8.64.5,1.38,1.48,3.16,1.91,4.55s.35,2.61.72,3.6c.6,1.61-.13,6.94-.48,7.91-.47,1.31.46,2.2.48,3.6-1.08.86-1.15,1.81-3.11,1.91-1.64-1.43-3.31-1.69-3.36-4.79.7-.63.23-5.73-.24-6.95-.3-.8-1.32-1.79-1.68-2.64l-.48-3.6c-1.24-3.2-2.48-7.13-3.6-10.31-.71-2-.58-4.75-3.35-4.79-.28.19-.4.18-1,.24-.48.63-.74.43-1,1.44,2.44,1.29,1.5,3.39,2.16,6.47.73,3.42,3.27,11.84-2.4,11.75a42.9,42.9,0,0,1-2.16-3.84c-.9-2.56.56-7.67-2.63-7.91a2.05,2.05,0,0,0-1.2-.24,5.14,5.14,0,0,1-1.2-4.08c.58-1.06-1.21-10.27,0-12.22.39-1.28,1.13-1.51,2.87-1.44.38.3.13.15.49,0,.87-1,3.71-7.39,2.39-9.59-.67-1.13-2.23-2.26-2.88-3.36-.74-1.28-.36-2.2-.95-3.84-.51-1.38-2.19-2.6-2.88-3.83-.34-.6-.12-1.15-.48-1.68l-1.44-1.2v-.72c-1-1.39-3.2-2-4.31-3.36-1.48-1.76-4.19-5-6.72-5.51v1c.86.58.85,1.07,1.44,1.92,1.19,1.71,3.93,2.56,4.8,4.55.77,1.79-.3,2.59.48,4.08l1.91,1.68c1.45,1.45,2.67,3.06,4.08,4.55l1.44,1.2v2.88c-.56.39-.56.35-.72,1.2,1.74,1.32,2.43,4.11,2.4,7.19-.95.65-.93,1.16-2.64,1.2-.5-.56-1.66-1.19-1.92-1.92s.25-2.85-.24-4.07c-.2-.52-.92-.79-1.2-1.2a32.49,32.49,0,0,1-1.68-3.84c-.61-1.33-.38-2.72-1.19-3.83l-.72-.25v-.71c-1-1.65-2.56-2.75-3.84-4.08l-.24-.72c-.74-.62-1.58-.67-2.16-1.44-1.35-1.79-1.78-5.42-4.79-5.51a3.66,3.66,0,0,0-.48.95c.91.81.93,2.13,1.68,3.12,1.61,2.16,4,5,4.79,7.68.92,3,.71,6.56,1.68,9.35.64,1.85-.41,4.34-.72,5.75v4.79c-.09,4.48-.26,8.69,1.2,12.23.78,1.91,2.54,3.18,3.36,5,.68,1.55.4,2.95,1.2,4.31.5.86,2.06,1.55,2.87,2.16,1.05.8,6.63,7,7,8.15.41,1.43-.8,2.33-1.19,3.12-1,.13-1.56.74-2.4.24-1.45-.47-8.42-5.4-8.87-6.72a3.51,3.51,0,0,1-.48-2.39c-1.93-.25-5-2.11-5.76-3.6-.28-.54.15-1.06-.24-1.44-1.27-1.23-3.6-1.57-4.55-3.11-.53-.86.22-2.17,0-2.88,0-.1-.78-1.18-1-1.44-1.64-2.38-4.6-2.52-4.56-6.71a2.15,2.15,0,0,0,.72-1.44c-2.44-1.29-2.17-5-2.87-8.15-.34-1.53.25-4,0-5.52-1-5.68.42-12.52-1-17.26v-2.4c-.89-3.19-3.78-4.08-5.28-6.47a37.82,37.82,0,0,0-8.39-8.87l-1.68-1.92c-2.39-1.53-4.91-2.26-6.95-4.07-1.48-1.32-4.11-3.28-5-5s-1.22-3.32-3.12-3.84c-.26-.18-.23-.14-.72-.24a9,9,0,0,0-.24,2.64c.91.94.9,2.75,1.68,3.84l5.27,5a11.65,11.65,0,0,0,2.88,3.6,54.88,54.88,0,0,1,5.75,4.79l1.2,1.68c2.62,2.21,5.62,3.71,6.72,7.44,1.24,4.23-1.08,8.93,0,13.42.48,2,1.69,4.14,2.15,6,.84,3.33-.9,6.27-1.43,8.63-.76,3.36,1.14,6.38,1.91,8.63.34,1-.3,2.21-.24,2.87a37.4,37.4,0,0,0,1.44,6c1,2.08,3.6,2.64,5.52,3.84.79.49.91,1.32,1.43,2.15s1.52,1.08,2.4,1.68c.61.41.91,1.43,1.44,1.92,1.38,1.26,3.39,1.36,5,2.4,2,1.25,4.16,3,6.23,4.31l1.2.24c1.29.75,2.63,2.23,4.07,2.88.93.41,1.8.21,2.64.72a3.37,3.37,0,0,1,1.2,2.16c-1.27,1-2,2.91-3.36,3.83-1.22.82-2.72.68-4.07,1.44-.8.45-1.1,1.63-2.16,1.92-2.65.71-3.91-3-5.27-3.84-1.87-1.22-3.91-1.7-5.76-2.88-1.27-.81-2.26-2.4-3.6-3.11-2.05-1.11-4.64-1.31-6-3.6-.55-.93-.43-1.69-1-2.63-.69-1.23-2.11-2.37-2.64-3.84.09-.48.16-1,.24-1.44-.24-.74-2.67-2.46-3.11-3.36-1.13-2.29.36-4.39-2.88-4.79-.24.19-.07.08-.48.24v1.44s1.57,3.23,1.2,5c-.91,4.42,2.58,6.88,4.08,9.59.7,1.27.32,2.9.95,3.84,1,1.53,2.59,1.67,2.64,4.31-1.25.84-2.43,1-4.79,1-.89-.55-2.4-.31-3.36-.72a26.32,26.32,0,0,1-5.76-4.79c-.7-1.17-.55-2.49-1.19-3.84s-1.85-2.4-2.4-3.59c-1.39-3-2.4-9.66-2.4-12.95,0-1.08-1.21-3.06-.72-5a18.8,18.8,0,0,1,1-1.91l.24-6.24c1-3.52,6.23-5.41,5-10.79-1.14-5.09-2.3-9.92-4.8-13.66-1.66-2.48-5.92-5.24-6-8.88.65-.37.6-.21.72-1.19-2.78-1.92-4.34-5.81-6-8.87-.57-1.06-2-2.17-2.39-3.36-.63-1.81,1.36-5-.72-6.23-.52-.3-.67-.1-1.44,0-.05,1.57-1.23,4.93-1,5.75.73,2.24,2.26,4.24,2.88,6,.75,2.13.57,4.62,1.67,6.47.73,1.21,2.7,1.82,3.36,3.11v1.2c1.07,2.47,2.37,5.3,3.6,7.92,1.63,3.48,5,5.62,5,10.78-1.47,1.8-2,4-3.35,6-.42.63-1.38.91-1.92,1.44-1.59-.4-2.1-1.72-3.36-2.4s-2.47-.68-3.6-1.44c-2.12-1.42-6.09-8.77-7.19-11.51V180c-.31-1.25-.88-2.68-1.2-3.84v-1.68c-.46-1.07-2.11-2-2.63-3.12l-.48-3.83a39.65,39.65,0,0,0-1.2-3.84c-.28-.53-1.21-1.58-1.44-2.16-.35-.85.23-2.36.24-2.87,0-1.39-1.43-5.11-1.92-6.72-.14-.48.21-2.67,0-3.35s1.74-1.28,1.2-2.88c-.32-.92-1.08-2.89-1.44-3.84-.71-1.88.72-4,.48-4.79-.37-1.17-2.19-3.07-2.64-4.32v-3.59c-.31-1.22-1.3-2.47-1.67-3.6v-2.4c-1-3-7.6-6.3-10.55-7.67-2.57-1.19-4.91-3.51-7.2-5-2.68-1.8-6.71-2.24-9.59-3.12-.93-.29-1.69-1.39-2.63-1.68l-3.84.24c-1.07-.37-1.23-1.6-2.4-1.92-.64.42-1.76.31-2.4.72-1.38.9-2.3,2.26-4.31,2.64v1a4.5,4.5,0,0,0-2.4,3.35,5.57,5.57,0,0,0,1.92.72c1.85-1.76,5.8-1.61,8.63-.72,3.79,1.21,7.37,3.44,10.79,4.8,1.36.54,4,.29,5.27,1,1.46.8,3.8,3.32,5,4.56,1.48,1.48,3.65,3.31,4.55,5.27.09.72.16,1.44.24,2.16.06.14.65.52.72.71.47,1.29.58,2.81,1,3.84.44,1.18,0,5.46.48,6.24l.72.24c.54.92.24,1.57.72,2.63s1.5,2.49,1.92,3.6l.24,4.07c.27.91,1.33,1.83,1.68,2.64l.48,4.56a66.71,66.71,0,0,1,1.91,6.47c.42,1.7-.63,4.27-.24,5.51.69,2.17,2.85,4.49,3.84,6.48.63,1.26.45,2.25,1,3.6.41,1.09,1.46,2.68,1.92,3.83l.24,2.64c.36,1,1.26,2.9,1.67,4.07V193c.56,2.12,2.12,4,2.88,5.76l.24,2.39c.22.68,1,1.31,1.2,1.92v1c2.26,4.83,7.1,8.81,7.43,15.34-.83.65-.74,1-2.39,1-1.26-1.41-2.86-1.32-4.8-2.15a13.7,13.7,0,0,1-6.23-5.76h-.24c-.13.75-.88,1.38-.48,2.4s2.1,3.57,3.12,4.07c.87.44,1.62,0,2.39.48a7.52,7.52,0,0,1,3.36,5,7.27,7.27,0,0,0-.72,1.68l-1.44.48a11.38,11.38,0,0,0,.72,1.44,14.16,14.16,0,0,0,1.92.95H241c.46.21.51.72,1.19,1,.21-1.09.44-1,1.68-1,.93.93,1.65,1,1.68,2.88a2.65,2.65,0,0,1-1.92.72c-.82.43-1.56-.44-3.35.24a4.6,4.6,0,0,1,.24,1.44c1.23.81,1.47,2,2.39,3.12,1.39,1.66,4.31,2.31,4.56,5-.65.41-.6.61-1.68.72-1.49-1.29-3.43-1.66-5.27-2.64-.74-.39-1.54-1.37-2.4-1.68-4.53-1.6-9.45.54-9.59-5.75-2-.8-2.66-2.91-5.51-3.12,0,.56,0,.68.23,1,.94,2.12,3,2.76,3.36,5.52-.89.65-1,1.13-2.64,1.2-1.83-2.73-6.4-3.8-9.35-5.52-1-.55-1.75-1.78-2.63-2.4-2.35-1.63-6.45-3.88-7.92-6.23-.56-.91-1.26-1.83-1.67-2.64L202,218.6c-.93-1.68-1.89-1.49-1.92-4.55h-1c-.47,2.95,0,4,1,6.47a6.13,6.13,0,0,1,0,2.64c0,.08,1.23,2.76,1.44,3.12,1.53,2.7,4.68,4.67,7.19,6.47,2.21,1.59,4.44,4.35,6.47,6.23v2.16c-1.48,1.06-2.71,3-5,3.12-.08,1.88-1.16,4.72-2.64,5.27-1.32,1-2.78.4-3.83,1-.25.4-.48.8-.72,1.2h-1.2l-.24.72c-.51.43-1.45,0-2.4,0a5.58,5.58,0,0,0-.48,2.88c-.2.4-.06.62,0,1.44a1.38,1.38,0,0,1,.48.48h.24a3.67,3.67,0,0,1,3.6-3.12c1.44,1.47,4.28-1.36,6.71-.48.83.3,1,.89,2.4,1,.1-.68,2.69-6,3.11-6.24h1.68c.76,1,1.74,1.19,1.92,2.88a2,2,0,0,1,0,1.92c-.67,2-6.9,7.89-9.59,7.91-1.47.91-4.39-.51-5.51,0a4.31,4.31,0,0,0-.48,1c-1.26.09-1.3.2-2.16-.24-.53,2.85-3.47,2.54-5,4.07-.63.63-.07,2-1,2.4h-2.15l-1-1.91c-.3.19-1.47.55-1.68.71-.48.39-.15,1.09-.48,1.68a5.83,5.83,0,0,1-5,2.88c-1.35-2.91-4-4.14-6.71-5.76l-1.2-1.43c-1.51-.79-3.24-1.51-4.07-2.88-1.61-2.64-1.17-7.35-1.92-10.79v-2.88c-1.6-4.51-2.53-9.67-4.32-13.9-.63-1.49-.44-2.75-1.2-4.08-.39-.68-1.48-1.19-1.91-1.91-.84-1.41-.77-3.25-1.68-4.56-.56-.81-1.86-1.07-2.64-1.68-2.29-1.79-1.39-4.81-5.75-4.79l-2.64-2.4c-1.88-2.69-3.15-5.5-5-8.15-2.74-3.85-6.18-7.69-8.63-11.75-.62-1-.58-2.06-1.2-3.12-1.18-2-3.52-3.76-4.79-5.75-.65-1-.6-2-1.2-3.12s-2.19-2-2.87-3.12c-1.66-2.63-3.51-3.72-6.24-5.27-1.73-1-2.7-3-5.27-3.12a5.76,5.76,0,0,0-.24,1.92c1.42,1,2.16,2.58,3.11,4.08.56.88,2.08,1,2.64,1.92a159.16,159.16,0,0,1,9.83,18.46c1.5,3.19,2,8.27,4.08,10.79,1,1.21,3.27,1.9,4.31,3.35,1.49,2.07,1.85,4.91,3.36,6.95.92,1.25,2.58,1.69,3.83,2.64.27.21,2,2.88,2.4,3.36l4.56,4.31c.71,1.12,0,2.18.24,3.36.36,1.77,1.56,3.93,1.68,6.24-.53.39-.49.67-1.2,1a2.05,2.05,0,0,1-1.2.24c-4.88-5-10.17-4.46-15.35-7.67-2.22-1.38-2.93-4.69-4.31-6.95-.89-1.45-2.9-2.42-3.84-3.84-2.39-3.61-5.16-6.57-7.19-10.55-.49.12-.7.62-1.2.48s-3.2-5.2-3.6-6c-1-.11-1.17-.45-1.67-.24a3.07,3.07,0,0,0-.24,1.68c.07.07,2.15,3.35,2.15,3.35,1,2.37-1,3.73,0,5.76a33.47,33.47,0,0,0,3.12,4.31c1.21,1.71,1.47,3.85,2.64,5.52,2,2.82,6.79,7.23,9.59,9.35l3.83,4.07c1.39.82,2.67,1.13,4.08,1.92.3.17.58.8,1,1,.9.38,1.46,0,2.4.48s1.38,1.68,2.15,2.16c1.05.64,2,.59,3.12,1.2s1.73,2.18,2.88,2.63l1.92.24c1.33.68,2.93,2.58,4.55,3.6,1.45.91,2.67,2.82,3.6,4.32.66,1.07,2.13,1.86,2.87,2.87.42.56.32,1.07.72,1.68l3.84,3.12c1.74,1.14,5.07.68,6.71,1.92.32.24,0,.6.24.95a14.82,14.82,0,0,0,2.88,2.88h.72c.65.4,1.25,1.58,1.92,1.92h1.2c.24.32.47.64.72,1h1.19l1,1.68c.47.33,1,.16,1.44.48a11.33,11.33,0,0,1,2.16,2.16v1.43c.54,1.16,2.23,1.84,2.88,2.88v.72l1.68,1.44c1.77,2.35,4.24,4.7,5.51,7.43.93,2-.45,5.28.48,7.43.6,1.4,1.78,3,2.4,4.32.89,1.94,1.18,9.26,1.19,12.94a4.21,4.21,0,0,0-1.91,3.36c2,1.59,2.44,5.29,4.55,6.71.94.64,1.93.18,3.12.72,2.36,1.07,3.69,3.85,5,6,1.2,1.92,3.52,2.84,3.84,5.75a26.42,26.42,0,0,0-1.92,2.16c-3.75.06-7.54.17-10.31-1-.88-.36-2.11-1.49-3.12-1.92-2.1-.9-3.54-.19-5.51-1-1.14-.44-1.59-2-2.64-2.4-1.93-.79-4.31-.48-6-1.43s-.32-1.12-1-2.16a26.82,26.82,0,0,0-4.32-2.88c-1.73-.84-4-.78-6-1.2s-3.4.88-4.79,0c-1.05-.31-1.41-.78-1.44-2.15.73-.65.34-1.46.24-2.64.8-.54.76-.89,2.16-1,.74-.39,3.94,0,5.51,0l5.28.24a9.55,9.55,0,0,1,3.59-.24c1.68.44,3.45,1.6,5.28,1.92v-.48c-1.25-.43-1.85-1.76-2.88-2.4l-1.44-.24c-.55-.26-1.4-1.17-1.92-1.44l-5.27-.48a15.87,15.87,0,0,1-3.12-1.43l-.72-1c-1.6-.84-3.61-.66-5.27-1.44-2.79-1.31-5.58-4.42-8.39-5.52l-3.84-.48a33.44,33.44,0,0,0-5-1.68c-2.51-.57-5,.69-7.43,0-1.38-.38-3.06-1.46-4.31-1.91l-3.36-.24c-2.5-.89-5.95-1.51-8.39-2.4l-3.36-.24c-2.69-.65-7.18-1.22-9.35-1.92h-3.84c-1.69-.36-4.62-1.37-6.71-.72-1.8.57-3.26,2.14-5,2.64h-3.84l-.72,1c-1.27.83-2.6,1.06-3.83,1.92l-.48.95a29.5,29.5,0,0,0-2.64,2.16l-.24.72c-2.13,1.35-5.67-.11-6.71,2.64-.87,1.06.25,2.42-.48,4.07-1.15,2.61-6.11,3-6.24,6,1,.16,1.58,1.14,2.88.72,1-.32,2.7-1.6,4.56-1s3.31,1.84,5.27,1.92c.71-1,2.26-1.54,3.12-2.4,1.92-1.93,3.11-5.86,6.71-6v-1.68c1.2-.88,1.85-2,3.6-2.4,3.42-.89,7.66,1.91,9.59,1.2.75-.28,1.64-1.18,2.63-1.44,2.22-.57,4.26.83,5.76.72,1.67-.12,4-1.35,6.47-.72,1.22.31,2.92.91,4.08,1.2h1.92c1.83.54,4,1.72,5.27,2.16,1.83.62,4.29-.06,6,.24a22.31,22.31,0,0,1,2.63,1.2,18.78,18.78,0,0,1,2.64.48c.88.34,2.31,1.3,3.12,1.67l1.91.24a17,17,0,0,1,2.88,1.68c1.71,1.26,2.74,3.65,4.56,4.8,2,1.29,3.58-.41,3.59,3.11-1.56.89-5.79,1.81-8.15,1-.92-.33-2-1.34-2.88-1.68h-1.2a26.26,26.26,0,0,1-3.59-1.67,16.2,16.2,0,0,1-2.4-.48c-2.75-1.3-5.61-3.68-8.63-4.8-3.56-1.31-5.5,1.09-8.63,1.92a15.93,15.93,0,0,1-7.19-.24c-2-.48-4.28.56-5.52,1H114.2c-2.16.52-4.43,1.26-5.76,2.64h.24c2.6,3.41,9.56,0,13.19.71,1.8.36,3.18-.94,4.08.72.19.29.18.41.23,1a2.13,2.13,0,0,0-.71.72,3.91,3.91,0,0,0-1-.24v.72a15,15,0,0,0,4.55,2.16c2,.46,3.49-.2,4.8.72.59.56.71.94.72,2.16-2.2,1.34-4.53,2.39-6.72,3.83-1.55,1-2.81,3.38-4.79,3.84v.72c-1.54,1-2.36,3-3.84,4.08s-3.15,1.87-4.55,3.11c-1.19,1.05-2,2.74-3.36,3.6-2.4,1.5-5,1-6.47,3.59-1.18,2-1.37,4-2.4,6.24a44.06,44.06,0,0,0-2.4,5.51l.24,1c-.23.81-.94,2.85-1.2,3.6-.08.25.43.44.24,1-.58,1.65-1.51,3.83-1.92,5.51s1.12,4.92,1.44,6.23c.67,2.71-1.48,5.63-1,7.44.21.71,1.22,1.9,1.44,2.63l-.24,2.4c1.32,3.93.67,11.08-.24,13.91l-.24,2.63c-.17.57-.79,1.36-1,1.92-.43,1.52.38,3.56-.71,4.32h-2.4c-.07-.61-.44-.76-.48-1-.2-1,1.19-1.45-.24-3.12-.55,1-1.3,1.23-2.88,1.2a4.31,4.31,0,0,0-1-.48c-1.21-1.91-2.17-2.9-2.16-6.23.93-1,1.08-2.22,2.88-2.4a20.24,20.24,0,0,1,1.92,5c1.1.15,1,.32,1.92.24v-5c-.71-.67-1.84-4-2.4-5h-.48l-.24.48a9.56,9.56,0,0,0-.48,2.39,6,6,0,0,1-1.92.24c-.53-.8-.88-.76-1-2.16-.54-.88-1.71-9.52-1-11.74.25-.77,1-3.34.47-4.8-1.2-3.39-3.22-6.38-4.31-9.59-.71-2.09-.45-4-1.2-5.75s-2.71-5.23-1.68-8.15c.67-1.91,2.25-2.92,2.4-5.28-1-.57-.78-2.75-.72-4.31A18,18,0,0,0,84,352.15c2.49-2.5,5.57-4.82,6.71-8.63h-.24v-.24L89,343c-.44.58-1.24.86-1.68,1.44a42.69,42.69,0,0,1-3.83,5c-1.05,1-2.57,1.85-3.36,3.12s-.3,2.67-1,4.07c-.4.87-1.6,1.85-1.91,2.88-.56,1.8-.17,4-.49,5s-1.81,6.24-1.43,7.2c.55,1.4,1.71,3.7,2.16,5.27v10.55a5.6,5.6,0,0,1-2.88.48c-.86-3.34-3.78-4-5-6.71-.16-1-.32-1.92-.47-2.88-.73-1.58-1.82-3.48-2.4-5v-4.56c-1.19-5.27-.93-9.75-1-16.3-1.29-.66-2.81-1.29-3.6-2.4l-.72-2.16H61a11.7,11.7,0,0,1-1.2-1.92c-.79-2.07.37-3.69.48-5.27H60v-.24c-1.08.69-1.49.63-3.11.48-.49-.62-1.57-1.24-1.92-1.92s-1.65-7.1-1.2-8.39c.36-1,1.71-1.56,2.16-2.4.55-1,.1-1.82.48-3.11s1.44-2,1.91-2.88c.76-1.47.46-2.91,1.2-4.32.54-1,1.92-1.57,2.64-2.4,1-1.15.74-2.79,1.44-4.31s1.92-3.22,2.64-4.56.57-2.92,1.2-4.55c1-2.52,6.53-10,8.63-11.51a28.56,28.56,0,0,1,5-2.16l3.36-.24c1.16-.5,2-2.17,3.35-2.63s1.8,1,3.36.47c.2-.06.76-.65,1-.71h4.8c.67-.18,1.55-.79,2.15-1l4.08-.24a9.28,9.28,0,0,0,2.4-1.44c.27-.35.14-.93.48-1.2,1.22-1,6.39-2.58,8.15-2.88s4.24,1.2,5.51,1.68c2.13.81,3.78-.72,6,0,.28.1.08.52.71.48,1.17-.06,3.29-.54,4.56,0s2.85,1.85,4.08,2.4c2,.9,5.64.52,7.67,1.44.56.25,1.4,1.16,1.92,1.43,1.33.72,2.58.67,3.83,1.44.29.18.57.86,1,1,.64.17,2.09-.5,3.12-.24a56.73,56.73,0,0,1,7.67,2.4,38.51,38.51,0,0,1,6,3.6c1.21.9,1.93,2.73,3.12,3.59.81.59,1.78.06,2.88.48s2.38,1.78,3.59,2.16l1.92-.24a26.57,26.57,0,0,1,4.32,1.44c2.43,1.21,3.4,4.89,6.71,5,.15-.42.05-.23.24-.47-1.26-4-4.94-6.11-8.63-7.68-.87-.37-2.89-.46-4.08-1.19-3-1.85-7.37-7.52-10.31-10.56-1.73-1.79-3.81-6.1-6.95-6.23-2.19,1.58-6.48,0-8.87-1.2-6.7-3.26-13.33-6.7-21.58-8.63l-6.47-.24c-.93.29-2.23,1.61-4.08,1-3.17-1.11-3.49,0-6.71,0-3.48,0-5.53-.8-8.63.24-2.66.89-4.38,3.51-7.19,4.31-2.38.68-3.72-1.07-5.76-.23-1.33.54-2.11,2.46-3.35,3.11s-2.81.06-4.56.48A26.46,26.46,0,0,0,79,280.7l-3.11.24c-1,.36-2,1.28-2.88,1.68l-1.2.24c-.94.61-1.63,2.09-2.63,2.64h-1c-.75.41-1.76,1.52-2.63,1.91h-1.2c-1.38.72-2.17,4.14-3.84,5-1.23.66-4.78,1.78-5.27,2.88a23.63,23.63,0,0,0-2.16,5l-.48,4.08c-1.14,2.86-2.43,6.47-3.6,9.35-.08.8-.15,1.6-.23,2.4a4.22,4.22,0,0,1-3.84,2.39c-.73-.69-.73,0-1.44-.24-1.18-.54-1.5-1.76-1.44-3.6.9-1.28.5-2.9,1.2-4.55.25-.59,1.19-1.8,1.44-2.4.57-1.34.55-4,1-5.27.11-.35-.45-.35-.48-.48a5.92,5.92,0,0,1,.48-3.36c.5-1.38,1.58-1.9,2.39-2.87,1.23-1.48,1.88-3.37,2.88-5,.51-.84,1.67-1.53,2.16-2.4,1.12-2,.85-4.94,2.16-6.71a34.19,34.19,0,0,1,8.87-8.15c1.49-1,3-2.62,4.79-3.36s3.92-.6,5.76-1.44c4.72-2.15,6-3.07,12.23-2.16l.24-.47c-1.78-.24-3.09-1.49-4.8-1.92l-7.67.24c-.77.3-1.87,1.39-2.64,1.68l-2.64.24A84.81,84.81,0,0,0,61,269.19a57.37,57.37,0,0,0-8.87,5.28l-1.92,2.15a18.28,18.28,0,0,1-2.63,1.2c-1.34.71-3.71,4.17-4.56,5.52-.41.66-2.11,4.6-1.68,5.75.22.59,1.21,1.77,1.44,2.4.66,1.79-.44,4-.72,5.28v4.55c-.46,1.43-1.92,2-2.64,3.12-1.22,1.86-.75,3.77-3.59,4.07-3-3.18-4.69-12.66-3.36-18.7.5-2.27-.46-4.8,0-6.95.76-3.52-1.09-7.2,2.4-7.91l.48,1.19a4.77,4.77,0,0,0,1.92,0c.87-2,1.52-5.76,3.83-6.23,0-2.41.29-5.17,1.68-6.23l1.44-.48v-1c.56-.95,1.41-.83,2.4-1.44l.24-.72,2.15-1.2c1.57-.44,2.57.56,3.84,0,.69-.3.84-1.5,1.44-1.91.9-.63,2.09-.42,3.11-1a22.51,22.51,0,0,1,2.16-1.44l2.16-.24.48-.72,4.32-.24c.27-.08,1-.65,1.19-.72l3.84-.24c.39-.18.73-1,1.2-1.2,1.46-.63,3.1-.28,3.36-2.16-.2-.24-.09-.06-.24-.48-1.54-.54-2.45-.64-2.4-2.87,1.45-.75,3.34-.54,5-1.2.35-.14.69-.84,1-1l8.39.24c1.41-.32,4.28-1.78,6.24-1l.48.72,6-.24a44.5,44.5,0,0,1,4.32,1.92l4.07.48c1.74.63,3.64,2,5.28,2.63s2.87.33,4.55,1a27.11,27.11,0,0,1,3.36,2.16h.72c1,.62,1.86,2,2.88,2.64,1.76,1.09,3.36,1.91,5,3.12,1,.72,1.77,2.26,2.88,2.87.95.53,7,2.63,7.43,2.4a19.78,19.78,0,0,0,2.16,1.44c1.56.71,3.52.36,5,1,2.94,1.16,5.17,4.07,7.2,6.23,2.26,0,3.95-1,5.75,0,2.1,1.16,1.75,2.84,5.27,2.88.15-.42,0-.24.24-.48a9,9,0,0,1-.48-1.44,3.13,3.13,0,0,1-1.67-.24c-3.61-1.32-5.43-8.06-9.11-8.63-.7-.42-3.86-.18-5-.24-1.23-1.77-3.3-2.78-5-4.08A13.61,13.61,0,0,1,143,256c-1.57-2.08-4.09-3.27-6.24-4.8-.56-.4-1.07-1.31-1.67-1.68-1-.6-1.82-.6-2.88-1.2-.71-.39-1.47-1.55-2.16-1.91-2.36-1.25-4.8-1.5-7-2.88-.42-.27-1.16-.59-1.68-1l-.24-.72c-.92-.74-2.38-.56-3.36-1.2s-2-2.17-3.35-2.64c-1.8-.6-3.56.16-5-.47s-3.6-2.07-5.51-2.4c-1.29-.23-3.78-.06-5.52-.72-.36-.14-3.62-1.22-3.83-1.2A11.28,11.28,0,0,0,90,234.67c-.57.34-1.23,1.44-1.92,1.68-2.06.7-6,.61-8.39,1.67-2.07.91-4,2.93-5.75,3.6-1,.4-3.36.73-4.32,1v.72c-.73,1-.12,1.49,0,2.88a15.74,15.74,0,0,1-3.83,2.15c-2.94.92-5.87-1.86-9.11-1.91-3.21,3.1-5.51,2.37-10.31,3.59A17.2,17.2,0,0,1,42,256.25l-1.68,1.19c-1,1.48-.56,3.42-2.39,4.08a2.16,2.16,0,0,1-1.2.24,4.63,4.63,0,0,0-.72-1,29.56,29.56,0,0,1,1.92-12c.07-.72.16-1.43.23-2.15.63-1.56,2.38-2.38,2.88-4.08l.24-4.32.72-.48v-.95c.78-1.85,1.82-4.43,2.64-6.24.41-.91,0-1.74.48-2.63s2.19-1.69,2.63-2.64c.15-.32.7-4.87.72-5.28h-.23c-1.11,1.66-3.63,2.22-4.56,4.08-2.74,5.5-4.17,12.68-6,18.22-.74,2.22-2.51,4.58-3.36,6.71l-.24,2.88c-.19.55-.87,1.28-1,1.92s.48,1.85.24,2.88c-.4,1.71-1,3.5-1.44,5.27s.79,2.35.48,3.83a5.83,5.83,0,0,1-1.2,2.17c-.66,1-1.24,3.8-1.68,5l-.48,9.83c-1.79,5.19-.46,16.05,1.2,20.38.15.38.84.81,1,1.2.92,2.76-1.1,4.36-1.68,5.75-1.84,4.44-.85,12.62-6.95,12.71-1.12,1-2.63.05-3.84-.24H16.62c-.17-.06-.11-.55-.48-.48-.13,0-.7.39-1.2.24-2-.61-3.62-1.58-6.23-1.68-1.29,1.32-2.92,1.62-4.56,2.64A21.77,21.77,0,0,0,1,326.25c0,2.41-.68,6.5,0,8.87.24.84,1.19,2,.72,3.6-.25.87-1.06,2-1.44,3.12-.11.36.67.45.48,1.2l-.48.24C-.41,345.42.28,349.56.79,351Zm356.52-56.34c-.26-1-1-2.4-1.2-3.36l.24-1.44a4.85,4.85,0,0,1,0-3.36c.57-2.71-.47-4.65-.48-7.43a19.3,19.3,0,0,0,2.16-1.91h1.68c.41.63,1.35,1.07,1.67,1.67l.48,2.4c.39.64,1.34,1.19,1.68,1.92.8,1.73.09,3,1,4.55,1,1.79,3.22,2.08,5,3.12l1.92,2.16-.24,3.12c-1.27,1-1.16,2.14-3.59,2.15-.35-.51-1.18-.72-1.44-1.2-.9-1.6.65-.74-1.44-1.91,0,1.48-.05,1.82-1.44,1.91-.34-.38-.79-.41-1.2-.72-.76-1.21-.26-2-2.15-2.15C359.49,295.24,358.57,294.74,357.31,294.61Zm-5.76-24.46,1.92-1.68c.72-1.12.33-1.59,2.16-1.67a2,2,0,0,0,.72.71c-.39,1.07-1.45,6.1-1,7.68-.85,1.75-3.73,3.51-2.88,6.71.31,1.15,1.51,2.33,1.92,3.36s-.25,4.06.48,5.75,1.7,2.64,1.92,4.8c-.65.44-.69.57-.72,1.68h-1c-.52,1.09-.42,1.67-2.16,1.67-.3-.4-.65-.55-1-1-1-1.36.09-2.09-.72-3.35s-2.7-1.93-3.35-3.6c-1.29-3.31-.89-8.78-.72-12.71a10.9,10.9,0,0,0,2.39-2.63h1C350.51,273.58,350.61,271.46,351.55,270.15Zm-2.4-18c.67-.55.47-1.16,1-1.92l2.16-1.92h1.2c1.21,1.29,3.23,2.52,4.08,4.08a12.49,12.49,0,0,0,1.19,2.4l1.21.72c.75,1.44.18,3.65.95,5,1.4,2.49,2.39,1.11,2.4,5.76-1.35,1.22-1.84,4.05-4.08,4.31a5,5,0,0,1-.48-2.63c.71-1.09-.05-3.42-.47-4.32-1.77-3.72-3.49-7.26-5.28-10.31h-.48a2.23,2.23,0,0,1,0,1.92,4.55,4.55,0,0,1-2.16.24C349.59,254.41,349.13,254.28,349.15,252.17ZM225.44,272.31c-.84-3.12,1.75-6.81,1.44-7.67-.48-1.35-2.58,0-3.83-.72-1.42-.8-1-4.06-1-6.23.87-1,.64-1.46,2.63-1.44a5,5,0,0,0,1.44,1.68v-.24c1.79-3.13-2.55-11.07,2.64-11.27.28.19.4.18,1,.24a9,9,0,0,1,1.68,3.59c.49.09.46.06.72.24.5.6.33.88,1.19,1.2v-1c-.57-.49-.52-1.29-.48-2.4a2.66,2.66,0,0,1,1.92-.71,2.56,2.56,0,0,1,1.44-.24,6,6,0,0,0,.48,1.19c.58-.64,1.35-.48,2.4-.48.71.89,1.17.68,1.2,2.4a2.66,2.66,0,0,1-1.92.72c-.51-.22-.95.13-1.92.24-.23.73-.47.72-.72,1.44,3.31,2.25.11,7.44,0,11.75a4,4,0,0,0,1.2.24l.24-.72c.51-.86.1-2.32.48-3.36,1-2.78,3.17-3,6.47-3.59V256c-.52-.46-.5-.9-.48-1.92a2.66,2.66,0,0,1,1.92-.72,9.52,9.52,0,0,0,5,2.64,3.91,3.91,0,0,0,.48-1h-.24c-1-2.83-4.71-2.7-4.8-6.48l.72-.24a13.74,13.74,0,0,1,5.28-.24c1.54.46,7.77,3.49,8.62,4.56a2.79,2.79,0,0,1,0,3.12,6.19,6.19,0,0,1-5.51,2.63c-.4-.46-.34-.39-1.2-.47.12,7.62,1.22,7.46-3.35,12.22-2.48,0-3.26-.66-5-1l-1.2,1.68v.72h1.44c1.15,2.15,2.85,3.46,2.16,7-.85.57-.86.93-2.4,1-.68-1.42-2.08-2.06-2.88-3.36-.36-.59-.4-2-.95-2.39h-1.44a9.74,9.74,0,0,0,.72,3.11c.24,1.16-.62,2.29-.72,2.64a24.36,24.36,0,0,0,.24,2.64,3.71,3.71,0,0,1-2.64.72c-1.52-2.11-4.08-1.4-4.08-5.28a2.76,2.76,0,0,0,1-1,3.19,3.19,0,0,1-1.2-1.43c-1.76.84-2,1.69-4.79,1.67C227.76,275.33,226,274.34,225.44,272.31Zm-8.15-1A13.57,13.57,0,0,1,219,269h1.92c.73,1.27.49,3.29,1.2,4.56,1.36,2.43,4.06,4,4.55,7.19-.53.56-.27.19-.24,1.2-.74.49-.7.83-1.92,1-1.13.69-4.53-.3-5.27-1.44C218.3,280.3,216.24,274.17,217.29,271.35Zm-6-.24a4,4,0,0,1,.72-1.2h2.15a3.91,3.91,0,0,1,.72,1.92c1,1.52-.32,4.4,0,6,.28,1.35.93,1.81,1,3.6a6,6,0,0,1-1.92.24c-.42-.58-1.31-.69-1.67-1.2C211.29,279.13,210,273.18,211.3,271.11Zm57.78,99.74a4.28,4.28,0,0,1-2.16,1c-1.15-1.37-2.81-1.27-2.88-3.84a3.72,3.72,0,0,0,1.2-1.2h1.44C267.74,368.21,269,368.23,269.08,370.85Zm-23-33.81c2.15-1.46,2.32-1.73,6.23-1.67,1.71,1.37,5.47,2.09,5.76,4.79-.76.72-.78,1-2.4,1a3.57,3.57,0,0,0-2.87-.72l-.49.72c-1.66.64-5.26-1.43-5.75-2.16A2.81,2.81,0,0,1,246.06,337Zm-30,6.48c.77-.62.56-1.06,1.92-1.2a2.54,2.54,0,0,1,1.44-.24c1.12.75,3.23.44,4.31,1.2.56.52.68.81.72,1.92.63.9,0,2.27-.24,3.11-1.17.23-1.12.65-2.63.72C220,346.88,216.47,347.08,216.09,343.52ZM150.64,489.77a4.07,4.07,0,0,1,2.88-.72c1.22-.81,10.12-1.13,11.27-.48,1.91,1.08,1.65,3,4.79,3.11a2.55,2.55,0,0,1,1.44-.23c1.84-3,4.2-5.36,8.87-5.52a2.89,2.89,0,0,1-.24,2.64c-1.6,1.21-4.92,4.11-7.43,3.35.06,3-1.18,4-4.32,3.84a5.1,5.1,0,0,0-2.16-1c-1.57,2.48-6.64,2.79-9.35,1l-3.11-3.36C151.44,491,150.57,493.49,150.64,489.77Zm-48.91,17.5a4.92,4.92,0,0,1-.48,2.15,5.3,5.3,0,0,1-2.64.72c-.73-1.05-1.57-1.11-1.67-2.87a2.2,2.2,0,0,0,.24-1.2,4.68,4.68,0,0,0,1.43-1.44h.72A19.81,19.81,0,0,0,101.73,507.27Zm30.45-18A2.91,2.91,0,0,1,130,490c-1.23-1.79-3.3-1.91-3.6-4.79.2-.25.09-.07.24-.48a6.17,6.17,0,0,1,2.64-1.44C130.92,485.21,132.23,485.43,132.18,489.29Z" fill-rule="evenodd"/>
        <path d="M254.45,112.15c-.8-.27-.71-.54-1.67-.71.29-.83.76-1,1.19-1.68h.72a9.35,9.35,0,0,0,1.44.48c-.08,1.19-.25,1-.72,1.67C254.86,112,254.73,112,254.45,112.15Z" fill-rule="evenodd"/>
        <path d="M188.52,203.74c-.49-1.48-.88-4.3-1.68-6.47-.25-.7-1.14-1.51-1.44-2.16-.77-1.71-.71-3.3-1.44-5-.13-.31-.87-.72-1-.95-.37-1,1-2.27.48-3.84-.82-2.54-3.35-4.39-4.32-6.71l-.24-2.88c-1.16-2-5.14-3.88-7-5.52-.92-.83-1.37-2.13-2.4-2.87v-.48c2.61-.38,3.4,1.89,5,3.11,3,2.28,6.33,3.75,8.88,6.48a3.87,3.87,0,0,0,1.91-.24c.52-.78.14-1.82.48-2.88.26-.78,1.18-1.93,1.44-2.64.89-2.45-3.41-7.07-4.31-8.39-2.6-3.77-5.41-8.19-9.35-10.55a21,21,0,0,0-3.84-1.67l-2.88-.24c-1.6-.66-2.24-3.07-3.83-3.84-2.07-1-3.63-1.29-5.76-2.16-.39-.16-.81-.8-1.2-1l-1.44-.24c-3.73-2.35-4.09-8.28-8.15-10.31-2.09-1-8.05-.27-11.27-.24-.88,1-2.28,2.68-3.59,3.12-.58.28-1.09-.13-1.68-.48,0-.55,0-.68.24-1-.16-4.83.43-4.78,3.36-6.47v-.72c2.09-.17,4.29-.34,5.75-1.2.23-.13.3-.84.48-1,.61-.39,2.37-.35,3.12-.72,2.43-1.19,5.07-3.31,7.43-4.55,2.7-1.43,6.11-1.51,8.87-2.88,1.66-.82,3.33-2.58,5-3.36l4.56-.48a9.22,9.22,0,0,1,2.16-1c1.15-.14,2.35.47,3.35-.24h.73a3.86,3.86,0,0,1-2.16,1.43V115c.3.63,6.29,2.36,7.43,2.64h3.84c.78.3,1.87,1.32,2.63,1.68,1.64.75,3.45,1.08,4.8,2.16,2.27,1.81,4.54,4.11,8.63,4.07v.24h.24c-.07,1.46-.84,3.13-.24,4.08.37,3.25,4.84,4,6,6.71v3.12c.37,1,1.8,2.13,2.16,3.11.46,1.26-.61,3.34,0,4.8,1.64,3.93,2.94,8.44,4.32,12.71.64,2-.67,3.39-1,4.55v4.32c-1.08,2.9-.78,6.65-1,10.54-.06,1.28-1.19,3.71-.48,5.52.82,2.11,2.3,3.91,3.35,5.75-.66,1.47,2.64,7.52,3.36,9.11a29.55,29.55,0,0,0,3.12,4.08c.54.41,1.35.36,1.68,1a23.39,23.39,0,0,1,1.2,3.36v1.67c.49.95,2.13,1.71,2.63,2.64.86,1.61,1.83,8.31,2.64,9.11a6.32,6.32,0,0,1-.48,3.12c-.56,0-.68,0-1,.24-.55-.25-.52-.41-1-.72a7.74,7.74,0,0,0-.72-2.64c-.48-1.5,1.19-3.2.48-5.51a23.74,23.74,0,0,0-2.87-5.28c-1.18-.21-3.74,0-4.56-.72-1-.81-2.94-4.92-3.84-6.23-2.31-3.38-5-6.39-7.19-10.07-.36-.61-1.34-1.24-1.68-1.92-.53-1.07-.66-3.34-1-4.31-.93-3.06.78-6.15,1.44-7.91.76-2-.3-9.16-1-10.79-1.24-3.1-1.81-5.71-3.35-8.64.35-.88-2-8.58-2.64-9.83-.57-1.06-1.75-2.31-2.4-3.35s-.6-2.06-1.2-3.12c-1.5-2.64-3.31-5.36-5-7.91-1.44-2.12-3.78-2.4-6.23-3.6-1.18-.57-2.48-2-3.6-2.64-1.62-.86-3.11-1.17-4.56-2.15s-2.84-2.7-4.31-3.6c-1.06-.64-3-1.14-3.84-1.92-.67-.61-1.28-1.76-2.16-2.15l-4.07-.24c-.8-.11-2.67-1-4.08-.48a64.92,64.92,0,0,0-10.31,4.79v2.4c.39.76,1.8.36,2.64.72,1.53.66,3.13,2.06,4.55,2.63h1.2c.79.4,1.42,1.57,2.4,1.92s2.63-.13,3.36.48.91,1.72,1.44,2.4c.91,1.18,4.43,3.49,5,4.56s.67,2.12,1.68,2.63,1.89.06,3.12.48c.84.29,1.06,1,2.15,1.2.58,3,4.43,5.6,7,6.71.92.41,1.74,0,2.63.49s1.62,1.59,2.4,2.15c-.61,3.39,1,2.68,1.44,4.32.24,1-1,3.28-.48,5,.7,2.53,2.08,4.75,2.64,6.95.43,1.69-1.35,2.67-1.68,3.84v2.88l-2.88,1.2c.08,2.6,2.58,5.71,3.6,7.91l.48,2.4c1.49,3.67,2.83,8.8,4.31,12.46,1,2.42-1,5.15-.47,6.72.59,1.76.44,4.7,1,6.95v2.64c.17.49.89,2,.47,3.11-.55,1.55-1.59,6.95-1,9.35,1,3.79,4.07,6.42,4.32,10.79-2.05-.15-3.19-3.44-4.79-4.55v-.72c-2.09-.44-2.39-3.42-3.12-5.28-.25-.63-1-1.43-1.2-2.15-.39-1.35.34-2.05,0-3.12,0-.17-.42-.15-.48-.48l.24-1a60.71,60.71,0,0,1-1.92-6.95C186.72,212.39,189.34,206.24,188.52,203.74Z" fill-rule="evenodd"/>
        <path d="M277.71,162.26v-1.2c-.16-.41-.83-1.25-1-1.67v-4.56c-.92-3.63-3.54-6.09-4.8-9.11-.16-1.28-.32-2.56-.47-3.84-.89-1.74-3.47-3.61-5-4.79l-1.92-2.16a156.76,156.76,0,0,0-13.42-9.59c-2.08-1.24-2.62-4-4.56-5.27v-.48a5.11,5.11,0,0,0,1.44-1h1.68c.62.66.87,0,1.44.24a27.61,27.61,0,0,1,3.35,2.39c1,1,.46,2.51,1.92,3.36.65.38,1.25.13,1.92.48,1.67.87,3.76,2.11,5.51,2.88l2.16.48c1.37,1,2.41,2.69,3.84,3.59s3.35.88,4.55,1.92a43.5,43.5,0,0,1,1.92,4.56c.52,1.44-.41,4.39.24,6.23s4.88,7.46,4.32,9.59c-.2.75-.9,2.12-1,2.64-.34,2.79,5.07,4.94,3.35,7.67-.24.55-.41.52-.72,1a1.64,1.64,0,0,1-1-.24c-1.13-.1-1.44,0-1.67-1l.24-.48C279.69,163.1,278.2,163,277.71,162.26Z" fill-rule="evenodd"/>
        <path d="M236.71,119.83H237c-.26.73-.59.86-1,1.43h-1.44c-.15-.41,0-.23-.24-.47,0-1.58.63-1.5,1.92-1.68C236.5,119.48,236.5,119.3,236.71,119.83Z" fill-rule="evenodd"/>
        <path d="M238.63,123.66a2.5,2.5,0,0,1,.48-1.44c3.53,1.26,4.6,6.49,6.95,7.68-.09.49-.06.46-.24.72-.53.21-.56-.1-1.44-.24v-.72h-.24c-.26-.19-.22-.15-.72-.24C243.2,128,239.73,124.39,238.63,123.66Z" fill-rule="evenodd"/>
        <path d="M163.59,129.18c-1.38.08-2.71.27-3.12-.72-.24-.44-.06-.44,0-1.2a8.48,8.48,0,0,0,3.12-.72c1.93-.68,3.64.53,5,.72v.24h.24a4.66,4.66,0,0,1-.24,1.44C167.23,128.91,164.51,128.58,163.59,129.18Z" fill-rule="evenodd"/>
        <path d="M171,132.29c-.22-.4-.05-.62,0-1.43,5.7,0,5.73,2.9,9.59,4.07v1c-3.63.05-4.33-1.46-7-2.64C172.45,132.71,171.75,133.25,171,132.29Z" fill-rule="evenodd"/>
        <path d="M86.15,164.18A14.24,14.24,0,0,0,89,161.3c1-1.43,1.27-3.11,2.64-4.07,1.1-.77,3.23-.47,4.31-1.2.68-.46,1.5-2.37,1.92-2.64s1.77-.34,2.4-.72c1.52-.9,2.59-2.95,4.08-3.83.4-.08.8-.17,1.2-.24l1.19-1.44,1.2-.24c2.21-1.29,3.8-3.57,5.76-5,1-.78,2.27-1.13,3.36-1.91l2.39-2.64a17.75,17.75,0,0,1,5.28-2.88c.24-.19.06-.09.48-.24v.24c.25.22,0,0,.24.24-.28.21-.7.48-1,.72-.49.51.35.91.47,2.16a45.4,45.4,0,0,0,7.2,2.64c.94.22,2.34-.3,2.88-.24a33.53,33.53,0,0,1,4.79.95h1.44c.76.41,1.1,2.92,1.68,3.6.26.18.22.15.72.24v.72c2.34,1,4.56,3.68,6.47,5.27a1.59,1.59,0,0,1-1,1.44c.05,4.42,2.83,3.95,4.56,6.48,1.51,2.2,2.2,4.85,3.59,7.19,1.25,2.09,3.65,3.19,5,5,1.78,2.37,3.45,7.83,6,9.12h1.2a33.08,33.08,0,0,1,5.52,5,36.08,36.08,0,0,1,2.63,6l.24,3.84c.32.91,1.38,2.16,1.68,3.12.51,1.63-1.54,2.25-1,4.55.36,1.44,1.16,2.07,1.2,4.08-.91.72-2.23,1.67-2.64,2.87-1.22,2,.43,4.71.72,5.76v2.88c.92,3.26,3.92,5.89,5.76,8.39,1,1.31,1.52,2.91,2.87,3.83a33,33,0,0,0,1,7.91v2.4c.22,1,1.1,4.4.72,5.52-.9,2.63-2.39,4.43-3.35,6.95-.09,1.28-.16,2.56-.25,3.84a16.08,16.08,0,0,1-1,2.39c-.56-.05-.68,0-1-.24l-.72-.24a38.34,38.34,0,0,1,2.39-14.38c.74-2.1-.91-5.24-1.43-6.48-.79-1.85-.6-3.46-1.44-5.27-1.39-3-6.57-9.36-10.31-9.83a86.6,86.6,0,0,1-4.08-10.07c-.76-2.65-.59-5.56-1.2-8.15v-1.92c-.49-1.22-2.36-3.55-2.87-5.27-.78-2.6,1.72-4.74.72-7.44-.94-2.49-3.44-4.32-4.8-6.47a3.16,3.16,0,0,0-1.92.48c0,2.53.68,8.92,1.92,10.07-.64,1-1.16.8-2.16,1.44-1.6,1.32.5,8.45,1.44,9.59v.48c-2.23-1.28-5.89-8.07-6.95-10.79,1.32-1.21,1.1-3.48,0-4.8v-.95c.55.26.43.22.72.71a2.43,2.43,0,0,0,1.44-.48c0-5-3-6.68-4.08-10.3-.33-1.1.54-2.1.72-2.64.48-1.46-.61-2.2-.48-4.08.08-1.15.85-3.33.48-4.79-.23-.91-1.36-2-1.68-2.88l-.24-2.16c-.56-1.23-5.94-8.24-7-8.87-1.84-1.14-4.24-1-6.47-1.92-4-1.57-8.4-3.26-12.71-4.79-1.13-.4-2.42.32-2.88.48H114c-1,1.06-2.39,1.77-2.88,3.35a1.83,1.83,0,0,1-1.92-1.19l-2.4.24a2.65,2.65,0,0,1-1,1.43c0,1.37.57,1.71.72,2.4.11.53-.51.92-.25,1.68.57.64,1.12,1.28,1.68,1.92,1.28,0,1.94.44,3.12,0s2.56-2.48,4.08-1.68c.87.35.69.79,1.19,1.44-.41,2.1-4,2.62-5,3.59-1.7.07-2.48,0-3.12-1-3.93,0-5.25,2.5-8.15,3.6-2.41.92-5-.53-7.43.24s-4.23,3.25-6.23,4.56a4.71,4.71,0,0,0,.72,2.15c1.45.58,3.68.49,5.27,1.2a64.35,64.35,0,0,1,7,3.36,2.38,2.38,0,0,0-.48,1.2c-1.69.07-3.27-1.17-5-.72-.79.2-1.31,1-1.92,1.2H87.34c-1.61.49-5.1,1-6.47,1.92-1.14.72-2,2.28-2.88,3.35l-1.68,1.2c-1.49,1.47-2.77,3.66-4.55,4.8-2.5,1.59-5.45,1.27-7,3.83-.85,1.45-.79,2.93-1.44,4.56-1.31,3.28-3.18,6.8-4.55,10.31-.09.72-.16,1.44-.25,2.16-.18.52-.8,1.14-1,1.67-.4,1.37.51,2.43,0,3.36v.24a4.84,4.84,0,0,1-.48-1.68,5.85,5.85,0,0,0-2.88,1c-.6,1.43-.72,3.07-1.44,4.55-.26.55-.7.5-1,1.2h-1c-.68-3.4.54-4.18,1.68-6.71l.48-2.88a29.45,29.45,0,0,1,1.68-3.11c.7-1.11,2.06-2.1,2.63-3.36.86-1.86.66-3.78,1.45-5.75.45-1.17,1.48-2.74,1.91-3.84,2.39-6,5.23-9.06,9.35-13.18l3.84-3.6c1.13-1.6,1-3.24,2.16-5,.82-1.28,2-.79,3.59-1.44a10.86,10.86,0,0,0,3.12-2.39c.61-.64,1.84-3,2.4-3.36Z" fill-rule="evenodd"/>
        <path d="M189.24,144c.73,1.06-.06,2.05,1.2,2.64a2.41,2.41,0,0,1-.72,1.2c-.25.19-.06.09-.48.24-2-2-3.5-4.23-6.23-5.52a8.14,8.14,0,0,0-.72-2.63c-.26-.19-.23-.15-.72-.24.06-.84.08-1,.48-1.44v-.48c1.25-.08,2.2-.4,3.12.24.74.56-.06,1.57.47,2.63C186.38,142.16,188.34,142.74,189.24,144Z" fill-rule="evenodd"/>
        <path d="M239.11,146.44s0,.48-.24.24v-.24c-1.23-.14-1-.42-1.68-1-.05-1.52-.1-2.71.72-3.36a17.56,17.56,0,0,0,2.4,2.4C240.33,145.93,240.22,146.17,239.11,146.44Z" fill-rule="evenodd"/>
        <path d="M121.63,161.3c-.68-1-2.45-1.62-3.36-2.39H118v-.24l4.08-.24c1.12,1.58,4.17,1.53,6,2.4-.26,1.8-1.9,2.06-1.44,3.83-1.44,0-3.38,0-4.07-.48C122.28,163.69,122.22,162.15,121.63,161.3Z" fill-rule="evenodd"/>
        <path d="M117.31,158.43h.48c-.24.19-.06.08-.48.24Z" fill-rule="evenodd"/>
        <path d="M126.91,165.14c1.5.35,2.54,1,4.07,1.2l.24,1.91c1.22.55,1.69,1.51,2.88,1.92-.08.25-.16.48-.24.72-.67.12-.7.29-1.2,0-1,0-1.25,0-1.68-.47s-.27-.17-.24-1.2c-.94-.45-3.52-1.67-4.08-2.4C126.6,166.79,127.06,165.77,126.91,165.14Z" fill-rule="evenodd"/>
        <path d="M217.29,176.41c-.19-.25-.09-.06-.24-.48a1.57,1.57,0,0,0,.48-.48h1.2c.35.47.8,1,1.2,1.44a3.91,3.91,0,0,1-.48,1A2.16,2.16,0,0,1,217.29,176.41Z" fill-rule="evenodd"/>
        <path d="M140.09,181.92c-1.72-.24-1.41-1.51-2.16-2.63s-2.52-1.63-3.59-2.64h-.24v-.24a2.26,2.26,0,0,0,.72-1C137.49,175.89,139.75,179.22,140.09,181.92Z" fill-rule="evenodd"/>
        <path d="M316.31,176.41a3.45,3.45,0,0,0,1.68,1c.15.41,0,.23.24.48v1c-.42.15-.24,0-.48.24a2.89,2.89,0,0,1-2.88-1.44h-.24a4.25,4.25,0,0,1,.72-1.2Z" fill-rule="evenodd"/>
        <path d="M384.16,241.14v-1.2a38.71,38.71,0,0,0-3.12-6c-.76-1.23-2.32-2.08-3.59-2.88s-3.11-3.13-4.56-4.07c-3.35-2.17-6.67-4.33-10.07-6.48v-.72c-1.71-.34-2.25-1.9-3.11-3.11-.28-.38-.89-.4-1.2-.72-.93-1-.95-2.29-1.44-3.12s-1.69-1.58-2.16-2.4l-.48-2.15c-.74-1.39-3.08-2.94-4.56-3.6-1.71-.77-2.86-.27-3.83-1.68a44,44,0,0,1-2.88-4.79,12.68,12.68,0,0,1-.48-4.08c-1-1.78-2.86-7-4.07-8.15a18.18,18.18,0,0,1,.95-2.4H340c2.18,2.46,3.7,6.85,4.8,9.59,1,2.55.29,4,1.92,6.23,1.88,2.55,4.94,2.57,7.67,4.32.57.37,1.08,1.32,1.68,1.68s1.09.16,1.44.72c.92,1.49.55,3.77,1.44,5.27,1.5,2.56,3.15,5.94,5.51,7.68,1.55,1.14,3.28,1.71,4.79,2.87.3.23.41,1,.72,1.2h.72c1.15.71,2,2,3.36,2.64.93.44,2.05.19,2.88.72l1.2,1.44c4,3,8.08,7.35,7.67,13.9C385,241.75,384.45,241.69,384.16,241.14Z" fill-rule="evenodd"/>
        <path d="M86.15,186.72c-.16-.42-.05-.24-.24-.48a2.47,2.47,0,0,1,.48-1.2h4.55c1.11-.42.8-.72,2.88-.72A4.15,4.15,0,0,0,95.74,186v.48c-.52,0-6.71.43-7.44,1.2Z" fill-rule="evenodd"/>
        <path d="M221.61,189.35a11.38,11.38,0,0,1,2.39,1.44v1c-1.75-.52-1.83-2-3.11-2.87a19,19,0,0,0-2.64-1.2,3.77,3.77,0,0,1,2.4-2.4A27.4,27.4,0,0,1,221.61,189.35Z" fill-rule="evenodd"/>
        <path d="M107.72,187c2.27,1.48,3.77.85,5.28,3.35h.24v.24c-2.38-.09-3.51-1.43-5.75-1.91-1.78-.39-3.77,1-5,.24-1.11,0-1.23-.08-1.68-.72-.19-.25-.09-.06-.24-.48.19-.25.09-.06.24-.48A67.49,67.49,0,0,1,107.72,187Z" fill-rule="evenodd"/>
        <path d="M100.77,194.15h-.24v-1.68c3.52.05,4.26,1.85,6.71,2.88a2.47,2.47,0,0,1-.48,1.2c-2.64-.25-3.26-1.85-6-2.16Z" fill-rule="evenodd"/>
        <path d="M96.69,199.66c.79.54,1.44.24,2.4.72.72.36,1.62,1.56,2.4,1.92,1.27.6,3.18.39,4.32,1-.13,1.62-1.31,3.44-1,4.08.13,1.69,1.11,1.92,2.64,2.15,0,2.35-.38,2.68-.73,4.56l-1.19.24c-1-1-2.4-1.62-3.12-2.88h-.72c-.36-1.87-1.51-1.39-2.64-2.39s-1.7-2.67-2.88-3.36-2.43.05-3.83-.48a10.88,10.88,0,0,0-1-.72c-1-.31-2,.12-2.64,0a10.7,10.7,0,0,1-1.44-.72l-2.63-.24c-.42-.19-.25-.61-1-.72-1.76-.28-8.85-.45-9.59,0-2.72.3-3.27,3-5,4.32-1.24.89-3.11,1.29-3.84,2.63s-.47,3.38-1.68,4.32v.24h-.24l-.48-.72c-.26-.23-.49-3.13-.48-4.32a40.69,40.69,0,0,1,3.84-3.59c-.07-2-.9-1.59-1.44-2.88-.2-.25-.09-.06-.24-.48,1.72-1.15,3.21-3.37,5-4.31,1.3-.68,3,.17,4.56-.48.86-.36,1.68-1.59,2.63-1.92,1.36-.47,2.67.64,4.32,0,.12-.05.54-.67.72-.72,1-.26,2.23.79,3.12,1l3.35-.24c.9.36,2.35,1.52,3.36,1.92l2.88.24C95.31,198.09,96,199.21,96.69,199.66Z" fill-rule="evenodd"/>
        <path d="M227.84,202.78c-2-.73-2.32-3.16-3.84-4.31.13-1.24.73-1.57,1.92-1.68a11.33,11.33,0,0,1,1.2,1.68l-.24.95a7.1,7.1,0,0,0,1,3.12Z" fill-rule="evenodd"/>
        <path d="M198.59,199.9c.28-.63.47-.5.72-1.19.92.32,1.19.94,1.92,1.43v1.44a3.69,3.69,0,0,1-1.92-.24C199,200.87,199,200.28,198.59,199.9Z" fill-rule="evenodd"/>
        <path d="M228.56,203.5h-.24v-.24a1.47,1.47,0,0,1-.48-.48h.48Z" fill-rule="evenodd"/>
        <path d="M311,204.22a3.45,3.45,0,0,1,1.68-.48,1.62,1.62,0,0,0,1,.48,2.47,2.47,0,0,1-.48,1.2c-1.08-.19-1.12-.54-2.16-.72Z" fill-rule="evenodd"/>
        <path d="M198.35,206.86c.17-.76.62-1,.72-2.16h.24v-.24h1.2c.11,2.62,1.46,4.53,1.44,7.91a1.61,1.61,0,0,0-1.44,1C199.52,212.22,197.82,209.21,198.35,206.86Z" fill-rule="evenodd"/>
        <path d="M262.61,208.06a2.11,2.11,0,0,1-1.2-.24c-.19-.26-.16-.23-.24-.72-.56.05-.68,0-1,.24-.55-.3-.52-.6-1-1a3.58,3.58,0,0,1,.48-1l1.44.24a7.16,7.16,0,0,0,1.44,1.92Z" fill-rule="evenodd"/>
        <path d="M230.72,211.17c-.2.25-.09.06-.24.48H230c-.46-.72-2.5-2.83-2.64-3.11-.3-.63.46-1-.48-1.92v-.24c1.46.11,1.29.57,2.64.72A8.4,8.4,0,0,0,230.72,211.17Z" fill-rule="evenodd"/>
        <path d="M339.32,209c.66-1.28,2.67-.89,3.84-1.92,2.28.23,1.46,1.7,2.64,2.87-.27.56-.23.44-.72.72.4,2.95,2.12,3.64,2.16,6.72-.5.09-.46.06-.72.23-.74.44-.61,1.37-1.2,1.92a5,5,0,0,0,1,2.4c-.16.42,0,.24-.24.48-2.34,1.76-2.64-2.82-3.6-4.08a13,13,0,0,1,1.44-1.43C343.87,214,341.07,210.18,339.32,209Z" fill-rule="evenodd"/>
        <path d="M262.61,210.21c.05-.55,0-.67.23-1,.39-.23,0,0,.72,0l.24.72h-.24v.24Z" fill-rule="evenodd"/>
        <path d="M52.1,230.11c.51-.91.42-1.71,1-2.64,1.47-2.51,4.69-4,7.19-5.51.8-.49,1.52-1.75,2.4-2.16,2.06-.94,3.9-.94,5.75-1.91,3.53-1.86,6-3.62,11-3.6h2.88c3,.77,5.38,2.68,7.91,3.84.92.41,1.47.25,2.4.71s2,1.73,3.12,2.16c2,.81,2.87.38,4.79,1.2,1.5.64,2.94,2,4.32,2.64l1.91.24c3.39,1.13,7.11,2.76,8.16,5.51h-.24v.24c-3-.14-4.4-2.23-6.48-3.11-1.29-.56-3.43,0-4.79-.72l-.72-1a24.76,24.76,0,0,0-5.75-2.88,19.79,19.79,0,0,0-7.2,0c-1.24.54-2,2.33-4.07,1.68-1.16-.37-2.85-1.3-4.32-1.68H79.43a11.47,11.47,0,0,1-1.91,1h-3.6A10.78,10.78,0,0,0,69.84,226c-.18.26-.15.22-.24.72-2,.31-3.86,1.65-5.51,2.15-1.32.41-2.19.07-3.12.72-2.09,1.47-2.46,4.6-5.27,6.48v.72c-2.82.25-3.49,2.15-5.28,3.35v.24h-.24a3,3,0,0,0-1-1,4.45,4.45,0,0,1,.47-1.91c.33-1-.4-1.61-.47-1.92,0,0,.86-3.41,1-3.6C50.52,231.36,51.71,230.83,52.1,230.11Z" fill-rule="evenodd"/>
        <path d="M216.09,222a2,2,0,0,0,.72,1.44,3.65,3.65,0,0,1-.24,1.2c-4.07-.37-6.51-4.45-8.63-7v-.47a13.66,13.66,0,0,1,7.43,4.79Z" fill-rule="evenodd"/>
        <path d="M118.51,233c-.11-.66-.29-.69,0-1.2.25.19.06.09.48.24-.09.49-.06.46-.24.72V233Z" fill-rule="evenodd"/>
        <path d="M372.65,248.09a3.55,3.55,0,0,1-.48,1.68c-.36.16-.1.3-.48,0-1.33-.14-1.55-.65-2.4-1.2a2.68,2.68,0,0,1,.72-1.91h1.2A17.66,17.66,0,0,0,372.65,248.09Z" fill-rule="evenodd"/>
        <path d="M200.27,247.62l.72.23a12,12,0,0,1-.48,2.64h-.72l-1.2-2.64h.24v-.23A6.33,6.33,0,0,1,200.27,247.62Z" fill-rule="evenodd"/>
        <path d="M116.35,261.28c-1.46,0-1.7.45-2.15,1.44-1.83-.23-4.28-1.6-5.52.24-2.71,0-6-2.8-7-4.56-.24-.43-.06-.43,0-1.19,5.42-1.26,6.79-4.21,11.75.23,1.75,0,2.25-.4,2.87-1.43,1.92.2,1.71,1.25,2.88,1.92,1,.56,2.14-.06,3.36.47s2.45,2.13,3.59,2.88v1c-1.21.13-1.17.47-1.91,1v.72C122.07,263.77,117.3,260.75,116.35,261.28Z" fill-rule="evenodd"/>
        <path d="M372.65,257l1.2-.24c.25.19.06.09.48.24v1c-.41.15-.24,0-.48.23a2.57,2.57,0,0,1-1.2-.47Z" fill-rule="evenodd"/>
        <path d="M378.4,270.15c-.55,2-2,3.24-2.15,5.76-2.08-.22-1.82-1.74-2.88-2.88a9.34,9.34,0,0,1,2.64-5.52c-.05-2-.76-2.4-1.2-3.83a2.66,2.66,0,0,0,.48-.72,2.38,2.38,0,0,1,2.63,1.92c.29.57-.11,1.67-.23,2.4S378.77,268.82,378.4,270.15Z" fill-rule="evenodd"/>
        <path d="M228.56,263v.72h-.48C228.29,263.11,228.17,263.28,228.56,263Z" fill-rule="evenodd"/>
        <path d="M130,265.36c.1-.5.06-.47.24-.72.28-.68,0-.45.72-.72.25-.2.06-.09.48-.24a2.66,2.66,0,0,0,.72.48,2.65,2.65,0,0,1-.24,1.44C131.47,265.77,131.07,265.43,130,265.36Z" fill-rule="evenodd"/>
        <path d="M93.58,266.8c-.25-1.15-.69-.86-1-1.92,1.42.05,3.64.27,4.32-.48a2.42,2.42,0,0,1,1.43,1h.24v.24a5.69,5.69,0,0,0-1.2,1.2A34.94,34.94,0,0,1,93.58,266.8Z" fill-rule="evenodd"/>
        <path d="M134.1,266.32a2.47,2.47,0,0,1,.48-1.2h.71a1.39,1.39,0,0,1,0,1.43C135,266.74,134.77,266.47,134.1,266.32Z" fill-rule="evenodd"/>
        <path d="M238.15,270.15v.48a13,13,0,0,1-3.36-1.68v-1.67C236.84,267.42,236.87,269.23,238.15,270.15Z" fill-rule="evenodd"/>
        <path d="M174.61,280.94c.38.57.3,1.21.72,1.68v.72c-1.12-.59-3.81-2.71-2.87-4.32C173,279.76,174.11,280.18,174.61,280.94Z" fill-rule="evenodd"/>
        <path d="M120.91,294.13c-2.87,0-2.86,1-4.32,2.15,0,0-6.5-.86-7-1.19s-.69-1.35-1.44-1.68a7.25,7.25,0,0,0-4.79-.24c-.83.2-1.37-.62-1.92-.72-1.21-.23-2.22.71-3.12,1a9.66,9.66,0,0,1-1-1c-.36-.63.55-2.89,1-3.6,1.65.1,2.71,1.4,3.84.72,1.51-.14,1.84-1.15,2.4-2.16a10,10,0,0,1,3.11,1c.8.27,1.49-.41,2.64,0,.93.33,2.38,2.09,4.56,1.2l.48-.72,3.59-.24c.76-.29,1.74-1.39,2.4-1.68h2.4c1-.26,1.17-.81,2.39-.95,1.74,2.89-.86,6.11-2.39,8.39C122.85,294.4,121.46,294.5,120.91,294.13Z" fill-rule="evenodd"/>
        <path d="M131.7,294.61a3.69,3.69,0,0,1-2.64-.72c.54-1.27,1.72-2.06,2.16-3.36,1.55-.35,2.24-1.08,3.84-1.2.24.2.05.09.48.24a22,22,0,0,0,.47,3.6,7.78,7.78,0,0,0-1.43,1.2C133.64,294.34,132.25,294.24,131.7,294.61Z" fill-rule="evenodd"/>
        <path d="M90.22,293.89a1.62,1.62,0,0,0-1-.48,8.5,8.5,0,0,0,1-2.88,2.26,2.26,0,0,0,1-.72h.72c.39.44.78,1,1.2,1.44C93.05,293.18,91.78,293.58,90.22,293.89Z" fill-rule="evenodd"/>
        <path d="M139.85,295.57a2.57,2.57,0,0,1-1.44-.48v-.48c1.38-.56,2.1-1.49,3.36-1.92a12.77,12.77,0,0,0,1.92,1.68l-.72,1C141.72,295.37,140.34,295.78,139.85,295.57Z" fill-rule="evenodd"/>
        <path d="M156.15,301.08h-.48v-.48a8.15,8.15,0,0,1,2.4-1c.43.92.3.74-.24,1.68A3.16,3.16,0,0,1,156.15,301.08Z" fill-rule="evenodd"/>
        <path d="M92.62,327c1.29-2.76,7.1-2.43,10.07-3.35.52.37,1.43.67,1.92,1-.73,1.93-8.28,2.51-9.59,3.83C93.2,328.4,93.39,327.93,92.62,327Z" fill-rule="evenodd"/>
        <path d="M65.05,327.69a2.47,2.47,0,0,1-1.2-.48,3.33,3.33,0,0,1,1.68-3.11,6.17,6.17,0,0,0,1,1.2C66.47,327.12,66,326.93,65.05,327.69Z" fill-rule="evenodd"/>
        <path d="M69.84,332.49v-.24H69.6c.12-2,1.09-3.06,1.92-4.32h.72c.53,1.89-1.35,3-1.92,4.56Z" fill-rule="evenodd"/>
        <path d="M59.77,336.8a7,7,0,0,1,2.4-3.83,15.69,15.69,0,0,0,.48,2.4,9,9,0,0,1-.24,2.63C60.55,338,60.71,337.55,59.77,336.8Z" fill-rule="evenodd"/>
        <path d="M92.86,355.5c.27-.41.28-.85.48-1.19h.72a8.77,8.77,0,0,0-.24-1.68c.21-.18.27-.31.48-.48a7.16,7.16,0,0,1,1.44-.48c0-2-.11-3.29-1-4.32.51-1,2.82-2.28,1.91-3.83a11,11,0,0,0-.23-3.12l-4.32.24c.39-1.93,2.5-1.47,3.83-2.4a14.9,14.9,0,0,0,1.68-1.92h.24a2.4,2.4,0,0,1-1.2,2.16,3.23,3.23,0,0,0,.49,1.92c.55.05.67.05.95.24,3.32-.17,1.86-1.33,3.36-1.92a41.5,41.5,0,0,1,8.15-.24h.48c.47,2.5-.54,4.25-.72,6.72-3.32-.25-4,1.16-6,2.63V351h-.72a4,4,0,0,0-.24-1.2c-2.69.16-2.52,1.63-3.84,2.88,0,0-1-.43-1.43-.24s-.79.92-1.21,1.19V355a2.1,2.1,0,0,0-1.19.24,5.76,5.76,0,0,0-.72,3.6c-1.57-.27-1.61-1.22-2.88-1.68C91.5,355.76,92.27,356.4,92.86,355.5Z" fill-rule="evenodd"/>
        <path d="M12.54,338.24c.31-.61.25-.52,1-.72a6.69,6.69,0,0,0,1.44,1c.06.56.05.68.24,1a3.58,3.58,0,0,1-.48,1C13.13,340.21,13.32,339.13,12.54,338.24Z" fill-rule="evenodd"/>
        <path d="M66.25,341.36c-.25.19-.06.09-.48.24a5.06,5.06,0,0,0-.48-1A3.49,3.49,0,0,1,67,338.48,2.43,2.43,0,0,1,66.25,341.36Z" fill-rule="evenodd"/>
        <path d="M35.32,339.68A12.17,12.17,0,0,1,37,341.6c.47.9,0,2,.72,2.63a3.68,3.68,0,0,1-.72,2.64c-1.47-.25-1.92-1-2.88-1.67,0-1.32-.62-3.14,0-4.08C34.25,340,34.5,340,35.32,339.68Z" fill-rule="evenodd"/>
        <path d="M66,346.15h-.24v.24h-.24a2,2,0,0,1,.24-1.19c0-1.46.16-2.05,1-2.64.24.19,0,.09.48.24A6.82,6.82,0,0,1,66,346.15Z" fill-rule="evenodd"/>
        <path d="M17.34,348.07a4,4,0,0,1-1.68-1c-.18-.3,0-.23,0-1h.72a3,3,0,0,0,.24-.95,19,19,0,0,1,1.91,1.43C18.31,347.78,18,347.5,17.34,348.07Z" fill-rule="evenodd"/>
        <path d="M19.49,351a5.29,5.29,0,0,0,2.64,1.2c0,3.07.59,6,2.4,7.19a3.91,3.91,0,0,1-.48,1c-3.07-1-3.88-4.49-5.52-6.95C18.51,351.89,18.64,351.49,19.49,351Z" fill-rule="evenodd"/>
        <path d="M260,354.31c-1,1.17-2.58,1.2-3.36,2.63h-.48c-.15-.41-.05-.23-.24-.48-.07-2.21.55-2.43,1.92-3.11C258.31,354,259.11,354,260,354.31Z" fill-rule="evenodd"/>
        <path d="M240.31,362.46a1.57,1.57,0,0,0,.48-.48c1.34-.09,1.53-.43,2.87-.48.19.16.54.31.72.48l.72.24v.48a3.35,3.35,0,0,0-1.92.72C241.64,363.5,240.7,363.61,240.31,362.46Z" fill-rule="evenodd"/>
        <path d="M207.94,363.9c.16.41.05.23.24.47v.24c-1,.06-1.82.36-2.4,0a5.76,5.76,0,0,1-1.92-.24c-.07-.24-.16-.47-.23-.71a1.74,1.74,0,0,0,.47-1h2.16A4,4,0,0,0,207.94,363.9Z" fill-rule="evenodd"/>
        <path d="M93.82,366.53v1.2a6,6,0,0,1-2.4-2.4c-.26-.2.14-.48.24-1.2.56.06.68.05,1,.24C93.49,364.85,93.3,365.73,93.82,366.53Z" fill-rule="evenodd"/>
        <path d="M165.26,432.7c2.09,2.94,3.38,6.24,5.52,9.11l4.07,3.84a20.49,20.49,0,0,1,2.16,4.08c.36,1.1-.1,1.69.48,2.4a7.72,7.72,0,0,1-.48,1.43c-2.95-.19-4.62-5.33-6.47-7.19-1.51-1.51-3.57-3.07-4.8-4.79-1-1.36-1.78-2.92-3.11-3.84-1.79-1.24-3.83-1.66-5.76-2.88-2.27-1.43-7.29-7.87-8.39-10.55a24.72,24.72,0,0,1-1.2-4.07,8.42,8.42,0,0,1,.24-2.88,11.6,11.6,0,0,0-1.2-6.23c-.78-2.41-2.93-1.48-4.31-.48-.24,3-.74,7.75.72,9.83a4.43,4.43,0,0,1-.24,2.16c-.55.27-1.64-.24-2.16-.73a8.37,8.37,0,0,1-1.2-4.07l.24-1.44-.48-.24c-.28-.65-.55-2.15-.72-2.64l.24-2.15-.48-.24-.24-2.4c-.07-.18-.66-.59-.72-.72-2.05-5.05,4.23-9.84,5.76-12.47,1.15-2,.79-4.85,1.68-7.19,1.15-3,5-8.75,7.43-10.55,1.7-1.26,3.65-2,5.27-3.36,3.2-2.63,3.73-8.95,7.92-9.83a29.68,29.68,0,0,1-3.12,8.88c-.63.92-1.81,1.91-2.4,2.87s-.54,2.38-1.2,3.36c-1.59,2.35-4,4.85-5.51,7.19-1,1.59-1.69,5.07-2.16,6.23-.79,2-.78,9.71-.24,11.27.34,1,1.48,1.84,1.92,2.64,1,1.76.68,4.44,1.92,6,.47.17,1,.32,1.43.48v4.08c.32.85,1.1,2.48,1.44,3.36.9,2.29.23,4.89,1.44,6.71C160.09,430,163.7,430.5,165.26,432.7Z" fill-rule="evenodd"/>
        <path d="M270.27,506.31c1.06-.46,2.85-1.09,3.84-1.44,1.48-.53,2.63.4,4.08-.48,3.68-2.23,6.28-6,9.83-8.39,1.31-.87,2.61-.58,4.31-1.2,1.54-.56,3.27-1.73,5-2.16h4.07a10.58,10.58,0,0,1,6,.48A21.07,21.07,0,0,1,312,497c1.86,1.78,4.52,1.82,4.56,5.51a5.48,5.48,0,0,1-2.88.48c-.17.13-2.4-.64-3.6-.24a34.24,34.24,0,0,0-3.83,1.92c-.11,1.28-.61,1.4-1,2.16-.87,1.92-.71,3.45-2.4,4.55-5.15,3.39-10.18-1.66-16.54-.24a32.44,32.44,0,0,0-4.56,1.68c-.06.77-.23.77,0,1.2a5.56,5.56,0,0,0,.48,1.2,3.32,3.32,0,0,1,2.88.48c.16.18.32.53.48.72,1.2-.77,6.42-.54,7.91,0,.87.31,1.66,1.28,2.4,1.68a17.58,17.58,0,0,0,9.35,1.91c.76-1,3.24-2.1,3.84-2.87v-.72c.78-1.2,1.73-2.16,2.63-3.6.5-.79,1.32-.92,2.16-1.44,3.91-2.37,6.41-5.25,12.23-3.11h4.79c2.33.55,5,1.74,5.28,4.31.5.74.12,2,0,2.88-1.57,1.05-3,3.08-4.8,3.84H330c-1.9.91-.42,2.78-3.6,2.87-1.77-2.67-5.16-4.11-7.91-5.75a3.41,3.41,0,0,1-.24,1c-1.83.11-2.75.93-4.56,1.2v1a10.72,10.72,0,0,1,2.4,2.4c3.42-2,4.37-.54,6.71,1,1.1.7,2.4.64,3.36,1.44.55.46.22,1,1,1.44v-.24a8.54,8.54,0,0,0,1-2.64c2.48.07,4.79,1.46,6.95,1.92,1.06-1.44,2.38-1,4.31-1.68,2.33-.83,2.3-2.14,5.76-1.92a13.92,13.92,0,0,0,1.68,2.16c-.19,1.1.51,2.81,0,4.07-.19.48-.55.35-.72,1.2,1.75,2,2.15,1.32,4.31,2.64l.48.72,3.36.24c1.38.54,2.33,1.43,4.32,1.44,1.86-2.47,7.89-4,11.26-4.32.6.67,1.68.9,2.4,1.44,2.07,1.57,2.92,4.34,2.88,8.15h1.2a22.4,22.4,0,0,0,.72,2.64l.72.48c1.37,2,2.36,3,2.39,6.48-.74.49-.7.82-1.91,1a24,24,0,0,0-2.88-1.91c-.76-.53-1.24-1.75-1.92-2.4-.2-2.67.21-4.76.24-7.43h-.48v.47c-.55.53-.09.65-.48,1.44-.21.43-1,.91-1.2,1.44-.86,2.45.7,4.3,1.2,6,1.14,3.8-1.78,8.64-4.07,9.11-.09.49-.06.46-.25.72-2.68,2.31-6.11.32-8.87-.24-.28-1.53-1.58-2.55-1.91-4.32-.18-.92.58-2.2,0-3.11v.23h-.24c-.68,2.43-1.14,3.26-5,3.12-.35-.55-1.15-.92-1.44-1.44l-.24-2.16a28.45,28.45,0,0,0-1.92-3.11v-.72c-.31-.48-1-.36-1.43-.72a12.19,12.19,0,0,1-1.92-2.64c-.7-1.73.12-3.76-.48-5.27-1.5-3.77-4.12-5.56-9.11-5.28-2.38,3-6.94,4.24-10.31,6.24.58,1.22,1.24,1.28,3.12,1.2,1-.79,2.38-.56,3.59-1.2,2.4-1.26,3.27-3.56,7-3.6v.24c3.27,1.15,2.6,4,3.11,8.15.09.66.7.65.48,1.44-.14.53-1.22,1.79-1.44,2.4-.73,2,.66,3.55.72,5.27-3.93,2.63-9.56,7.22-15.34,3.12-3.52-2.49-2.61-7.17-8.39-7.91a3.19,3.19,0,0,1-1.2,1.19c-1.78.67-3-.64-3.84-.95h-2.87a38.75,38.75,0,0,1-5-1.2c-1.36-.6-2.42-2.13-3.6-2.88-1.34-.86-3-.86-4.31-1.68-2.19-1.34-3.38-4.48-5.52-6-2.53-1.79-6.35-1.84-9.11-3.36-2.21-1.21-2.78-2.63-6-2.64v1c1.13.54,2.7,1.53,3.84,1.92h1.91a24.47,24.47,0,0,1,3.36,1.68l1.68.24c1.45.87,3.21,4.22,4.55,5.51.89.85,2.35,1,3.36,1.68l1.92,2.4c2.7,2,5.35,3.45,7.67,5.76,3.28-1.74,6,1,8.15,1.91h1.44c.52.16,1.45.83,1.92,1,1.36.4,1.88-.42,3.11-.48,2.37,3.46,8.08,9,15.11,6.71,2.54-.81,3.13-2.68,6.47-2.87.38.31,2.57,1.79,2.88,1.92,1.57.6,4.54-.43,3.84,2.87-.21,1-.76,1.55-1,2.64.81.27.72.53,1.67.72,1.24-1.81,2-2.34,1.92-5.75,1.71-1.33,2-1.94,4.8-2.4.54.63,1.25.44,1.92,1,.51.39,1.15,1.81,1.68,2.15,1.79,1.2,9.05,2.54,11.26,1,.16-.12,4-4.83,4.08-5,.44-1.07.47-2.66,1.44-3.12h2.4c1.73,2.67,3.88,4.4,4.07,8.16a5.88,5.88,0,0,0,2.16.47,3.21,3.21,0,0,0,.72-2.39c-.72-1.19-2.73-10.73-2.4-12-.82-2-2.58-3.49-3.36-5.28l-.24-2.63c-.35-1.13-1.46-2.34-1.91-3.36l-.24-1.68c-1.87-2.84-4.76-4.44-7.2-6.71a4.49,4.49,0,0,1-3.11,1c-.44-.61-.9-.67-1.2-1.44a3.16,3.16,0,0,1-.24-1.68,13.38,13.38,0,0,0,1.44-2.4c.4-.62,1.46-.65,1.92-1.19.57-.69.93-1.93,1.67-2.4,1.34-.85,2.72-.08,4.56-.72a13.55,13.55,0,0,1,1.92-1c3.26-.88,6.11.75,8.87,1,1.62,2.26,3.37,3,3.35,7.19a2.57,2.57,0,0,1-1.2.48c-1.81-2.91-6-6.58-10.3-4.8-1.52.63-2.64.34-3.36,1.68.55.32.37.52.72,1,.31.21.71,0,1.2.24l1.44,1.2c.07-1-.05-.88.72-1.2.67-.65,1.47-.75,2.87-.72.48.47.8.33,1.44.72,2.15,1.33,4.34,5.62,4.32,9.35-.74.5-.71.83-1.92,1-.2-.78.12-.37-.48-.72v.24c-1.43,1-2,4.85-1,7,.56,1.09,1.45,1.21,1.68,2.88h1c.74,1.17,2.41,2,2.87,3.36.89,2.58-1,4.17,1.44,5.51v-.24c5.65-4.92,2.25-7.59,2.16-14.62a2.91,2.91,0,0,1,2.16-.72l2.16,2.39c1.08,2.45-.08,5,2.39,6.24a3.58,3.58,0,0,0,.48-1c.54-.85-.18-2.48.24-3.6,1-2.62-1-8.66-2.39-11.27l-4.08-3.83c-2.86-2.93-1.91-7.23-5.76-9.83-1.93-1.31-4.35-1.07-7.19-1.68h-3.35c-1.93-.63-3-2.88-5-3.59s-3.68.81-4.55,1.43a41.31,41.31,0,0,1-4.08,2.16c-1.23.7-2.59,2.27-3.83,2.88-1.54.74-3.16-.15-4.08-.48-1.83-.66-4.78.54-6.23.24-.09-.16-.16-.32-.25-.48-1.47-.46-3.65.45-4.79-.24-3.5-1.2-4.85-5.91-7.67-7.91-3.47-2.46-10-.93-13.91-2.88-1.92-1-5.06-5-6.23-6.95-.62-1-2.14-1.88-2.88-2.88-.59-.81-1.05-2.39-1.92-2.88s-1.68-.39-2.63-1-1.71-2-2.4-3.11c-1.12-1.79-4.88-2.74-5.52-3.84-1.43-2.46,1-4.08,2.64-4.31.27-1.06.87-1.24,1.2-1.92.54-1.11.32-2.65.72-3.84.57-1.69-.95-3.3-1.44-4.07l-.24-1.2c-.72-1.26-2.42-2.18-3.11-3.36a30.31,30.31,0,0,1-1.92-4.79c-.6-2.49,4.36-8.83,1.44-11.27a12.21,12.21,0,0,0-2.88-.48c-.64-1-1.16-1.18-1.2-2.88-.64-1.09,0-3-.48-4.31a32.88,32.88,0,0,0-3.84-6.48c-.69-1-.69-2.62-1.67-3.35a2.78,2.78,0,0,0-1.2-.48c-.67,1.1-1.24,1.48-3.12,1.44a2.68,2.68,0,0,1-.72-1.92c-.68-1.07-.46-5.56,0-6.72,1.91-4.82,7.17-8,10.55-11.51h2.64c.4.78,1.39,2.27,2.16,1.92,2.08-.66,1.38-2.58,2.39-4.31.65-1.12,3.35-1.86,5-1.92.55.75,1,.95,2.4,1,.75-.77,1.51-1,3.11-1,.53.7,1.75,1.16,2.16,1.92.65,1.22.35,2.09,1,3.36h.48l.24-.49c2.15-3,.91-8.3,1.92-12.46a4,4,0,0,1,2.39-.72c1.88,1.79,4.56,2.81,6.72,4.31,3,2.09,2.61,4.11,6.95,5.76v-1.2c-1-.69-1.4-2.23-2.4-2.88-1.23-.8-2.24-1-3.59-1.68-2.35-1.24-4.24-3.51-6.72-4.79-.36-3.66,1-4.94,5-4.8,1,1.07,3.82.05,5.27.72,1.64.76,2.28,2.87,4.56,3.12v-.24c-.44-.38-.34-.21-.48-1h-.72c-1.09-1.54-3.65-2.91-5.52-3.59-3.58-1.31-7.66,2-7.67-3.6.19-.25.09-.07.24-.48l1.44-1.2c2,0,3.27-.13,5,0,.07-.24.16-.48.23-.72a38.56,38.56,0,0,0-6.71-.24,3.31,3.31,0,0,1-1-2.64c.19-.24.09-.06.24-.48,2.09-1.18,5-.11,7.43-.95.28-.1.16-.41.72-.48h3.36a5.17,5.17,0,0,0,1.92.72v-1c-1.35-.11-1.81-.69-2.64-1a6.62,6.62,0,0,0-2.87.24c-2.72.59-6.23,0-8.16-.24l-1.92-2.16v-2.88a10,10,0,0,0-1.19-3.11c-.65-1-2.37-.76-3.36-1.44s-1.5-2.11-2.16-3.12-5.16-3.19-6.47-3.6v.48h.24c1.53,1.39,4.64,2.38,4.79,5a5.3,5.3,0,0,1-4.79,1c-2,.83-5.35,1.34-7.44,2.16V374h.25c.28.2.4.19.95.24.25-.26,6.34-1.87,7-1.67.43.13,1.09.82,1.67,1,1.92.45,4.81-.91,6.48.24,1.08.36,1.43,1.21,2.16,1.91v1.68c-2.19,1.5-2.18,2.75-2.16,5.52,0,1-.24,2.87-.24,2.87l.24.48c.95-.26,1-.59,2.16-.72,1.05,1.33,1.72,1.42,1.68,4.08.37.58.07,1.12,0,1.68-.6,4.52-1,5.32-3.6,7.67a22.4,22.4,0,0,1,1,6.47,4.87,4.87,0,0,1-2.64.48c-.52-.54-.9-.6-1.2-1.44.48-.52.5-1.09.48-2.16h-.48a5.68,5.68,0,0,1-.24,1.92,15.23,15.23,0,0,0-3.11,1c-1.4.37-3.17,0-4.56,0-.45-.62-1.08-.72-1.44-1.44a6,6,0,0,1-.48-1.91c.85-.55,1.5-1.77,2.4-2.16,1.53-.67,3.17-.1,4.79-.72a7.7,7.7,0,0,0,4.32-6c-1.06-1.1-.42-5.08-3.12-5.27-.24-2.84-6-10-8.63-10.07-.65,1.83-.31,3.22-3.6,3.12-.5-.79-1.44-1.39-1.91-2.16-.66-1.08-.67-2.4-1.44-3.6a6.37,6.37,0,0,0-1.68,1.44,8.15,8.15,0,0,1,.24,1.68c2.35,1.68,4.18,5.36,7.91,5.51.66-1,1.68-1.22,3.36-1.19.54.57.94.5,1.68,1,2.06,1.28,2.59,4.06,5,5,.15,1.38,1.22,4.71.24,6.23-1.28,3.52-5.42,3.42-8.63,4.32l-3.36.24c-1.26.52-3.09,1.9-4.31,2.39a11.84,11.84,0,0,0-2.64.49c-.56.3-.8,1.15-1.2,1.67a19.07,19.07,0,0,1-3.83,3.12c-2,1.53-3.38,5.18-6.24,5.76-.09.49-.06.46-.24.72a2.64,2.64,0,0,1-1.44.23c-1-1-2.5-1.71-3.35-2.87-.45-.62-.26-1-1-1.44V409h-.24v.24c-3.83,1.73-3.42,7.34-5.75,10.55-1.11,1.52-3.64,2.39-4.56,4.07s-1.11,3.45-2.16,5c-.24.37-1.09.64-1.44,1s-.15.69-.48,1.2L259,434.62c-1,1.7-.5,3.62-1.2,5.76-1.06,3.19-1.89,3.6-1.92,8.39,1.26.79,1.28,1.93,1.2,4.07-1.35,1.64-1.27,6.45-1.2,8.63h.24c.25-.19.07-.08.48-.23.51-1.55.7-2,2.88-1.92,1.17,2,2.39,4.52,5.27,4.79v-1.44l.72-.24c1.45-.89,3.21.73,3.6,1.68v1.2c.29.56.86.6,1.68.72,1.36-2.11,4.18-.77,4.07,1.92-1.38.89-2.79,2.08-4.31,2.88.15.41,0,.23.24.48a5.14,5.14,0,0,0,2.39.24c.37-.28,1-.22,1.44-.48l2.64-3.12c.4-.29,1.18-.33,1.44-.72,1.94-2.94,1.61-6.9,6.47-7a3.32,3.32,0,0,1,.24,1,1.82,1.82,0,0,0-1,1.19h.24c.7-1,4.22-2.61,6-2.63,1,1.27,3,1.67,4.32,2.63s2.2,3.18,3.6,4.08c2.25,1.45,5.75,3.46,4.31,8.39a10.57,10.57,0,0,1-1.2,2.4c-.54.38-1.1-.09-1.44.48A6,6,0,0,0,300,479h-.72v1c-.45.26-1.07,1-1.44,1.19l-1.2-.23v.23c-.31.14-2.64.48-2.64.48-.71.42-1.13,1.74-1.92,2.16l-2.39.24-.24.72c-.82.76-1.48.95-3.12,1-.38-.65-.22-.6-1.2-.72-.95,1.43-4.14,1.95-6.47,1.92a1.88,1.88,0,0,0-1.68-1,7.63,7.63,0,0,1-4.8,1.68c-.32-.48-1.23-1-1.43-1.44A3.47,3.47,0,0,1,271,484c-.78-1.3-1.43-1.84-.73-3.59h-.47c-.6.87-1.29.73-2.4.48-.62-1-.57-2.37-1-3.36-.67.48-1.85,1.58-3.12.72-2.11-.73-3.32-3.56-4.79-5a19.37,19.37,0,0,0-4.32-2.88L248,470.1c-3.61-1.4-6.89-3.82-10.55-4.79-2.94-.77-7.38.3-9.35-1.2-1.52-1.36-.49-2-1.44-3.6v.25c-.63.94-.22,2-.72,3.11-.58,1.28-2.48,2.09-3.59,2.88l.48,1.68c2.46.29,3.33-.86,5.75-1.2,1,.89,3,2.75,4.56,2.87,1.64-1.88,6.32,2.53,6.23,5-2,1.2-6.23,2.61-8.87,1.68-.53-.19-1.44-1.23-1.92-1.44h-4.8a30.24,30.24,0,0,0-7.19-1c-.51.8-.8,1-2.16,1-1.32-1-1.76-.83-1.67-3.36a16.76,16.76,0,0,0,3.35-3.59h-.48c-.92.51-2-.29-3.11.24-.82.37-1.89,1.5-2.64,1.92s-1.84,0-2.88.48l-1.2,1.43c-.86.58-2.55.32-3.12,1.2,0,.15-.32,1.65-.47,2.4-.86.53-4,2.29-4.32,3.12l-1,2.87c-.94,1.34-2.29,1.85-2.39,4.08,4-.12,5.4-1.35,9.11-2.16.45-1.57,1.4-3.15,3.59-3.11.19.16.54.31.72.48s.22.81.48,1.19.79.41,1.2.72a9,9,0,0,1,1.44,1.92l3.35,3.12c.79,1.06,1.14,2.28,1.92,3.35,1.23,1.7,4.06,2.71,4.56,5,.5.09.46.06.72.24a9.43,9.43,0,0,0,4.07,2.63l3.36.25c5.27,2,8.45,2.14,14.62,1.43v-1a12.72,12.72,0,0,0-3.83-.47c-.76-.51-1.58-.1-2.64-.48a37.37,37.37,0,0,1-6.23-2.64c-2.51-1.49-3.88-4.81-6.24-6.47-.53-.38-1-.12-1.67-.48-.09-.25-.17-.48-.24-.72l-1.2-.24a25.32,25.32,0,0,0-2.64-1.92h-1c-2.35-1.21-4.37-3.5-6.23-5.28v-1.67c.95-.39.61-.8,1.91-1,2.95,1.85,7.57-1.86,11.27-.72a26.46,26.46,0,0,1,7,3.35c1,.69,1.77,2.16,2.87,2.64,2.08.9,3-.74,5,0a21,21,0,0,0,4.79,1.44c2.6-3.28,9.34-5.23,15.11-4.56.69,1,1.19,1,1.2,2.88h-.25c.09.16.17.32.25.48,4.5,1.8,9.18-.93,8.63,6,2,.23,2.58-.34,4.07-.71,1.77-.45,2.56.72,3.6,1l1.92-.24a2.87,2.87,0,0,0,1,1,4.71,4.71,0,0,1-.24,1.19c-.53,1.88-2.19,1.95-3.36,3.12-.61.61-.69,1.67-1.2,2.4-1.36,2-3.47,2.22-6.95,2.15-.65-.69-5.68-1.73-6.48-1.67v1.2c.64.43.85,1.26,1.44,1.67l1.92.72,1.68,1.92C268.11,505,269.42,505.18,270.27,506.31ZM265.48,455a2.5,2.5,0,0,1-1.44.48c-1-1.35-2.13-1.36-2.16-3.84a2.16,2.16,0,0,0,1-.71H264A7.18,7.18,0,0,1,265.48,455Zm33.81-51.07c1.21-1,1-1.38,2.63-1.68.39.38.86.53,1.2,1,.67.89.34,3.35.48,4.8a4.85,4.85,0,0,1-2.63.48C300.09,407.12,299.3,406.25,299.29,403.93ZM283.7,438.46c-.93.49-4.93,3.56-5.27,4.32v3.35c-1.09,1.3-.4,2.15,0,3.6l-.48,2.15a4.34,4.34,0,0,1-1.44.25,1.3,1.3,0,0,0-1-1c-1.1,1.59-3.13,2.84-3.83,4.79a2.53,2.53,0,0,0,1.19.48c.41-.84,1.15-.78,2.4-.72a2.8,2.8,0,0,1,.48,1.68c-.64,1-.79,2.78-1.2,3.84-1.44.94-1.84,1.08-4.07.95-.93-1.34-1.71-1.33-1.68-3.83-.8-1-.45-2.16-1-3.6-.4-1.12-1.52-2.87-1.92-4.07-1-3,.93-5,1.44-7.2l-.24-1.91.48-.24c.66-2-.43-4.48-.72-5.52v-4.31c1.65-1.34,1.49-2.46,4.8-2.4.43.65,1.29,1.06,1.67,1.68,1.16,1.84,1.5,6.3,1.2,8.87,1,.84,1.22,2.13,2.64,2.63v-.24c-1.22-1.19.7-2,0-3.83l-.72-.48a54.37,54.37,0,0,1-.72-7.43,9,9,0,0,0,1.44-2.4h2.4c.82,2.35,2.08,3.27,2.15,6.95C283.39,435.64,283.81,435.9,283.7,438.46Zm9.35,11a4.92,4.92,0,0,1-2.63.48,4.4,4.4,0,0,1-.72-1.2c-.38-.82-.05-2.9-1.2-3.36v.48a25.83,25.83,0,0,0-1.92,3.36c-.39.63-1.39.92-1.92,1.44h-1.92c-.7-.73-1.54-1.08-1.91-2.16-.71-.9-.57-3,0-4.08,1.77-3.22,4.86-5.45,7.19-8.15h1.68c.73,1.05,2,1.79,2.63,2.88C293.92,441.74,293.72,446.62,293.05,449.49Zm5.28,6.47a4.71,4.71,0,0,0-1.44,1.44c-1.72-.57-3.08.19-4.8-1-.63-.42-.23-1.12-.72-1.68-.3-.36-1.48.86-1.67-1.2a3.86,3.86,0,0,1,1.2-.24,10.68,10.68,0,0,0,.71,1.44v-.24a17.6,17.6,0,0,0,1.2-1.44c.51,0,.76-.46,1.68-.24.19.05.9.83,1.2.72.59-.22.49-.64,1.68-.72A4,4,0,0,1,298.33,456ZM390.15,530a8.65,8.65,0,0,1-1.2-4.79h.24V525h.72c1.67,2.3,5.52,3,5.76,6.71-1.19,1-1.17,1.49-3.6,1.44-.26-.18-.23-.14-.72-.24C390.66,531.91,390.16,531.9,390.15,530Zm-.24,10.55a3.62,3.62,0,0,1-2.16.48,12,12,0,0,0-1.43-1.91c.08-.81.16-1.6.24-2.4h.24v-.24h1.91A5.48,5.48,0,0,1,389.91,540.59Zm-42.19,9.11c-.92.71-1.16,1.45-2.64,1.68-1.07-1.59-2.16-2-2.16-4.79a6.25,6.25,0,0,0,1.2-1h1.68A34.84,34.84,0,0,1,347.72,549.7ZM362.1,519c.71-3.15,3-2.59,5.28-4.08,1.06-.69,1.32-1.53,3.11-1.68a2.66,2.66,0,0,1,.72,1.92c-2,1.31-5.51,5.15-7.91,5.27-.24-.19-.07-.08-.48-.23C362.57,519.84,361.71,519.24,362.1,519Z" fill-rule="evenodd"/>
        <path d="M304.8,365.57v-.24l.72-.24.48.72a1,1,0,0,1-1-.24Z" fill-rule="evenodd"/>
        <path d="M236.71,366.53v.72h-.24C236.57,366.76,236.53,366.79,236.71,366.53Z" fill-rule="evenodd"/>
        <path d="M237,368h-.24c.16-.41,0-.23.24-.48Z" fill-rule="evenodd"/>
        <path d="M244.62,407.53c1.37,1,3.94.17,5.28-.48,1.69-.82,3.5-4.53,4.55-5l2.4-.24c1.68-.82,1.66-2.85,2.88-4.08.44-.45,1-.43,1.44-1a3.35,3.35,0,0,0,1.44-.48c1.23-.4,1.86.37,2.87.48a3.32,3.32,0,0,0,.24,1c-1.33.48-2.54.78-3.11,1.92v1.2c-.52,1-3.89,3.06-4.8,4.31-2.51,3.46-2.59,6.61-6.23,9.35-2.74,2.07-4.61,2.74-8.4,1.2l-1.43-.24c-.23-.18-.22-.77-.48-1a11.66,11.66,0,0,1-2.4-1.91c-.63-.73-.67-1.52-1.2-2.4-.74-1.23-2.32-1.9-3.12-3.12h-1c-.5-2.32-2.31-4.3-2.87-6.71-.35-1.47.49-2.14.72-2.88.65-2.15-.61-4.4-1-6v-3.36c-.55-1.52-2.37-3.4-1.92-5.75.73-3.89,4.32-6.74,4.79-10.79h.72c.22-.26,0,0,.24-.24v-1h1.44c.15,1.35,1.17,2,.72,3.83-.29,1.19-1.65,3-1,5,1,3,4.44,6.39,6.24,8.87.8,1.11,1.26,2.58,2.39,3.36-.34,2.69-.32,5.58,2.4,6.47v.24c2.19,0,4.39-.78,5.28-1.92H253c-1.3,1.6-4,1.93-5.28,3.6a3.16,3.16,0,0,1-1.68-.24c-4.46.06-3.79-3-5.51-5.52-.66-1-1.77-1.86-2.4-2.87-2.86,0-2,1.11-3.36,2.4,1,5.8,3.32,6.81,6.24,10.3C242.06,405.18,243,407,244.62,407.53Z" fill-rule="evenodd"/>
        <path d="M281.54,376.36a5.5,5.5,0,0,1-2.63-.72c.24-.63.32-.4.48-1.2a16.87,16.87,0,0,1,3.35-.24,13.83,13.83,0,0,0,3.36,1.2c.16.42,0,.24.24.48v.48A13.47,13.47,0,0,1,281.54,376.36Z" fill-rule="evenodd"/>
        <path d="M199.55,377.8c.24.19.06.09.48.24,0,2.87-4.77,6-6.48,7.67-.45.45-1.36,2.49-1.91,2.64s-1.23-.87-1.44-1.2,0-.41-.24-.72C190.11,383.55,196.85,378,199.55,377.8Z" fill-rule="evenodd"/>
        <path d="M287.06,381.88l-.48-.24v-.48h1.92a7.41,7.41,0,0,0,2.64,1.2c-.16.41-.05.23-.24.48A8,8,0,0,1,287.06,381.88Z" fill-rule="evenodd"/>
        <path d="M25.73,385.23v-.72a15.76,15.76,0,0,0,5-1.67c.4-.47,3.05,1.09,3.6,1.44-.06.55,0,.67-.24,1-1.41.92-2.36.34-3.6,1.68C28.7,386.55,27.7,385.45,25.73,385.23Z" fill-rule="evenodd"/>
        <path d="M291.37,388.59h-.23v-.24l2.39-.24a7.61,7.61,0,0,0,1.44.48,4.25,4.25,0,0,1-.72,1.2A6.64,6.64,0,0,1,291.37,388.59Z" fill-rule="evenodd"/>
        <path d="M160.23,388.59a4,4,0,0,1,1.2.24c-.67,1-1.59,1.11-2.4,1.92s-1,1.88-1.68,2.64v.24a3.6,3.6,0,0,1-1-.49c.25-1.32,1.66-2.5,2.64-3.11v-1.44C159.8,388.66,159.8,388.8,160.23,388.59Z" fill-rule="evenodd"/>
        <path d="M335.73,389.79c-.18-.26-.15-.22-.24-.72a6.7,6.7,0,0,1,2.16.24v.48c-.2.24-.09.06-.24.48C336.48,390.24,336.19,390.21,335.73,389.79Z" fill-rule="evenodd"/>
        <path d="M285.14,389.55c-.22.26,0,0-.24.24v-.24c0-.19-.07-.16.48-.48C285.23,389.48,285.33,389.3,285.14,389.55Z" fill-rule="evenodd"/>
        <path d="M273.39,391.23l2.64.24c1.67-.74,1.94-2.22,4.8-2.16.65,1.64-2.18,1.8-4.32,1.92-1,2.38-3.2,2.67-4.56,4.55a3.83,3.83,0,0,1-2.15-.72c-.16-.41-.05-.23-.24-.48C269.83,393.16,272.17,391.6,273.39,391.23Z" fill-rule="evenodd"/>
        <path d="M190,390.51c.49,1.89-1.07,4.22-1.68,5.75h-.48c-.75-2.14-.34-3.2,0-5.27H188v-.24A7.83,7.83,0,0,1,190,390.51Z" fill-rule="evenodd"/>
        <path d="M190.92,400.34c-.22-.26,0,0-.24-.24a26.12,26.12,0,0,1,1.68-6c.51-1.05,1.65-1.48,1.91-2.87.77-.07.77-.22,1.2,0,.77.21.37-.13.72.48.33.84-4.13,7.16-5,8.39v.24Z" fill-rule="evenodd"/>
        <path d="M162.39,417.36a10.82,10.82,0,0,1-5.52-4.07c-.18-.17.74-3,.48-4.32,0-.24-1.2-4.32-1.2-4.32.16-.51,1-1.12,1.2-1.67.5-1.71-1.3-2-.24-3.12,0-2.61,1.58-3.55,3.12-4.56.67,2.1-1,2.67-1.2,4.56-.14,1.44.55,1.78.72,2.39.24.89-.79,2-.48,3.36s1.54,3.16.48,4.56c.92,1.68,1.62,2,3.36,2.87A23.07,23.07,0,0,1,162.39,417.36Z" fill-rule="evenodd"/>
        <path d="M277.23,400.58c-1.08,1.59-2.54,1.2-4.32,2.15-.15.09-5,5.77-5.27,6.24a3.16,3.16,0,0,1-1.68-.24c-.55-.25-.52-.41-1-.72C266.2,404.45,273.85,401.53,277.23,400.58Z" fill-rule="evenodd"/>
        <path d="M186.84,412.08c.19-1.32.45-3.68,1.68-4.55a15,15,0,0,1-1.2,4.32v.23Z" fill-rule="evenodd"/>
        <path d="M36,413.52c.49.62,1.53,1,1.92,1.68.87,1.49.76,3.21,1.67,4.56.61.89,1.83,1.67,2.4,2.63.86,1.45,1,3.35,1.92,4.8,1.06,1.66,2.5,3.38,3.6,5.28,1.4,2.41,1.92,5.53.47,7.19.07,1.95,2,5.06,3.12,6a5.43,5.43,0,0,1-3.36,1.2c-.05-4.08-1.74-6.67-3.35-9.11-.56.05-.68.05-1,.24l-.72-2.16a25.66,25.66,0,0,1-2.64-4.55v-1.68c-1-2.92-2.64-6.18-3.83-8.87-.74-1.67,0-3.48-1.2-4.56a5.54,5.54,0,0,1,.72-2.64Z" fill-rule="evenodd"/>
        <path d="M109.64,414.72a.7.7,0,0,1,0-1Z" fill-rule="evenodd"/>
        <path d="M250.86,424.31c2.88-.81,4.83-3.59,7.19-5,1.6-1,3.05-.86,4.07-2.4h.49c-.29,2.15-1.54,4.15-1.68,6.71-2,.37-4.72,4.18-5.76,5.76-5.61.18-9.36-2.08-11.75-5.76h-.72v-1.2C245.68,421.91,247.24,425.33,250.86,424.31Z" fill-rule="evenodd"/>
        <path d="M111.56,425.51c-.08.86,0,.8-.48,1.2V427h-.24a3.77,3.77,0,0,0-1.2-1c-.31-1.39-.56-3.31.24-4.08A15,15,0,0,0,111.56,425.51Z" fill-rule="evenodd"/>
        <path d="M197.87,425a1.47,1.47,0,0,0-.48-.48,4.53,4.53,0,0,1,.24-1.43h1c0,1,0,1.24-.48,1.67V425Z" fill-rule="evenodd"/>
        <path d="M66.49,429.35c-1.18.11-1.25.42-1.68,1.2a4.14,4.14,0,0,1-2.4-.48c-3.55,0-3.52-2-5.51-3.36a2.11,2.11,0,0,0-.24-1.2v-.72c1,.27,2.51.92,3.35,1.2s1.88-.48,2.4-.24c1.31.61,1.15,1.87,3.36,1.92V427c1,.25,3.14.21,4.31.72a31.4,31.4,0,0,0,4.56,1.92,12.74,12.74,0,0,0,4.79-.24s4.09,2.38,4.32,2.63h2.4c.64.46.58,1.64,1,2.4C88.18,436.54,90,439.85,90,443c-1.1.22-1.17.7-1.92,1.2v.72c-2.18-.35-4.26-1.18-6.23.24-2.16-.46-2.14-4-3.84-5h-.71l-.49-.72c-.18.09-.54.44-1,.24s-.58-1.11-1-1.44l-2.16-.72c-1.3-.86-1.57-2.7-2.4-4.08C69.6,432.22,67.5,430.45,66.49,429.35Z" fill-rule="evenodd"/>
        <path d="M211.06,432.47a3.16,3.16,0,0,1,.48-1.92h1c1.28,2.06,3.27,3.32,4.55,5.27h.24v.24c-2.81-.35-4.13-1.89-6-3.12C211.14,432.53,211.25,432.71,211.06,432.47Z" fill-rule="evenodd"/>
        <path d="M137.45,433.9c.36-.59-.06-.28.72-.48,1,1.38,2.14,3.13,3.6,4.08a3.51,3.51,0,0,1-.24,1,3.65,3.65,0,0,1-1.92-.72C138.42,436.87,138.54,434.86,137.45,433.9Z" fill-rule="evenodd"/>
        <path d="M203.86,436.06h1.44c-.35,3.15-1.42,6-2.15,9.11l-.24,5c-.52.79-1.76-.15-2.4,1.68a2,2,0,0,1-1.2-.24c-.85-1.1-1.43-10.94-.72-12,.25-.55.41-.52.72-1,.49.1.46.06.72.24C202.25,438.91,203.09,437.48,203.86,436.06Z" fill-rule="evenodd"/>
        <path d="M141.05,440.61v-.47h.24v-.24c1.77.06,2.21.77,3.36,1.44-.06.55-.05.67-.24,1,0,2.42,1.9,2.47,3.35,3.36a3.41,3.41,0,0,1-.24,1h-1.2a3.61,3.61,0,0,0,.49,2.4,30.72,30.72,0,0,0,5,2.87H154c.73.33,1.11,1.62,1.91,1.92l2.4.24c.62.52.11,2.31.72,2.88v.24c-1.41-.21-3.2,1-5,.48-.1,0-6.24-3.6-6.24-3.6v-1a22.27,22.27,0,0,0-4.31-4.31l.24-2.64c-.27-.83-1-.95-1.2-2.16h.72v-.24h.24A5,5,0,0,0,141.05,440.61Z" fill-rule="evenodd"/>
        <path d="M232.87,447.57l2.64.24c-.61.59-1.7.95-2.16,1.68-1.95,3.11-3.81,6.73-6.95,8.63v.72c-2.16,0-1.87-1.1-2.88-2.16-.47-.33-1.05-.3-1.43-.72-1.63.13-2,.73-2.88,1.44v.48H219c-.07-2.15-.1-5,1.2-6.48.21-.32.91.57,1.92.24a11.32,11.32,0,0,0,5.27-3.83h1c-.15.41,0,.23-.24.48.17.89.35.85.72,1.44A4.43,4.43,0,0,0,232.87,447.57Z" fill-rule="evenodd"/>
        <path d="M69.36,453.32c-.24-.54,0-1.3-.23-1.68,0-1,0-1.46.47-1.91C71,452.19,72,455,73.68,457.4v.48H72.24c-.06,0-2.41-4.18-2.64-4.56Z" fill-rule="evenodd"/>
        <path d="M178.21,468.67c-2.62-.12-8.61-3-10.31-1.92-1.08.11-1,.31-1.68.72-.2,4.11.48,2.69,1.44,5.27-.19.25-.08.06-.24.48-2.73-.66-6.06-1.74-7.67-3.59-1.05.15-2.28.52-2.64,1.44-2.67-.81-2.45-3.14-4.31-4.56a7.42,7.42,0,0,1,1-2.88c1.66.47,4.63,4.23,6.71,2.88.94-.39,1-1.18,1.92-1.68v-2.4c-.45-1-2.72-2.37-1.92-3.83a5.53,5.53,0,0,0,6.23,1.91c2.48,3.82,7.75,5.4,11.75,7.68Z" fill-rule="evenodd"/>
        <path d="M84.47,466.27c1.5,0,1.51.16,1.92,1.2,3.4.09,2.62-1.39,3.83-3.36.66-.67,2.06-.18,2.88-.72s2.35-3.59,2.87-4.55c.68-.16,1.55-.42,2.16,0,1.09.67,2.19,8,1.92,10.07-2.66.3-1.46,3.32-3.11,4.55a15.72,15.72,0,0,0-1.68-2.87c-2.1,0-2.22,1.06-2.88,2.39-1.23-.53-4.57-4.22-6.23-3.35a3.84,3.84,0,0,1-3.84-1.92H80.87v-1.2C82,466.46,83.39,467.11,84.47,466.27Z" fill-rule="evenodd"/>
        <path d="M78.71,461.24c.83.38.91,1,1.44,1.67v.48l-1.44.24A9.91,9.91,0,0,0,75.6,461v-.49l.71-.23C77.08,461.39,77.84,460.82,78.71,461.24Z" fill-rule="evenodd"/>
        <path d="M262.84,467.23c.54.8,1.38,1.15,1.92,1.92H265v.24c-1.75.14-2.9,0-4.07-1l-.48-.24v-.48a1.57,1.57,0,0,0,.48-.48Z" fill-rule="evenodd"/>
        <path d="M278.91,470.83c.79-1.35.69-2.27,1.92-3.12,0,3.81-1.22,4.83-2.64,7l-3.12.72c-.25-.19-.06-.09-.48-.24v-.48A19.41,19.41,0,0,0,278.91,470.83Z" fill-rule="evenodd"/>
        <path d="M148.48,469.87c.15.41.05.23.24.47-.3,3.44-4.08,4.93-8.15,4.8.25-1.95,5.18-4,6.47-5.51A4,4,0,0,1,148.48,469.87Z" fill-rule="evenodd"/>
        <path d="M73.2,481.13H73v-.23c-1.39-1-2.51-4.09-2.64-6.24h.48a17.94,17.94,0,0,0,2.4,5.28Z" fill-rule="evenodd"/>
        <path d="M91.18,498.64c-.86-1.51.27-4.41-.24-6.48a19.27,19.27,0,0,0-2.4-5.27c-2.86-.07-3.32,1.46-4.31,3.11l-1.44.25a9,9,0,0,0-1.44-1c.33-3.69,1.77-4.74,4.32-6.24,1.62,1,3.91.7,5,2.16,1.57,2,2.7,5.67,3.36,8.39.37,1.54,0,4.36.72,5.52v1.44A40.4,40.4,0,0,1,91.18,498.64Z" fill-rule="evenodd"/>
        <path d="M252.06,494.08c1.22,1.39,3.64.85,5.51,1.68.72.32,1.41,1.34,2.16,1.68v.48l-4.8-.24c-1-.3-2.42-1.3-3.35-1.68s-2.29-.1-2.64-.24h-.48C248.72,494.34,250.39,494,252.06,494.08Z" fill-rule="evenodd"/>
      </g>
    </g>
  </g>
</svg>
